<svg width="23" height="34" viewBox="0 0 23 34" fill="none" xmlns="http://www.w3.org/2000/svg">
<path d="M21.6138 12.4991C21.6138 14.0222 20.9654 16.083 19.939 18.3665C18.9199 20.6336 17.5569 23.0593 16.1876 25.2914C14.8192 27.5218 13.4501 29.5502 12.4226 31.0213C11.909 31.7567 11.4812 32.3523 11.182 32.7637C11.1585 32.7961 11.1357 32.8274 11.1138 32.8575C11.0918 32.8274 11.0691 32.7961 11.0455 32.7637C10.7463 32.3523 10.3185 31.7567 9.80494 31.0213C8.77745 29.5502 7.40829 27.5218 6.03996 25.2914C4.67061 23.0593 3.30763 20.6336 2.28857 18.3665C1.26216 16.083 0.61377 14.0222 0.61377 12.4991C0.61377 6.19835 5.34896 1.15479 11.1138 1.15479C16.8786 1.15479 21.6138 6.19835 21.6138 12.4991Z" stroke="#A58563"/>
<path d="M15.6138 12.0142C15.6138 14.605 13.584 16.6776 11.1138 16.6776C8.64352 16.6776 6.61377 14.605 6.61377 12.0142C6.61377 9.42342 8.64352 7.35083 11.1138 7.35083C13.584 7.35083 15.6138 9.42342 15.6138 12.0142Z" stroke="#A58563"/>
</svg>
