<svg width="39" height="41" viewBox="0 0 39 41" fill="none" xmlns="http://www.w3.org/2000/svg">
<mask id="path-1-inside-1_85_886" fill="white">
<path fill-rule="evenodd" clip-rule="evenodd" d="M19.0863 38.1179C29.6122 38.1179 38.1452 29.5849 38.1452 19.0589C38.1452 8.53298 29.6122 0 19.0863 0C8.56032 0 0.0273438 8.53298 0.0273438 19.0589C0.0273438 23.3415 1.43983 27.2942 3.82436 30.4765L2.43335 40.6937L12.0289 36.7686C14.2116 37.6391 16.5931 38.1179 19.0863 38.1179Z"/>
</mask>
<path fill-rule="evenodd" clip-rule="evenodd" d="M19.0863 38.1179C29.6122 38.1179 38.1452 29.5849 38.1452 19.0589C38.1452 8.53298 29.6122 0 19.0863 0C8.56032 0 0.0273438 8.53298 0.0273438 19.0589C0.0273438 23.3415 1.43983 27.2942 3.82436 30.4765L2.43335 40.6937L12.0289 36.7686C14.2116 37.6391 16.5931 38.1179 19.0863 38.1179Z" fill="#F8F4F0"/>
<path d="M3.82436 30.4765L5.01976 30.6392L5.0865 30.149L4.78982 29.753L3.82436 30.4765ZM2.43335 40.6937L1.23795 40.5309L0.956064 42.6014L2.89011 41.8103L2.43335 40.6937ZM12.0289 36.7686L12.4759 35.648L12.0232 35.4674L11.5722 35.6519L12.0289 36.7686ZM36.9388 19.0589C36.9388 28.9186 28.946 36.9115 19.0863 36.9115V39.3243C30.2785 39.3243 39.3517 30.2512 39.3517 19.0589H36.9388ZM19.0863 1.20643C28.946 1.20643 36.9388 9.19927 36.9388 19.0589H39.3517C39.3517 7.86669 30.2785 -1.20643 19.0863 -1.20643V1.20643ZM1.23377 19.0589C1.23377 9.19927 9.22661 1.20643 19.0863 1.20643V-1.20643C7.89403 -1.20643 -1.17908 7.86669 -1.17908 19.0589H1.23377ZM4.78982 29.753C2.55633 26.7723 1.23377 23.0718 1.23377 19.0589H-1.17908C-1.17908 23.6112 0.323338 27.816 2.8589 31.1999L4.78982 29.753ZM3.62875 40.8564L5.01976 30.6392L2.62896 30.3137L1.23795 40.5309L3.62875 40.8564ZM11.5722 35.6519L1.97659 39.5771L2.89011 41.8103L12.4857 37.8852L11.5722 35.6519ZM19.0863 36.9115C16.7487 36.9115 14.5188 36.4628 12.4759 35.648L11.582 37.8891C13.9045 38.8155 16.4374 39.3243 19.0863 39.3243V36.9115Z" fill="#F8F4F0" mask="url(#path-1-inside-1_85_886)"/>
<path d="M22.2658 22.9759L23.8704 21.4558C24.0865 21.2536 24.3599 21.1152 24.6575 21.0574C24.955 20.9995 25.2639 21.0248 25.5466 21.1301L27.5021 21.8698C27.7878 21.9796 28.0327 22.1671 28.2061 22.4086C28.3795 22.6502 28.4735 22.9349 28.4763 23.227V26.6201C28.4746 26.8187 28.4305 27.0151 28.3467 27.1972C28.2628 27.3793 28.1409 27.5434 27.9883 27.6798C27.8358 27.8161 27.6556 27.9217 27.4588 27.9903C27.262 28.059 27.0525 28.0892 26.8431 28.0791C13.14 27.2715 10.375 16.278 9.85207 12.0705C9.82779 11.8639 9.84997 11.6548 9.91714 11.4569C9.98432 11.259 10.095 11.0768 10.2418 10.9223C10.3886 10.7678 10.5683 10.6445 10.7691 10.5605C10.9698 10.4766 11.187 10.4338 11.4065 10.4351H14.8663C15.175 10.436 15.4764 10.5243 15.7317 10.6888C15.987 10.8532 16.1846 11.0863 16.2989 11.358L17.0797 13.2106C17.1945 13.4774 17.2238 13.7702 17.1639 14.0527C17.104 14.3351 16.9576 14.5945 16.743 14.7986L15.1385 16.3187C15.1385 16.3187 16.0625 22.243 22.2658 22.9759Z" fill="#A58563"/>
</svg>
