<svg width="33" height="33" viewBox="0 0 33 33" fill="none" xmlns="http://www.w3.org/2000/svg">
<path d="M20.9654 22.1513L23.2754 19.8413C23.5865 19.534 23.9801 19.3237 24.4085 19.2358C24.8369 19.148 25.2815 19.1863 25.6885 19.3463L28.5038 20.4704C28.9151 20.6373 29.2677 20.9222 29.5173 21.2893C29.7669 21.6563 29.9023 22.089 29.9063 22.5329V27.6891C29.9039 27.991 29.8404 28.2894 29.7197 28.5661C29.599 28.8429 29.4235 29.0923 29.2038 29.2995C28.9842 29.5066 28.7249 29.6672 28.4415 29.7715C28.1581 29.8757 27.8566 29.9216 27.5551 29.9063C7.82725 28.6791 3.84662 11.9729 3.09381 5.5791C3.05887 5.26513 3.09079 4.94731 3.1875 4.64656C3.2842 4.3458 3.44349 4.06893 3.65488 3.83416C3.86627 3.59939 4.12498 3.41204 4.41397 3.28443C4.70297 3.15683 5.01571 3.09185 5.33162 3.09379H10.3126C10.757 3.09511 11.191 3.22937 11.5585 3.4793C11.9261 3.72924 12.2104 4.08342 12.3751 4.49629L13.4991 7.31161C13.6644 7.71696 13.7065 8.16202 13.6203 8.59119C13.5341 9.02037 13.3234 9.41463 13.0144 9.72473L10.7044 12.0347C10.7044 12.0347 12.0347 21.0375 20.9654 22.1513Z" fill="#F8F4F0"/>
</svg>
