<svg width="27" height="27" viewBox="0 0 27 27" fill="none" xmlns="http://www.w3.org/2000/svg">
<path d="M16.9512 18.3082L18.7878 16.4716C19.0352 16.2273 19.3482 16.0601 19.6888 15.9902C20.0293 15.9203 20.3829 15.9509 20.7064 16.078L22.9448 16.9717C23.2718 17.1045 23.5521 17.331 23.7506 17.6228C23.949 17.9146 24.0566 18.2587 24.0599 18.6116V22.7111C24.0579 22.9511 24.0075 23.1883 23.9115 23.4084C23.8155 23.6284 23.676 23.8267 23.5013 23.9914C23.3267 24.1561 23.1205 24.2838 22.8952 24.3667C22.6699 24.4496 22.4302 24.4861 22.1905 24.4739C6.50562 23.4982 3.34078 10.2157 2.74224 5.13226C2.71446 4.88263 2.73984 4.62994 2.81673 4.39083C2.89362 4.15171 3.02026 3.93158 3.18833 3.74493C3.3564 3.55827 3.56208 3.40931 3.79185 3.30785C4.02163 3.2064 4.27027 3.15474 4.52144 3.15628H8.4816C8.83499 3.15733 9.17998 3.26407 9.47221 3.46279C9.76444 3.6615 9.99053 3.9431 10.1214 4.27136L11.0151 6.50971C11.1465 6.83199 11.18 7.18584 11.1115 7.52706C11.043 7.86828 10.8754 8.18174 10.6298 8.42829L8.79316 10.2649C8.79316 10.2649 9.85085 17.4227 16.9512 18.3082Z" fill="#F8F4F0"/>
<path d="M13.9381 12.4902L19.0868 11.6099L15.7501 7.59115L13.9381 12.4902ZM22.3045 4.95568L16.7814 9.54147L17.3594 10.2375L22.8825 5.65175L22.3045 4.95568Z" fill="#F8F4F0"/>
</svg>
