<svg width="125" height="95" viewBox="0 0 125 95" fill="none" xmlns="http://www.w3.org/2000/svg">
<path d="M114.943 65.8941L110.077 78.8514H108.697V80.0592H113.873V78.8514L112.51 78.6962L112.217 78.6271L113.287 75.487H117.772L118.894 78.6271L118.721 78.9032L117.289 79.0067V80.2145H124.191V79.0067L122.983 78.8514L117.962 65.8941H114.943ZM-0.0517578 65.9976V67.2053H1.27676L1.62183 67.5331V78.3511L1.27676 78.7479L-0.0517578 78.8514V80.0592H7.69507C9.07185 80.1305 10.4378 79.7815 11.6116 79.0585C12.0922 78.7181 12.4778 78.2603 12.7315 77.7288C12.9851 77.1973 13.0986 76.6096 13.0609 76.0219C13.1025 75.5153 13.0133 75.0065 12.8018 74.5442C12.5904 74.082 12.2637 73.6818 11.8532 73.3821C11.0282 72.8497 10.074 72.5515 9.0926 72.5194C10.0335 72.4093 10.9002 71.9544 11.5253 71.2427C11.7743 70.9776 11.9682 70.6657 12.0955 70.3251C12.2229 69.9844 12.2813 69.6219 12.2672 69.2585C12.3019 68.7538 12.1981 68.2492 11.967 67.7992C11.7359 67.3492 11.3863 66.9709 10.956 66.705C9.89459 66.1486 8.70157 65.8921 7.50528 65.9631L-0.0517578 65.9976ZM5.29683 67.3434H5.84894C6.52201 67.2951 7.19145 67.4777 7.74683 67.861C7.98563 68.0787 8.17415 68.3458 8.29929 68.6438C8.42443 68.9417 8.48318 69.2634 8.47147 69.5863C8.48301 70.2013 8.30204 70.8046 7.95387 71.3117C7.60205 71.6319 7.17956 71.8644 6.72081 71.9903C6.26207 72.1163 5.78007 72.132 5.31408 72.0363L5.29683 67.3434ZM5.29683 73.5719H6.03873C6.79771 73.5506 7.55027 73.7165 8.22992 74.055C8.56702 74.291 8.83666 74.6109 9.01218 74.9831C9.18769 75.3553 9.26299 75.7669 9.23063 76.1772C9.25857 76.8399 9.04386 77.4902 8.62675 78.006C8.17193 78.3701 7.64191 78.6286 7.07499 78.7629C6.50807 78.8972 5.9184 78.9038 5.34859 78.7824L5.29683 73.5719ZM14.4412 80.1627H26.7084V76.0736H24.9831L24.638 78.3856L24.3447 78.7307H19.9278V73.6581H22.1362L22.4641 73.9687L22.6539 75.487H24.1031V70.311H22.5848L22.395 71.881L22.0672 72.1916H19.9278V67.4296H23.6546L23.9479 67.6539L24.3274 69.5173H26.0528V66.0666H14.4929V67.2743H15.9077L16.2355 67.6022V78.4201L15.9077 78.8169L14.4929 78.9032L14.4412 80.1627ZM28.0197 80.1627H39.6658V75.7113H37.6989L37.3711 78.3856L37.1295 78.7307H33.489V67.6194L33.8686 67.3088H35.2662V66.1011H28.0714V67.3088H29.4517L29.745 67.6194V78.4546L29.331 78.8514H28.1232L28.0197 80.1627ZM48.4823 73.0543V74.2793L50.2077 74.3828L50.5873 74.6761V78.9205C49.8142 78.9846 49.0367 78.8742 48.3121 78.5974C47.5874 78.3207 46.9343 77.8845 46.4009 77.3213C45.8675 76.7581 45.4676 76.0823 45.2305 75.3437C44.9935 74.6051 44.9256 73.8227 45.0316 73.0543C44.9432 71.4799 45.4831 69.9348 46.5327 68.7581C47.0095 68.2845 47.5789 67.9143 48.2053 67.6709C48.8317 67.4274 49.5017 67.3159 50.1732 67.3434C50.6107 67.3533 51.0453 67.417 51.4672 67.5331L51.864 67.861L52.3126 70.4145H54.2623V66.5497C52.6408 66.0499 50.9554 65.7883 49.2588 65.7733C47.3556 65.6906 45.4739 66.2032 43.8757 67.2398C42.9496 67.8917 42.2022 68.7657 41.7017 69.7816C41.2013 70.7975 40.964 71.9228 41.0116 73.0543C40.971 74.1866 41.2056 75.3119 41.6954 76.3336C42.1853 77.3554 42.9156 78.243 43.8239 78.9205C45.3963 79.9606 47.2537 80.4853 49.138 80.4215C50.8634 80.4052 52.5711 80.0718 54.176 79.4381V74.5898L54.5038 74.2965H55.8496V73.0715L48.4823 73.0543ZM56.1774 65.9976V67.2053H57.5404L57.8683 67.5331V78.3511L57.5404 78.7479L56.1774 78.8342V80.0592H63.2859V78.8342L61.8883 78.7479L61.5432 78.3511V74.0205H61.7503C62.8373 74.0205 63.7689 74.1757 64.4591 76.3497C64.8214 77.5057 64.8904 77.799 65.0802 78.3338C65.1863 78.6625 65.3612 78.9648 65.5933 79.2207C65.8253 79.4765 66.1092 79.68 66.426 79.8176C67.2763 80.2004 68.2029 80.3833 69.1348 80.3525C69.9975 80.3525 71.257 80.2317 71.5675 80.2145H76.6228V79.0067L75.2598 78.8514L75.0527 78.6271L76.1225 75.5043H80.6084L81.7299 78.6271L81.5746 78.9032L80.1253 79.0067V80.2145H87.0267V79.0067L85.7499 78.8342L80.8844 65.9458H77.7788L72.9651 78.9032H71.6538C71.025 78.9678 70.3901 78.8728 69.8077 78.6271C69.3527 78.2506 69.0219 77.7455 68.8587 77.1779C68.5308 76.0234 67.9403 74.9605 67.1334 74.0722C66.5367 73.5703 65.8038 73.2579 65.0285 73.175C65.8559 73.0782 66.6578 72.8265 67.3922 72.4331C67.8991 72.1562 68.3182 71.7426 68.6019 71.2393C68.8855 70.7361 69.0223 70.1634 68.9968 69.5863C69.0279 68.9912 68.8802 68.4004 68.5728 67.89C68.2653 67.3796 67.812 66.9729 67.2714 66.7222C66.24 66.2268 65.1017 65.9956 63.9587 66.0493L56.1774 65.9976ZM61.5432 67.4296H62.5267C63.1559 67.4159 63.7687 67.6304 64.252 68.0335C64.535 68.2759 64.7608 68.578 64.9129 68.9181C65.0651 69.2582 65.1399 69.6279 65.132 70.0004C65.1564 70.3653 65.0994 70.7311 64.9652 71.0712C64.8309 71.4114 64.6227 71.7175 64.3556 71.9673C63.5457 72.5141 62.5643 72.7472 61.595 72.6229L61.5432 67.4296ZM78.2101 69.3275L79.9355 74.0032H76.6228L78.2101 69.3275ZM83.8693 65.9976V67.2053L85.3703 67.4469L90.2358 80.1455H93.1172L97.8619 67.4986L99.3629 67.2053V65.9976H94.1869V67.2053H95.5154L95.7569 67.5331L92.5823 76.2634L89.3214 67.6194L89.5629 67.3088H90.8397V66.1011L83.8693 65.9976ZM100.364 80.1627H107.886V78.955H106.316L105.988 78.5409V67.6367L106.316 67.3261L107.886 67.2398V66.0148H100.415V67.2398L101.934 67.3261L102.279 67.6367V78.4546L101.934 78.8687H100.415L100.364 80.1627ZM115.547 69.3275L117.272 74.0032H113.821L115.547 69.3275Z" fill="white"/>
<path d="M26.5534 88.9788H28.0544L26.4153 91.4116L28.1407 93.9651H26.7259L25.0006 91.3253L26.5534 88.9788ZM24.9833 93.9133H23.7756V88.9788H24.9833V93.9133ZM20.5664 93.9133L22.2918 91.3253L20.6527 88.8753H22.171L23.6548 91.308L22.0502 93.8616L20.5664 93.9133ZM32.5403 90.7042L30.2456 93.827H29.0206V88.9788H30.2456V92.0844L32.5403 88.9788H33.7653V93.9133H32.5403V90.7042ZM39.735 93.827H38.5273V90.2556H37.1988V90.7042C37.1475 91.4032 37.0083 92.093 36.7847 92.7573C36.6651 93.1409 36.4226 93.4743 36.0946 93.7063C35.7457 93.8948 35.3519 93.9843 34.9558 93.9651L34.8523 92.7573C35.0065 92.7379 35.151 92.6717 35.2664 92.5675C35.4917 92.3748 35.649 92.1147 35.715 91.8256C35.84 91.3686 35.9209 90.9006 35.9565 90.4281V88.8925H39.7005L39.735 93.827ZM41.5639 93.2232C41.3256 92.9761 41.1388 92.6842 41.0144 92.3643C40.89 92.0444 40.8305 91.7029 40.8393 91.3598C40.8265 91.0162 40.8842 90.6736 41.0088 90.3531C41.1334 90.0327 41.3223 89.7411 41.5639 89.4964C42.1054 89.0208 42.8015 88.7586 43.5222 88.7586C44.2429 88.7586 44.939 89.0208 45.4805 89.4964C45.7268 89.7384 45.9201 90.0291 46.0478 90.3499C46.1755 90.6708 46.235 91.0147 46.2224 91.3598C46.2299 91.7043 46.1681 92.0467 46.0406 92.3668C45.9132 92.6869 45.7227 92.9781 45.4805 93.2232C44.9357 93.692 44.2409 93.9498 43.5222 93.9498C42.8035 93.9498 42.1087 93.692 41.5639 93.2232ZM42.5646 90.3418C42.3227 90.6259 42.1899 90.9867 42.1899 91.3598C42.1899 91.7328 42.3227 92.0937 42.5646 92.3778C42.6913 92.505 42.8418 92.606 43.0076 92.675C43.1735 92.7439 43.3512 92.7794 43.5308 92.7794C43.7104 92.7794 43.8882 92.7439 44.054 92.675C44.2198 92.606 44.3704 92.505 44.497 92.3778C44.7422 92.0953 44.8772 91.7338 44.8772 91.3598C44.8772 90.9858 44.7422 90.6243 44.497 90.3418C44.3715 90.2144 44.2207 90.1148 44.0542 90.0494C43.8878 89.984 43.7095 89.9543 43.5308 89.9623C43.3516 89.9485 43.1715 89.9754 43.0042 90.0412C42.8368 90.1069 42.6866 90.2097 42.5646 90.3418ZM50.9153 90.7387L48.6551 93.827H47.4301V88.9788H48.6551V92.0844L50.9671 88.9788H52.1748V93.9133H50.9671L50.9153 90.7387ZM48.0685 86.4598H49.2245C49.2104 86.6593 49.2587 86.8582 49.3625 87.0292C49.4105 87.099 49.475 87.156 49.5502 87.1951C49.6254 87.2342 49.7091 87.2543 49.7938 87.2535C49.8714 87.2537 49.9476 87.2329 50.0144 87.1935C50.0813 87.154 50.1362 87.0972 50.1734 87.0292C50.2743 86.8563 50.3279 86.6599 50.3287 86.4598H51.5364C51.5485 86.9052 51.3877 87.338 51.0879 87.6675C50.8593 87.8802 50.5801 88.0309 50.2769 88.1051C49.9737 88.1794 49.6565 88.1748 49.3555 88.0918C49.0546 88.0088 48.7799 87.8501 48.5576 87.6309C48.3354 87.4116 48.1729 87.1392 48.0857 86.8394C48.0515 86.686 48.0515 86.5269 48.0857 86.3735L48.0685 86.4598ZM59.0072 88.9788H60.5945L58.6967 91.3253L60.8016 93.9133H59.197L57.2301 91.4633L59.0072 88.9788ZM57.1783 93.9133H55.9533V88.9788H57.1611L57.1783 93.9133ZM61.716 93.3094C61.4722 93.0656 61.2806 92.7746 61.153 92.4542C61.0255 92.1338 60.9646 91.7908 60.9741 91.4461C60.9604 91.1008 61.0194 90.7566 61.1472 90.4356C61.275 90.1146 61.4688 89.824 61.716 89.5827C62.2611 89.1217 62.9518 88.8688 63.6657 88.8688C64.3795 88.8688 65.0702 89.1217 65.6153 89.5827C65.8652 89.8192 66.0621 90.1061 66.1929 90.4243C66.3238 90.7425 66.3857 91.0849 66.3745 91.4288C66.3896 92.1079 66.1352 92.7655 65.6671 93.2577C65.1251 93.7252 64.4332 93.9824 63.7174 93.9824C63.0017 93.9824 62.3097 93.7252 61.7678 93.2577L61.716 93.3094ZM62.7167 90.4281C62.4681 90.7089 62.3308 91.071 62.3308 91.4461C62.3308 91.8211 62.4681 92.1832 62.7167 92.464C62.8434 92.5913 62.9939 92.6923 63.1597 92.7612C63.3255 92.8302 63.5033 92.8656 63.6829 92.8656C63.8625 92.8656 64.0403 92.8302 64.2061 92.7612C64.3719 92.6923 64.5224 92.5913 64.6491 92.464C64.7802 92.3297 64.8829 92.1703 64.9511 91.9954C65.0193 91.8205 65.0516 91.6337 65.0459 91.4461C65.048 91.0686 64.906 90.7046 64.6491 90.4281C64.5236 90.3007 64.3728 90.2011 64.2063 90.1357C64.0399 90.0703 63.8616 90.0406 63.6829 90.0485C63.5037 90.0347 63.3236 90.0617 63.1563 90.1275C62.9889 90.1932 62.8386 90.296 62.7167 90.4281ZM68.7209 93.8788H67.5132V88.9788H68.6519L70.3773 91.032L71.9301 88.9788H72.9653V93.9133H71.7576V90.8767L70.291 92.7228L68.7899 90.8767L68.7209 93.8788ZM79.073 93.8788H77.8653V90.152H75.6741V93.8961H74.4491V88.9788H79.0558L79.073 93.8788ZM84.991 93.8788H83.7832V90.2556H82.4202V90.7042C82.3689 91.4032 82.2298 92.093 82.0061 92.7573C81.8984 93.142 81.6606 93.4774 81.3332 93.7063C80.9844 93.8948 80.5906 93.9843 80.1945 93.9651L80.091 92.7573C80.2509 92.7565 80.4069 92.7085 80.5396 92.6193C80.7474 92.4152 80.8964 92.1589 80.9709 91.8774C81.1112 91.4239 81.1924 90.9542 81.2125 90.4799V88.9271H84.9565L84.991 93.8788ZM90.2878 92.4985L90.6501 93.3957C90.1147 93.8136 89.4482 94.0277 88.7695 93.9996C88.4165 94.0171 88.0635 93.9634 87.7315 93.8419C87.3996 93.7204 87.0954 93.5335 86.8371 93.2922C86.4853 92.9322 86.2444 92.4786 86.1434 91.9855C86.0423 91.4924 86.0853 90.9806 86.2672 90.5112C86.4492 90.0419 86.7623 89.6348 87.1693 89.3386C87.5763 89.0424 88.0599 88.8696 88.5625 88.8408H88.7523C89.0684 88.8213 89.3852 88.8681 89.6822 88.978C89.9793 89.0879 90.2502 89.2586 90.4776 89.4792C90.7102 89.7 90.8922 89.9686 91.0113 90.2664C91.1305 90.5642 91.1838 90.8842 91.1677 91.2045C91.1645 91.4313 91.1356 91.6571 91.0815 91.8774H87.372C87.3881 92.0469 87.4394 92.2111 87.5226 92.3596C87.6058 92.5082 87.719 92.6377 87.8551 92.7401C88.1461 92.9478 88.4987 93.0511 88.8558 93.0334C89.365 93.0482 89.862 92.8764 90.2533 92.5503L90.2878 92.4985ZM88.7005 89.9623C88.3882 89.9379 88.0786 90.0359 87.8372 90.2355C87.5958 90.4351 87.4413 90.7207 87.4065 91.032H89.8392C89.8475 90.8903 89.824 90.7485 89.7702 90.6171C89.7165 90.4857 89.6339 90.3681 89.5286 90.2728C89.4137 90.1479 89.2712 90.0516 89.1124 89.9917C88.9536 89.9318 88.783 89.9099 88.6142 89.9278L88.7005 89.9623ZM95.2051 88.9788H96.8096L94.8427 91.308L96.9822 93.8961H95.2568L93.2899 91.4633L95.2051 88.9788ZM93.4797 93.9306H92.2547V88.9788H93.4797V93.9306ZM101.244 92.2052L101.83 93.1197C101.602 93.4177 101.302 93.6531 100.958 93.8039C100.614 93.9548 100.238 94.0161 99.8635 93.9823C99.5106 93.9988 99.1579 93.9448 98.826 93.8233C98.4942 93.7018 98.19 93.5154 97.9311 93.2749C97.6885 93.0343 97.496 92.7481 97.3646 92.4327C97.2332 92.1173 97.1656 91.7791 97.1656 91.4374C97.1656 91.0958 97.2332 90.7575 97.3646 90.4421C97.496 90.1268 97.6885 89.8405 97.9311 89.5999C98.1767 89.3525 98.4701 89.1576 98.7934 89.0271C99.1167 88.8966 99.4632 88.8332 99.8117 88.8408C100.17 88.8072 100.531 88.8481 100.872 88.9609C101.214 89.0738 101.528 89.2561 101.796 89.4964L101.209 90.4971C100.878 90.1868 100.438 90.0194 99.9843 90.0313C99.8061 90.0274 99.629 90.059 99.4631 90.1241C99.2972 90.1893 99.146 90.2868 99.0181 90.4109C98.8826 90.542 98.7771 90.7009 98.7086 90.8765C98.6401 91.0522 98.6103 91.2406 98.6213 91.4288C98.6111 91.6211 98.6429 91.8132 98.7144 91.992C98.7859 92.1707 98.8954 92.3318 99.0353 92.464C99.3126 92.7065 99.6677 92.8412 100.036 92.8436C100.279 92.8387 100.519 92.7824 100.739 92.6783C100.959 92.5742 101.155 92.4247 101.313 92.2397" fill="#B49A63"/>
<path d="M57.2647 19.5506H63.3379C64.4815 19.5546 65.5984 19.8968 66.5481 20.534C67.4977 21.1713 68.2376 22.0752 68.6747 23.132C69.1118 24.1888 69.2266 25.3513 69.0046 26.4732C68.7825 27.5951 68.2337 28.6262 67.427 29.4369C67.1725 29.6796 66.9016 29.9044 66.6161 30.1098C67.2437 30.5001 67.8229 30.9634 68.3414 31.49C69.7756 32.9395 70.7498 34.7803 71.1417 36.7813C71.5336 38.7824 71.3259 40.8546 70.5445 42.7381C69.7631 44.6215 68.4429 46.2322 66.7495 47.3681C65.0561 48.5041 63.065 49.1146 61.0259 49.1231C60.3478 49.1226 59.6714 49.0532 59.0073 48.9161C58.3418 48.7847 57.6893 48.5941 57.0576 48.3467C55.9106 47.8888 54.8957 47.1524 54.1045 46.2041C53.3134 45.2557 52.7709 44.1252 52.526 42.9147C52.2812 41.7041 52.3417 40.4517 52.7021 39.2704C53.0625 38.0891 53.7115 37.0162 54.5904 36.1485C55.2749 35.4132 56.1028 34.826 57.0231 34.4231V31.1967H54.4178V30.6274C54.4178 30.06 54.6433 29.5158 55.0445 29.1146C55.4457 28.7133 55.9899 28.4879 56.5573 28.4879H57.0749V23.3119H57.6097C58.1788 23.3119 58.7247 23.5367 59.1287 23.9375C59.5327 24.3382 59.7619 24.8823 59.7664 25.4513V28.5397H63.4069C64.2277 28.528 65.0125 28.2005 65.5981 27.6253C65.8877 27.3367 66.1174 26.9939 66.2741 26.6164C66.4309 26.2389 66.5116 25.8342 66.5116 25.4254C66.5116 25.0167 66.4309 24.612 66.2741 24.2345C66.1174 23.857 65.8877 23.5141 65.5981 23.2256C65.3124 22.9346 64.9714 22.7038 64.595 22.5467C64.2187 22.3897 63.8147 22.3096 63.4069 22.3112H55.1598V21.6901C55.1551 21.121 55.3756 20.5732 55.7731 20.166C56.1706 19.7588 56.7129 19.5252 57.2819 19.5161L57.2647 19.5506ZM59.7837 33.8883H59.8872C60.7705 33.8729 61.6487 34.0251 62.4752 34.3369C63.7002 34.7682 64.908 35.4066 64.908 36.7696C64.9255 37.1287 64.8467 37.486 64.6799 37.8045C64.5131 38.123 64.2642 38.3911 63.959 38.5812C63.5089 37.9397 62.9189 37.4087 62.2337 37.0284C61.5201 36.6814 60.7319 36.5154 59.939 36.5453H59.8354V41.9112H59.3006C58.7286 41.9112 58.18 41.6839 57.7756 41.2795C57.3711 40.875 57.1439 40.3265 57.1439 39.7545V37.477C56.933 37.6249 56.7366 37.7925 56.5573 37.9774C56.1024 38.4295 55.7414 38.9672 55.4951 39.5594C55.2487 40.1516 55.1219 40.7867 55.1219 41.4281C55.1219 42.0695 55.2487 42.7045 55.4951 43.2967C55.7414 43.8889 56.1024 44.4266 56.5573 44.8788C57.0437 45.3698 57.633 45.747 58.2826 45.983C58.6739 46.1345 59.0781 46.25 59.4904 46.3281C59.9847 46.4253 60.4877 46.4715 60.9914 46.4661C63.0186 46.4661 64.9627 45.6608 66.3961 44.2274C67.8295 42.794 68.6347 40.8499 68.6347 38.8228C68.6347 36.7957 67.8295 34.8516 66.3961 33.4182C64.9627 31.9848 63.0186 31.1795 60.9914 31.1795H59.7837V33.8883Z" fill="white"/>
<path d="M24.8795 23.1055H33.4028V30.4037C35.0859 30.5984 36.6525 31.3607 37.8443 32.5651C39.0362 33.7695 39.7821 35.3439 39.9591 37.029H40.5802C41.1858 37.0336 41.7651 37.2774 42.1917 37.7072C42.6183 38.1371 42.8577 38.7181 42.8577 39.3238H39.8211C39.4622 40.9732 38.5489 42.45 37.2335 43.508C35.9181 44.5659 34.2799 45.1413 32.5919 45.1382H30.4007L21.7739 52.9885L23.4993 55.197H25.2246C25.5318 55.1923 25.8367 55.2494 26.1214 55.3648C26.4061 55.4802 26.6648 55.6516 26.882 55.8688C27.0992 56.086 27.2706 56.3447 27.386 56.6294C27.5014 56.9141 27.5585 57.219 27.5538 57.5262H22.3778L18.4957 52.747L29.5035 42.7917H32.5919C33.2537 42.8032 33.9112 42.6842 34.527 42.4414C35.1428 42.1986 35.7047 41.8369 36.1806 41.3769C36.7261 40.8206 37.1389 40.1482 37.3883 39.41H23.413C21.3029 39.3827 19.2855 38.5391 17.7841 37.0562C16.2826 35.5734 15.414 33.5666 15.3604 31.457C15.3068 29.3474 16.0725 27.2991 17.4967 25.742C18.9209 24.1848 20.893 23.2399 22.9989 23.1055H24.8795ZM31.7809 47.4329L32.6436 50.0727L36.6982 48.9685L37.1468 47.9678C37.3992 47.4187 37.8565 46.9903 38.4208 46.7742C38.9851 46.5582 39.6116 46.5717 40.1661 46.8118L38.4926 51.0216L31.1943 52.9713L29.9866 49.21L31.7809 47.4329ZM38.389 31.0421L41.5637 28.3505C41.7662 28.5773 41.9216 28.842 42.0209 29.1294C42.1202 29.4167 42.1614 29.7209 42.1421 30.0243C42.1228 30.3277 42.0435 30.6242 41.9086 30.8967C41.7738 31.1692 41.5862 31.4121 41.3566 31.6114L39.9246 32.8364L38.389 31.0421ZM2.60527 34.303C6.1595 30.7488 8.69576 30.9558 10.1278 32.3533C10.8177 33.1175 11.1996 34.1103 11.1996 35.1398C11.1996 36.1692 10.8177 37.1621 10.1278 37.9262C8.69576 39.3238 6.09048 39.5308 2.55351 35.9938L1.67358 35.1484L2.60527 34.303ZM8.47146 34.0269C7.98836 33.5611 6.91865 33.6301 5.17604 35.1484C6.90139 36.6495 7.98836 36.7357 8.47146 36.2699C8.715 35.9467 8.84674 35.5531 8.84674 35.1484C8.84674 34.7438 8.715 34.3501 8.47146 34.0269ZM37.6471 37.0463C37.4682 35.8627 36.8765 34.7805 35.9766 33.9912C35.0767 33.2018 33.9267 32.7561 32.7299 32.7329H24.8795C23.6043 32.7284 22.3825 32.2198 21.4807 31.318C20.579 30.4162 20.0704 29.1945 20.0658 27.9192C20.0721 27.3787 20.1653 26.8427 20.3419 26.3319C19.9183 26.5844 19.5346 26.8984 19.2031 27.2636C18.4194 28.0846 17.894 29.1176 17.692 30.2345C17.4899 31.3514 17.6202 32.5031 18.0667 33.5466C18.5131 34.5901 19.2561 35.4797 20.2034 36.1049C21.1507 36.73 22.2607 37.0634 23.3957 37.0636L37.6471 37.0463ZM15.2176 37.4431C15.5781 37.8445 15.8553 38.3136 16.0331 38.823C16.2108 39.3325 16.2855 39.8722 16.2528 40.4107C16.2038 41.4944 15.7332 42.516 14.9415 43.2576L13.2162 44.7931L11.8186 46.0181C11.4643 46.326 11.2419 46.7585 11.1975 47.2259C11.1462 47.4879 11.1488 47.7577 11.2052 48.0187C11.2616 48.2798 11.3705 48.5266 11.5253 48.7442C11.8463 49.0855 12.2832 49.2947 12.7503 49.3308C12.9921 49.3509 13.2353 49.3198 13.4643 49.2395C13.6932 49.1593 13.9026 49.0316 14.0788 48.8649L20.3074 43.2403C20.757 42.8357 21.3483 42.625 21.9525 42.6541C22.5567 42.6832 23.125 42.9497 23.5338 43.3956L15.7697 50.6248C14.9499 51.3594 13.8749 51.7437 12.7752 51.6954C11.6754 51.647 10.6384 51.1698 9.88625 50.366C9.14314 49.5502 8.75323 48.4733 8.80172 47.3709C8.85022 46.2684 9.33318 45.23 10.1451 44.4826L12.0084 42.7572L13.2334 41.6185C13.5673 41.301 13.7703 40.8702 13.8028 40.4107C13.8426 40.159 13.8261 39.9015 13.7545 39.6569C13.6829 39.4123 13.558 39.1865 13.3887 38.9959L12.25 37.7882L12.6986 37.3569C13.0218 37.0355 13.4591 36.8551 13.9149 36.8551C14.3708 36.8551 14.808 37.0355 15.1313 37.3569L15.2176 37.4431ZM31.0218 25.3657H24.8795C24.2343 25.3657 23.6156 25.622 23.1593 26.0782C22.7031 26.5344 22.4468 27.1532 22.4468 27.7984C22.4468 28.4436 22.7031 29.0624 23.1593 29.5186C23.6156 29.9749 24.2343 30.2312 24.8795 30.2312H31.0045L31.0218 25.3657Z" fill="white"/>
<path d="M99.2251 23.1061H90.7019V30.4044C89.0187 30.599 87.4522 31.3614 86.2603 32.5657C85.0685 33.7701 84.3226 35.3446 84.1456 37.0297H83.5245C82.9159 37.0297 82.3322 37.2715 81.9018 37.7018C81.4715 38.1321 81.2297 38.7158 81.2297 39.3244H84.2836C84.6596 40.978 85.587 42.4545 86.9133 43.5112C88.2396 44.5679 89.886 45.1419 91.5818 45.1388H93.7558L102.383 52.9719L100.657 55.1804H98.9318C98.6197 55.1684 98.3084 55.2208 98.0173 55.3342C97.7263 55.4477 97.4617 55.6198 97.24 55.8399C97.0183 56.06 96.8442 56.3233 96.7286 56.6135C96.613 56.9037 96.5584 57.2146 96.5681 57.5269H101.744L105.661 52.7476L94.722 42.7924H91.5818C90.9104 42.8065 90.2429 42.6872 89.618 42.4414C88.9931 42.1956 88.4232 41.8281 87.9413 41.3603C87.3959 40.804 86.983 40.1316 86.7336 39.3934H100.726C102.835 39.3624 104.85 38.5161 106.349 37.0318C107.848 35.5475 108.714 33.5406 108.765 31.432C108.816 29.3233 108.049 27.2767 106.624 25.7212C105.2 24.1658 103.228 23.2224 101.123 23.0889H99.2251V23.1061ZM92.2375 47.4336L91.392 50.0733L87.3375 48.9691L86.8889 47.9684C86.6368 47.4362 86.1912 47.0203 85.6429 46.8055C85.0946 46.5907 84.485 46.5932 83.9385 46.8124L85.6811 51.0223L92.9794 52.9719L94.1871 49.2107L92.2375 47.4336ZM85.6811 31.0427L82.5755 28.3512C82.3698 28.5758 82.2112 28.8393 82.1092 29.1263C82.0071 29.4132 81.9637 29.7177 81.9814 30.0217C81.9991 30.3258 82.0776 30.6232 82.2122 30.8963C82.3469 31.1695 82.5349 31.4129 82.7653 31.6121L84.1973 32.8371L85.6811 31.0427ZM121.551 34.3036C117.997 30.7494 115.461 30.9565 114.029 32.354C113.339 33.1181 112.957 34.111 112.957 35.1404C112.957 36.1699 113.339 37.1628 114.029 37.9269C115.426 39.3244 117.997 39.5315 121.551 35.9945L122.397 35.1491L121.551 34.3036ZM115.702 34.0276C116.168 33.5617 117.238 33.6308 118.98 35.1491C117.255 36.6501 116.168 36.7364 115.702 36.2705C115.45 35.951 115.313 35.556 115.313 35.1491C115.313 34.7422 115.45 34.3471 115.702 34.0276ZM86.5093 37.047C86.7107 35.8548 87.323 34.7707 88.2401 33.9828C89.1572 33.1949 90.3212 32.753 91.5301 32.7336H99.2251C99.8655 32.7391 100.501 32.6169 101.093 32.3739C101.686 32.131 102.224 31.7723 102.676 31.3188C103.135 30.8699 103.498 30.3327 103.744 29.7397C103.99 29.1467 104.114 28.5101 104.108 27.8681C104.106 27.3257 104.006 26.7881 103.815 26.2808C104.244 26.533 104.633 26.8469 104.971 27.2125C105.732 28.0362 106.237 29.063 106.427 30.1685C106.616 31.2739 106.48 32.4105 106.037 33.4405C105.593 34.4705 104.86 35.3496 103.927 35.9714C102.993 36.5931 101.899 36.9308 100.778 36.9434L86.5093 37.047ZM108.939 37.4438C108.578 37.8452 108.301 38.3142 108.123 38.8237C107.946 39.3331 107.871 39.8728 107.904 40.4114C107.953 41.495 108.423 42.5166 109.215 43.2582L110.94 44.7938L112.338 46.0188C112.511 46.1707 112.653 46.3558 112.753 46.5632C112.854 46.7707 112.912 46.9962 112.924 47.2265C112.975 47.492 112.967 47.7653 112.902 48.0275C112.836 48.2896 112.714 48.5344 112.545 48.7448C112.392 48.9279 112.202 49.0772 111.989 49.1834C111.775 49.2896 111.542 49.3502 111.303 49.3616C111.065 49.3729 110.827 49.3347 110.604 49.2494C110.381 49.164 110.178 49.0333 110.009 48.8656L103.815 43.241C103.365 42.8364 102.774 42.6257 102.169 42.6548C101.565 42.6838 100.997 42.9503 100.588 43.3962L108.508 50.5737C108.908 50.968 109.384 51.277 109.907 51.4822C110.43 51.6874 110.989 51.7844 111.551 51.7674C112.113 51.7504 112.665 51.6197 113.175 51.3833C113.685 51.1469 114.141 50.8096 114.517 50.3918C114.893 49.9741 115.18 49.4845 115.361 48.9526C115.542 48.4208 115.614 47.8577 115.572 47.2974C115.529 46.7371 115.374 46.1912 115.114 45.6927C114.855 45.1942 114.497 44.7534 114.063 44.3969L112.217 42.6716L111.009 41.5501C110.672 41.2284 110.468 40.7907 110.44 40.3251C110.384 40.0973 110.375 39.8605 110.413 39.6291C110.452 39.3977 110.537 39.1766 110.664 38.9793L111.889 37.7716L111.423 37.3403C111.263 37.1808 111.072 37.0568 110.861 36.9766C110.649 36.8963 110.424 36.8615 110.198 36.8744C109.969 36.8776 109.742 36.9266 109.532 37.0184C109.322 37.1102 109.132 37.2431 108.973 37.4093L108.939 37.4438ZM93.1347 25.3663H99.2942C99.6225 25.3638 99.9479 25.4277 100.251 25.5543C100.554 25.6809 100.828 25.8675 101.057 26.1028C101.286 26.3382 101.465 26.6175 101.583 26.9238C101.701 27.2301 101.756 27.5572 101.744 27.8853C101.734 28.5358 101.467 29.1559 101.002 29.6107C100.78 29.8434 100.512 30.0278 100.215 30.1525C99.9181 30.2771 99.5988 30.3394 99.2769 30.3353H93.1174L93.1347 25.3663Z" fill="white"/>
<path d="M89.8738 57.6121H71.9301C71.9186 57.3124 71.9669 57.0134 72.072 56.7326C72.1772 56.4517 72.3372 56.1946 72.5428 55.9762C72.7483 55.7578 72.9953 55.5825 73.2693 55.4605C73.5432 55.3385 73.8387 55.2723 74.1386 55.2656H92.1512C92.1512 55.8696 91.9113 56.4489 91.4842 56.876C91.0571 57.3031 90.4778 57.5431 89.8738 57.5431" fill="#B49A63"/>
<path d="M52.6406 12.4251H72.7064V13.6501C72.6389 14.1536 72.7307 14.6656 72.969 15.1143C73.2072 15.563 73.58 15.9258 74.0349 16.1519C75.424 16.6381 76.8972 16.8377 78.3655 16.7385H79.5905V50.0723L62.061 58.1469L44.6177 50.0723V16.704H45.8427C47.311 16.8032 48.7842 16.6036 50.1733 16.1174C50.6265 15.8893 50.9978 15.5261 51.2358 15.078C51.4737 14.6298 51.5667 14.1189 51.5018 13.6156V12.3906L52.6406 12.4251ZM70.4462 14.7889H53.7275C53.6319 15.5389 53.3432 16.2513 52.8895 16.8562C52.4358 17.4611 51.8328 17.9378 51.1395 18.2396C49.8192 18.7734 48.4054 19.0374 46.9814 19.016V48.5885L62.0782 55.4899L77.1923 48.5885V19.0332C75.7671 19.0492 74.3533 18.7794 73.0342 18.2396C72.3409 17.9378 71.7379 17.4611 71.2842 16.8562C70.8305 16.2513 70.5417 15.5389 70.4462 14.7889Z" fill="#B49A63"/>
<path d="M34.2654 57.6121H52.1918C52.2033 57.3124 52.1551 57.0134 52.0499 56.7326C51.9447 56.4517 51.7847 56.1946 51.5791 55.9762C51.3736 55.7578 51.1266 55.5825 50.8527 55.4605C50.5787 55.3385 50.2832 55.2723 49.9834 55.2656H31.9707C31.9753 55.8712 32.219 56.4505 32.6489 56.8771C33.0787 57.3037 33.6598 57.5431 34.2654 57.5431" fill="#B49A63"/>
<path d="M62.0611 10.5788H53.4343L50.76 3.07356L58.4206 4.64363L62.0611 0.105957L65.8223 4.64363L73.4829 3.07356L70.8086 10.5788H62.0611ZM55.2804 8.2151H68.9625L69.6353 6.28271L64.7698 7.30067L62.0611 4.07426L59.4385 7.30067L54.573 6.28271L55.2804 8.2151Z" fill="#B49A63"/>
</svg>
