<svg width="113" height="118" viewBox="0 0 113 118" fill="none" xmlns="http://www.w3.org/2000/svg">
<g opacity="0.7" clip-path="url(#clip0_218_254)">
<path d="M3.68244 61.4696H7.28031L10.1555 79.4129H6.80367L6.45772 76.6607H3.69012L3.35186 79.4129H0L2.88291 61.4696H6.33471V64.6831H5.23536L5.08161 65.8594L4.93554 64.6831H3.68244V61.4696ZM4.05914 73.6317H6.06564L5.08161 65.8132L4.05914 73.6317ZM5.23536 64.6831H4.93554L4.52809 61.5081H5.62744L5.23536 64.6831ZM11.9545 79.4513V61.5004H15.2833V68.7653H17.9894V61.5004H21.3028V79.4129H17.9894V71.9865H15.2833V79.4129L11.9545 79.4513ZM27.0378 64.6831V79.4052H23.686V61.5081H31.589V64.6831H27.0378ZM39.3383 79.4052V64.7984H36.6475V74.7925C36.6489 75.4837 36.5689 76.1727 36.4092 76.8452C36.2757 77.4104 36.0125 77.9368 35.6404 78.3827C35.2711 78.822 34.7944 79.1584 34.2566 79.3591C33.5853 79.5945 32.8768 79.7065 32.1656 79.6896V76.43C32.3459 76.4373 32.5247 76.3944 32.6821 76.3062C32.8395 76.218 32.9694 76.0879 33.0574 75.9303C33.15 75.7687 33.2125 75.5915 33.2419 75.4076C33.2814 75.1971 33.3019 74.9836 33.3034 74.7695V61.4696H42.6901V79.4129L39.3383 79.4052ZM54.9521 79.4052V61.5004H50.9852L48.3329 71.1101L48.4329 61.5004H45.081V79.4129H48.7788L51.7232 69.2958L51.6079 79.4283L54.9521 79.4052ZM63.5086 79.4052L63.5854 69.2958L60.6026 79.4283H56.974V61.5004H60.3105L60.2028 71.1101L62.8628 61.5004H66.8835V79.4129L63.5086 79.4052ZM65.9763 57.1722C65.9745 57.6147 65.9098 58.0548 65.7841 58.4791C65.6753 58.8805 65.4753 59.2515 65.1999 59.5631C64.9064 59.8969 64.5411 60.1598 64.1313 60.3319C63.6068 60.5335 63.0478 60.6302 62.4861 60.6163C61.9144 60.6295 61.3455 60.5329 60.8102 60.3319C60.4004 60.1598 60.035 59.8969 59.7416 59.5631C59.4647 59.2524 59.2646 58.8812 59.1573 58.4791C59.0476 58.052 58.9908 57.6131 58.9882 57.1722H60.8025C60.7849 57.3916 60.8165 57.6122 60.8947 57.818C60.9254 57.9991 60.9935 58.172 61.0946 58.3254C61.226 58.4776 61.396 58.5918 61.5866 58.6559C61.8787 58.7405 62.1821 58.7794 62.4861 58.7712C62.7753 58.7867 63.0648 58.7476 63.3394 58.6559C63.5273 58.5984 63.6951 58.4892 63.8238 58.3407C63.941 58.1921 64.0225 58.0185 64.0621 57.8333C64.0837 57.6113 64.1171 57.3907 64.162 57.1722H65.9763ZM77.5695 73.5702V74.8925C77.5709 75.524 77.4987 76.1535 77.3542 76.7683C77.2191 77.3329 76.9561 77.859 76.5854 78.3058C76.2213 78.7425 75.7535 79.0809 75.2247 79.2899C73.8275 79.7872 72.3014 79.7872 70.9042 79.2899C70.3555 79.0754 69.8747 78.7168 69.5127 78.252C69.1655 77.7975 68.9215 77.2729 68.7977 76.7145C68.6528 76.0737 68.5806 75.4187 68.5825 74.7618V66.1438C68.5806 65.4945 68.6528 64.8471 68.7977 64.2142C68.9262 63.6574 69.1698 63.1337 69.5127 62.6766C69.8722 62.2084 70.3461 61.8404 70.8888 61.608C72.2992 61.126 73.8297 61.126 75.2401 61.608C75.7768 61.8289 76.2499 62.1803 76.6162 62.6305C76.9818 63.0807 77.2442 63.6055 77.385 64.1681C77.5265 64.7884 77.5962 65.423 77.5925 66.0592V67.3431H74.1561V66.0592C74.1715 65.8751 74.1715 65.6899 74.1561 65.5057C74.132 65.3295 74.0801 65.1583 74.0024 64.9983C73.9241 64.8456 73.8075 64.7158 73.6641 64.6216C73.4832 64.5136 73.275 64.4602 73.0644 64.4679C72.8715 64.4548 72.679 64.4998 72.5119 64.5971C72.3447 64.6944 72.2105 64.8395 72.1265 65.0137C72.0419 65.1763 71.9897 65.3539 71.9728 65.5365C71.9574 65.7386 71.9574 65.9417 71.9728 66.1438V74.7464C71.9574 74.9409 71.9574 75.1362 71.9728 75.3307C71.9878 75.5191 72.0346 75.7037 72.1112 75.8765C72.1925 76.0381 72.3143 76.1759 72.4648 76.2763C72.6475 76.3798 72.8545 76.4329 73.0644 76.43C73.2665 76.4356 73.4661 76.3851 73.641 76.284C73.7819 76.1933 73.8981 76.0692 73.9793 75.9226C74.0685 75.7718 74.126 75.6044 74.1484 75.4306C74.1638 75.2413 74.1638 75.051 74.1484 74.8617V73.5548L77.5695 73.5702ZM79.6375 79.4513V61.5004H82.9663V68.7653H83.7351L86.0414 61.5004H89.5701L86.8332 70.2106L89.7546 79.3898H86.2336L83.8811 71.9634H82.974V79.3898L79.6375 79.4513ZM100.925 79.4513V61.5004H96.8657L94.1981 71.1101L94.3057 61.5004H90.9692V79.4129H94.644L97.673 69.2958L97.573 79.4283L100.925 79.4513ZM109.481 79.4513L109.566 69.2958L106.568 79.4283H102.855V61.5004H106.191L106.091 71.1101L108.766 61.5004H112.749V79.4129L109.481 79.4513ZM111.834 57.2183C111.856 57.6428 111.812 58.0682 111.703 58.4791C111.594 58.8788 111.397 59.249 111.127 59.5631C110.83 59.8972 110.462 60.1601 110.05 60.3319C109.528 60.5335 108.972 60.6301 108.413 60.6163C107.844 60.6302 107.277 60.5336 106.745 60.3319C106.329 60.162 105.958 59.899 105.661 59.5631C105.386 59.252 105.188 58.8807 105.084 58.4791C104.969 58.0532 104.915 57.6133 104.923 57.1722H106.737C106.722 57.3904 106.748 57.6094 106.814 57.818C106.846 58.0011 106.92 58.1746 107.029 58.3254C107.153 58.4789 107.318 58.5937 107.506 58.6559C107.8 58.7401 108.106 58.7789 108.413 58.7712C108.699 58.7876 108.987 58.7485 109.258 58.6559C109.449 58.6045 109.618 58.4942 109.743 58.3407C109.863 58.1939 109.945 58.0196 109.981 57.8333C110.03 57.6156 110.063 57.3947 110.081 57.1722L111.834 57.2183ZM19.7345 101.115V83.1953H23.0633V90.4525H23.832L26.1384 83.1953H29.6671L26.9072 91.9362L29.8362 101.115H26.3075L24.0012 93.6814H23.0633V101.115H19.7345ZM36.832 94.6116C36.8267 94.4384 36.8062 94.266 36.7705 94.0965C36.7302 93.9417 36.6568 93.7974 36.5553 93.6737C36.4551 93.5473 36.3259 93.4471 36.1786 93.3815C36.0074 93.3039 35.8206 93.2671 35.6328 93.2739H34.4488V97.8866H35.6251C35.7914 97.9066 35.9601 97.8901 36.1194 97.8384C36.2787 97.7866 36.4248 97.7007 36.5476 97.5867C36.7634 97.2949 36.8621 96.9329 36.8244 96.572L36.832 94.6116ZM36.686 87.6388C36.6927 87.2896 36.5935 86.9465 36.4015 86.6547C36.288 86.5283 36.1454 86.4313 35.986 86.3724C35.8266 86.3135 35.6552 86.2943 35.4867 86.3165H34.4335V90.2372H35.2714C35.4808 90.2683 35.6945 90.2534 35.8976 90.1936C36.1007 90.1339 36.2884 90.0307 36.4477 89.8913C36.6758 89.5438 36.7789 89.1289 36.7398 88.7151L36.686 87.6388ZM40.2147 96.5181C40.239 97.2206 40.1586 97.9227 39.9763 98.6015C39.7954 99.1478 39.4871 99.6432 39.0769 100.047C38.6829 100.433 38.1996 100.715 37.67 100.869C37.0264 101.045 36.3614 101.131 35.6943 101.123H31.0816V83.1953H35.5866C36.2754 83.1858 36.9611 83.2897 37.6162 83.5028C38.1305 83.6785 38.6002 83.9645 38.9923 84.3407C39.3494 84.7086 39.613 85.1568 39.7611 85.6476C39.9339 86.1946 40.0195 86.7654 40.0148 87.339V88.2845C40.0452 89.0408 39.9169 89.795 39.6381 90.4986C39.5273 90.7463 39.3652 90.9676 39.1624 91.1479C38.9596 91.3281 38.7208 91.4632 38.4618 91.5442C38.9709 91.7167 39.3928 92.0807 39.6381 92.5589C39.9542 93.171 40.1077 93.854 40.084 94.5424L40.2147 96.5181ZM44.8965 83.1722H48.4329L51.3235 101.115H48.0331L47.6641 98.3632H44.9349L44.589 101.115H41.2448L44.12 83.1722H47.5642V86.3395H46.4571L46.3034 87.5158L46.165 86.3395H44.9196L44.8965 83.1722ZM45.2886 95.3265H47.2643L46.2726 87.5158L45.2886 95.3265ZM46.4648 86.3395H46.1727L45.7729 83.1722H46.8953L46.4648 86.3395ZM61.8403 90.7062C61.8546 91.4525 61.7428 92.1958 61.5098 92.9049C61.3278 93.4454 61.0132 93.9318 60.5949 94.3194C60.1889 94.6939 59.6941 94.9585 59.1573 95.0882C58.539 95.2427 57.9034 95.3176 57.2661 95.3112H56.3128V101.192H53.0455V83.1953H57.343C57.9709 83.1935 58.5963 83.2736 59.2034 83.4336C59.7443 83.5636 60.2439 83.8275 60.6563 84.2009C61.0687 84.5743 61.3807 85.0454 61.5636 85.5708C61.7996 86.2526 61.9115 86.9713 61.8941 87.6926L61.8403 90.7062ZM58.4885 87.6926C58.5092 87.3631 58.414 87.0368 58.2194 86.7701C58.0956 86.6544 57.9487 86.5665 57.7883 86.5122C57.6279 86.4578 57.4577 86.4383 57.2892 86.4549H56.3128V92.0977H57.22C57.3984 92.124 57.5806 92.1077 57.7516 92.0503C57.9226 91.9928 58.0776 91.8958 58.204 91.7671C58.4194 91.4632 58.5202 91.0928 58.4885 90.7216V87.6926ZM68.8669 86.4318V101.115H65.5535V86.4318H62.7552V83.1953H71.7114V86.4318H68.8669ZM75.5783 83.1722H79.1839L82.0668 101.115H78.7765L78.4074 98.3632H75.6245L75.2401 101.115H71.9343L74.8173 83.1722H78.2691V86.3395H77.0928L76.9468 87.5158L76.8007 86.3395H75.6168L75.5783 83.1722ZM75.9781 95.3265H77.9539L76.9698 87.5158L75.9781 95.3265ZM77.1543 86.3395H76.8776L76.4317 83.1722H77.6079L77.1543 86.3395ZM89.8391 101.115V86.4549H87.11V96.5181C87.1246 97.2066 87.0497 97.894 86.887 98.5631C86.7444 99.1087 86.4817 99.6156 86.1183 100.047C85.7461 100.48 85.2737 100.815 84.7422 101.023C84.0656 101.259 83.352 101.371 82.6357 101.354V98.1172C82.8293 98.132 83.0227 98.0863 83.1892 97.9865C83.3358 97.9013 83.4577 97.7794 83.5429 97.6329C83.6291 97.4663 83.6888 97.2874 83.7197 97.1024C83.7428 96.8878 83.7428 96.6713 83.7197 96.4566V83.1722H93.0987V101.115H89.8391ZM56.1206 2.87355V3.05806C55.8054 4.30347 55.1904 6.58674 54.6369 8.43949C54.1815 10.0025 53.4356 11.4656 52.4382 12.7523V16.9114H52.984C52.984 16.9114 51.8078 18.4489 50.3164 20.3248C49.2401 21.6394 47.8409 23.3999 47.1183 24.3531L47.0337 24.4531L46.9184 24.5992H65.6458L65.5843 24.5069L64.0467 22.5927C63.4624 21.8239 62.8013 21.0167 62.2862 20.3248C60.7948 18.4643 59.6186 16.9114 59.6186 16.9114H60.1567V12.7677C59.1598 11.4796 58.4116 10.017 57.9503 8.45486C57.4045 6.63286 56.7741 4.30347 56.4743 3.07343V2.81205L56.1206 2.87355ZM56.4358 2.87355V1.28987H56.2821L56.4358 1.59738V0.636412C56.4763 0.611286 56.5095 0.57615 56.5324 0.534401C56.5553 0.492652 56.5671 0.445703 56.5665 0.398092C56.5665 0.320613 56.5357 0.246307 56.481 0.191521C56.4262 0.136735 56.3519 0.105957 56.2744 0.105957C56.1969 0.105957 56.1226 0.136735 56.0678 0.191521C56.013 0.246307 55.9823 0.320613 55.9823 0.398092C55.9832 0.446287 55.9964 0.493442 56.0206 0.535129C56.0449 0.576817 56.0793 0.611668 56.1206 0.636412V1.54357L56.2744 1.28987H56.1206V2.87355H56.4358ZM44.9811 45.7405V47.0628H47.0875V53.5051H50.8468V47.0628H52.4766V53.5051H55.4441V47.0628H57.0739V53.5051H60.0414V47.0628H61.6866V53.5051H65.4305V47.0628H67.3371V45.7405H44.9811ZM46.6263 23.7458V30.2573H45.304V43.488H44.9811V44.2568H67.314V43.488H67.1987V30.2573H65.9072V23.7458H65.838V23.938H65.9148V23.4844C65.9358 23.4714 65.9532 23.4534 65.9653 23.4318C65.9774 23.4103 65.9838 23.3861 65.984 23.3614C65.984 23.3247 65.9694 23.2895 65.9435 23.2636C65.9175 23.2376 65.8823 23.223 65.8456 23.223C65.8268 23.222 65.808 23.2248 65.7903 23.2313C65.7726 23.2378 65.7565 23.2478 65.7428 23.2608C65.7291 23.2737 65.7182 23.2893 65.7108 23.3066C65.7034 23.3239 65.6995 23.3426 65.6996 23.3614C65.7001 23.3852 65.7059 23.4085 65.7166 23.4298C65.7272 23.4511 65.7424 23.4697 65.7611 23.4844V23.938H65.8456V23.7843H65.7611V25.0297H46.78V23.7458H46.6263ZM61.8019 26.3827H63.0396V29.1811H61.8019V26.3827ZM60.0491 26.3827H61.2868V29.1811H60.0491V26.3827ZM58.2886 26.3827H59.534V29.1811H58.2886V26.3827ZM56.5204 26.3827H57.7658V29.1811H56.5204V26.3827ZM54.7599 26.3827H56.0053V29.1811H54.7599V26.3827ZM52.9994 26.3827H54.2448V29.1811H52.9994V26.3827ZM51.2466 26.3827H52.4228V29.1811H51.2466V26.3827ZM49.4784 26.3827H50.7392V29.1811H49.4784V26.3827ZM62.6245 42.9806H49.8935V30.8109H62.6245V42.9806ZM46.7185 23.938V23.4844C46.7406 23.4727 46.7589 23.4549 46.7711 23.4331C46.7834 23.4113 46.7891 23.3864 46.7877 23.3614C46.7877 23.3247 46.7731 23.2895 46.7472 23.2636C46.7212 23.2376 46.686 23.223 46.6493 23.223C46.6305 23.2209 46.6115 23.2227 46.5934 23.2282C46.5753 23.2337 46.5586 23.2429 46.5441 23.2551C46.5297 23.2674 46.518 23.2824 46.5096 23.2994C46.5013 23.3164 46.4965 23.3349 46.4956 23.3537C46.4976 23.378 46.5048 23.4016 46.5167 23.4228C46.5287 23.444 46.545 23.4624 46.5647 23.4767V23.938H46.7185ZM67.0603 28.7813H67.1295V28.3354C67.1516 28.3237 67.1699 28.3058 67.1821 28.284C67.1944 28.2622 67.2001 28.2374 67.1987 28.2124C67.1987 28.1757 67.1841 28.1405 67.1582 28.1146C67.1322 28.0886 67.097 28.074 67.0603 28.074C67.0411 28.073 67.0219 28.0757 67.0038 28.0821C66.9857 28.0885 66.969 28.0985 66.9547 28.1113C66.9404 28.1242 66.9288 28.1397 66.9206 28.1571C66.9123 28.1744 66.9075 28.1932 66.9066 28.2124C66.9086 28.2407 66.9193 28.2676 66.9372 28.2896C66.955 28.3116 66.9792 28.3276 67.0065 28.3354V28.789H67.0834V28.6352H67.0065V43.488H67.1602V28.6275H67.0911L67.0603 28.7813ZM45.2501 28.6275V43.488H45.4116V28.3354C45.4331 28.323 45.4509 28.305 45.463 28.2834C45.4752 28.2617 45.4813 28.2372 45.4808 28.2124C45.4819 28.1929 45.4789 28.1734 45.4719 28.1552C45.465 28.137 45.4543 28.1204 45.4405 28.1066C45.4267 28.0928 45.4101 28.0821 45.3919 28.0752C45.3737 28.0682 45.3542 28.0652 45.3347 28.0663C45.3149 28.0653 45.2951 28.0683 45.2764 28.0752C45.2578 28.082 45.2408 28.0926 45.2264 28.1063C45.212 28.12 45.2006 28.1364 45.1928 28.1547C45.1849 28.1729 45.1809 28.1926 45.181 28.2124C45.1804 28.2372 45.1865 28.2617 45.1987 28.2834C45.2109 28.305 45.2286 28.323 45.2501 28.3354V28.6352V28.6275ZM56.2052 32.556C55.3523 32.5907 54.5285 32.8754 53.8363 33.3748C53.144 33.8742 52.614 34.5662 52.312 35.3646C52.0101 36.163 51.9497 37.0325 52.1383 37.865C52.3269 38.6975 52.7561 39.4561 53.3726 40.0465C53.9891 40.6368 54.7657 41.0328 55.6055 41.1851C56.4454 41.3374 57.3115 41.2393 58.0961 40.9031C58.8806 40.5669 59.549 40.0073 60.0179 39.2941C60.4868 38.5808 60.7356 37.7454 60.7333 36.8919C60.7071 35.7261 60.2229 34.6176 59.3855 33.8062C58.5482 32.9947 57.425 32.5456 56.259 32.556H56.2052ZM57.6582 37.0072C57.6502 37.2872 57.5609 37.5589 57.4013 37.7891C57.2418 38.0193 57.0187 38.1982 56.7593 38.304C56.4999 38.4098 56.2154 38.438 55.9403 38.385C55.6652 38.3321 55.4114 38.2003 55.2099 38.0058C55.0083 37.8113 54.8676 37.5624 54.8049 37.2893C54.7421 37.0163 54.7601 36.7309 54.8566 36.4679C54.9531 36.205 55.124 35.9757 55.3484 35.808C55.5728 35.6403 55.8411 35.5415 56.1206 35.5235V32.7328H56.259V35.5158C56.6094 35.5198 56.946 35.6531 57.2042 35.89C57.4625 36.1269 57.6241 36.4508 57.6582 36.7996H59.6416V37.0072H57.6582ZM56.4435 36.8073H57.6197C57.5896 36.4897 57.4437 36.1943 57.2097 35.9774C56.9758 35.7605 56.6702 35.6372 56.3513 35.6311V36.8073H56.4435ZM56.2821 37.061C56.2609 37.0631 56.2394 37.061 56.219 37.0548C56.1986 37.0486 56.1797 37.0384 56.1632 37.0248C56.1468 37.0113 56.1332 36.9946 56.1232 36.9757C56.1133 36.9568 56.1072 36.9362 56.1053 36.9149C56.1037 36.881 56.1134 36.8476 56.1329 36.8197C56.1524 36.7919 56.1805 36.7713 56.2129 36.7612V35.5773C55.8709 35.5812 55.5438 35.7183 55.3013 35.9595C55.0587 36.2006 54.9196 36.5268 54.9137 36.8688C54.9014 37.2277 55.0322 37.5767 55.2773 37.8391C55.5224 38.1015 55.8617 38.2558 56.2206 38.268C56.5794 38.2802 56.9284 38.1494 57.1908 37.9043C57.4532 37.6592 57.6075 37.3199 57.6197 36.9611H56.4281C56.3942 36.9978 56.3474 37.0198 56.2975 37.0226L56.2821 37.061ZM50.3856 42.4886H62.071V31.3106H50.424L50.3856 42.4886ZM56.2667 42.1426C55.2404 42.0974 54.25 41.7518 53.4185 41.1485C52.587 40.5453 51.9511 39.7111 51.5896 38.7495C51.2281 37.788 51.1571 36.7414 51.3853 35.7398C51.6135 34.7382 52.131 33.8257 52.8733 33.1157C53.6157 32.4056 54.5503 31.9293 55.5611 31.7459C56.5718 31.5624 57.6142 31.6799 58.5587 32.0838C59.5033 32.4877 60.3083 33.1602 60.874 34.0177C61.4396 34.8752 61.7409 35.88 61.7404 36.9073C61.7021 38.3251 61.1056 39.6706 60.0806 40.651C59.0555 41.6314 57.6849 42.1675 56.2667 42.1426Z" fill="white"/>
</g>
<defs>
<clipPath id="clip0_218_254">
<rect width="112.741" height="117" fill="white" transform="translate(0 0.105957)"/>
</clipPath>
</defs>
</svg>
