<svg width="179" height="53" viewBox="0 0 179 53" fill="none" xmlns="http://www.w3.org/2000/svg">
<g clip-path="url(#clip0_218_258)">
<path d="M172.321 12.2983V30.9862H167.972L159.724 21.0193V30.9862H154.556V12.2983H158.893L167.153 22.2537V12.2983H172.321Z" fill="#F4DCCF"/>
<path d="M146.078 27.3419H138.199L136.665 30.9872H131.393L139.583 12.334H144.786L153.057 31.0103H147.555L146.078 27.3419ZM144.555 23.4544L142.087 17.4789L139.687 23.4544H144.555Z" fill="#F4DCCF"/>
<path d="M124.979 30.9862L124.933 21.077L120.134 29.1289H117.781L113.005 21.3423V30.9862H108.125V12.2983H112.463L119.038 23.0842L125.44 12.2983H129.789L129.835 30.9862H124.979Z" fill="#F4DCCF"/>
<path d="M99.646 27.3419H91.7671L90.2328 30.9872H84.9033L93.1975 12.334H98.3886L106.671 31.0103H101.18L99.646 27.3419ZM98.1232 23.4544L95.7469 17.4789L93.3475 23.4544H98.1232Z" fill="#F4DCCF"/>
<path d="M84.0154 26.7997V30.9872H67.2886V27.6649L76.7133 16.4868H67.5308V12.2993H83.6231V15.6101L74.21 26.7997H84.0154Z" fill="#F4DCCF"/>
<path d="M56.641 26.0847H53.7686V31.045H48.4507V12.3341H56.9871C58.4941 12.3012 59.9912 12.5841 61.3822 13.1647C62.5789 13.6634 63.5942 14.5167 64.2913 15.6097C64.9884 16.7028 65.3339 17.9832 65.2813 19.2786C65.3078 20.5212 64.9797 21.7457 64.3354 22.8085C63.6824 23.8449 62.7399 24.6671 61.6245 25.1734L65.662 30.9412H59.9864L56.641 26.0847ZM59.9864 19.2209C60.0078 18.842 59.9443 18.4631 59.8006 18.1119C59.6569 17.7607 59.4367 17.4459 59.1558 17.1907C58.4503 16.6619 57.5784 16.404 56.6987 16.4639H53.7686V21.9434H56.6987C57.5743 21.998 58.4419 21.7495 59.1558 21.2397C59.4357 20.9862 59.6556 20.6734 59.7993 20.3242C59.9429 19.9749 60.0069 19.598 59.9864 19.2209Z" fill="#F4DCCF"/>
<path d="M36.3955 31.3562C35.2213 31.4324 34.0437 31.2748 32.9308 30.8927C31.818 30.5105 30.792 29.9113 29.9124 29.1298C29.1138 28.2701 28.4977 27.2576 28.1011 26.1533C27.7046 25.0489 27.5359 23.8757 27.6053 22.7044V12.3223H32.9002V22.5198C32.9002 25.5114 34.0807 27.0034 36.4416 26.9957C38.8064 26.9957 39.9716 25.473 39.9716 22.5198V12.3338H45.1626V22.7159C45.2411 23.8898 45.0767 25.0673 44.6797 26.1748C44.2828 27.2823 43.6618 28.2961 42.8555 29.1529C41.9887 29.9514 40.97 30.5672 39.8602 30.9635C38.7503 31.3599 37.572 31.5288 36.3955 31.46" fill="#F4DCCF"/>
<path d="M24.3073 12.2993V30.9872H19.9583L11.6988 21.0203V30.9872H6.53076V12.2993H10.8797L19.1278 22.2546V12.2993H24.3073Z" fill="#F4DCCF"/>
<path fill-rule="evenodd" clip-rule="evenodd" d="M173.198 52.0164H5.60733L0.000976562 37.1123H178.805L173.198 52.0164ZM12.0558 40.3077V48.9018H14.3629V45.8448H18.2966L20.8806 48.9018H23.6492L20.8575 45.7526C21.5759 45.6825 22.25 45.3738 22.7725 44.8758C23.2576 44.3931 23.5314 43.7376 23.5338 43.0532C23.5352 42.6851 23.4565 42.3211 23.3031 41.9864C23.1497 41.6518 22.9253 41.3545 22.6456 41.1152C22.0677 40.5765 21.3012 40.2864 20.5115 40.3077H12.0558ZM14.4668 42.2111H20.35C20.4701 42.2061 20.5901 42.2249 20.703 42.2665C20.8158 42.3081 20.9193 42.3716 21.0075 42.4533C21.0937 42.526 21.1608 42.6187 21.203 42.7232C21.2453 42.8278 21.2613 42.941 21.2498 43.0532C21.2594 43.1669 21.2425 43.2813 21.2005 43.3874C21.1584 43.4934 21.0924 43.5883 21.0075 43.6646C20.9188 43.7448 20.8149 43.8066 20.702 43.8462C20.5891 43.8858 20.4694 43.9025 20.35 43.8953H14.3975L14.4668 42.2111ZM31.2743 40.3077V48.9018H41.9679V46.9984H33.616V45.4642H40.7913V43.6184H33.616V42.2111H41.8756V40.3077H31.2743ZM52.3962 40.3077C51.6497 40.3119 50.9309 40.5912 50.3774 41.0921C50.126 41.3158 49.9265 41.5917 49.793 41.9006C49.6595 42.2094 49.5952 42.5438 49.6045 42.8802C49.6034 43.2276 49.6769 43.5712 49.8202 43.8876C49.9636 44.2041 50.1733 44.486 50.4351 44.7143C50.983 45.2229 51.7064 45.4999 52.4539 45.4872H57.991C58.2078 45.4829 58.4182 45.5613 58.5793 45.7064C58.6554 45.7735 58.7164 45.8561 58.7581 45.9486C58.7999 46.041 58.8215 46.1413 58.8215 46.2428C58.8215 46.3443 58.7999 46.4446 58.7581 46.5371C58.7164 46.6296 58.6554 46.7121 58.5793 46.7792C58.4159 46.9206 58.2071 46.9984 57.991 46.9984H52.5577C52.3456 46.9956 52.1413 46.918 51.9809 46.7792C51.9015 46.7136 51.8384 46.6305 51.7963 46.5365C51.7543 46.4424 51.7346 46.34 51.7387 46.2371H49.5353C49.536 46.5982 49.6159 46.9547 49.7694 47.2816C49.9228 47.6085 50.1462 47.8977 50.4236 48.1289C50.9865 48.6356 51.7196 48.9116 52.4769 48.9018H58.1871C58.9469 48.926 59.6853 48.6481 60.2405 48.1289C60.4893 47.9156 60.6936 47.6552 60.8416 47.3628C60.9896 47.0704 61.0785 46.7516 61.1032 46.4248C61.1278 46.0979 61.0877 45.7694 60.9852 45.4581C60.8827 45.1468 60.7198 44.8588 60.5058 44.6105C60.4231 44.5201 60.3345 44.4353 60.2405 44.3567C59.9643 44.0932 59.6385 43.8872 59.2821 43.7506C58.9256 43.6139 58.5456 43.5494 58.164 43.5608H52.823C52.636 43.5571 52.4563 43.4876 52.3154 43.3647C52.1818 43.238 52.1031 43.0641 52.0963 42.8802C52.0975 42.7937 52.1177 42.7085 52.1556 42.6307C52.1935 42.553 52.2481 42.4845 52.3154 42.4303C52.3791 42.3599 52.4578 42.3047 52.5456 42.2688C52.6335 42.2328 52.7283 42.2171 52.823 42.2226H57.6795C57.7762 42.2114 57.8741 42.2222 57.966 42.2542C58.0579 42.2862 58.1413 42.3385 58.2102 42.4072C58.3389 42.5314 58.4135 42.7013 58.4178 42.8802H60.725C60.7371 42.5398 60.6776 42.2007 60.5505 41.8847C60.4233 41.5688 60.2312 41.283 59.9867 41.046C59.4327 40.5486 58.7124 40.277 57.9679 40.2846L52.3962 40.3077ZM68.7423 48.9018H71.0494V40.3077H68.7423V48.9018ZM78.7207 40.3077V48.9018H87.88C88.3822 48.91 88.8783 48.7909 89.322 48.5557C89.7621 48.3551 90.1404 48.0405 90.4179 47.6444C90.7103 47.2922 90.8623 46.8444 90.8447 46.387V42.8802C90.8578 42.4307 90.7152 41.9906 90.441 41.6343C90.153 41.2223 89.7525 40.902 89.2874 40.7114C88.8347 40.4908 88.3375 40.3764 87.8339 40.3769L78.7207 40.3077ZM81.0278 42.2111H87.3263C87.4679 42.2051 87.6092 42.2276 87.7419 42.2771C87.8747 42.3266 87.9962 42.4023 88.0992 42.4995C88.2032 42.5894 88.2861 42.7012 88.3419 42.8268C88.3977 42.9524 88.4252 43.0888 88.4222 43.2262V45.9371C88.4229 46.0742 88.3944 46.2099 88.3387 46.3352C88.283 46.4604 88.2014 46.5725 88.0992 46.6639C87.8859 46.852 87.6107 46.9547 87.3263 46.9523H81.0509L81.0278 42.2111ZM98.3314 40.3077V48.9018H109.025V46.9984H100.835V45.4642H108.021V43.6184H100.835V42.2111H109.117V40.3077H98.3314ZM116.662 40.3077V48.9018H118.969V42.8802L126.409 48.9941H128.716V40.3077H126.409V46.4101L118.969 40.3077H116.662ZM139.202 40.3077C138.483 40.286 137.783 40.5469 137.253 41.0344C136.985 41.2599 136.773 41.5432 136.631 41.8629C136.489 42.1827 136.422 42.5305 136.434 42.8802V46.3986C136.433 46.7342 136.503 47.0662 136.641 47.3725C136.778 47.6788 136.979 47.9524 137.23 48.175C137.769 48.6619 138.476 48.9222 139.202 48.9018H145.743C146.463 48.9235 147.163 48.6626 147.693 48.175C147.947 47.9548 148.15 47.6817 148.287 47.3749C148.425 47.068 148.493 46.7348 148.489 46.3986V45.8448H146.182V45.9371C146.179 46.0738 146.15 46.2086 146.094 46.3334C146.039 46.4583 145.959 46.5707 145.859 46.6639C145.631 46.8429 145.352 46.944 145.063 46.9523H139.918C139.632 46.9408 139.358 46.8399 139.133 46.6639C139.03 46.5731 138.946 46.4614 138.888 46.3362C138.831 46.2109 138.8 46.075 138.799 45.9371V43.2262C138.792 43.0917 138.818 42.9575 138.875 42.8351C138.931 42.7126 139.015 42.6055 139.122 42.5226C139.337 42.3206 139.622 42.2092 139.918 42.2111H145.12C145.413 42.2029 145.697 42.3059 145.916 42.4995C146.018 42.5909 146.1 42.7029 146.156 42.8282C146.211 42.9535 146.24 43.0891 146.239 43.2262V43.3762H148.546V42.8802C148.549 42.5459 148.48 42.2149 148.342 41.9101C148.205 41.6054 148.003 41.3342 147.75 41.1152C147.217 40.6238 146.514 40.359 145.789 40.3769L139.202 40.3077ZM156.125 40.3077V48.9018H166.83V46.9984H158.548V45.4642H165.712V43.6184H158.548V42.2111H166.83V40.3077H156.125Z" fill="#CB8857"/>
<path d="M37.0188 4.03964H36.5113V5.70078H35.3577V4.03964H34.8501L33.9965 5.70078H32.543L33.7658 3.39364L32.6122 1.34028H33.8926L34.7463 3.02449H35.3V1.37489H36.4536V3.0591H36.9842L37.8609 1.37489H39.2221L38.0686 3.42824L39.2914 5.73539H37.8609L37.0188 4.03964ZM43.225 1.37489H44.4363V3.91274L46.2128 1.37489H47.3664V5.70078H46.1436V3.16292L44.3786 5.70078H43.225V1.37489ZM55.9143 1.37489V5.70078H54.7608V2.33235H53.6072V3.03603C53.5997 3.55127 53.5457 4.06477 53.4457 4.57028C53.4012 4.90302 53.2609 5.21565 53.0419 5.47006C52.934 5.57463 52.8054 5.65535 52.6643 5.70702C52.5232 5.75869 52.3728 5.78014 52.2229 5.76999C52.0352 5.79316 51.8454 5.79316 51.6576 5.76999V4.72024H51.8307C51.902 4.71855 51.9721 4.70113 52.0359 4.66923C52.0997 4.63732 52.1557 4.59172 52.1998 4.53567C52.2902 4.3702 52.3526 4.19089 52.3844 4.00503V1.43256L55.9143 1.37489ZM62.5128 5.76999C62.0872 5.7804 61.6661 5.68108 61.29 5.4816C60.9233 5.3241 60.6134 5.05849 60.4017 4.72024C60.1818 4.37637 60.0693 3.97475 60.0787 3.56667C60.0693 3.15859 60.1818 2.75697 60.4017 2.4131C60.6137 2.09099 60.9086 1.83197 61.2554 1.66328C61.6378 1.47585 62.058 1.37841 62.4839 1.37841C62.9098 1.37841 63.33 1.47585 63.7125 1.66328C64.0736 1.8241 64.3816 2.08412 64.6007 2.4131C64.824 2.75547 64.9367 3.15814 64.9237 3.56667C64.9253 3.97373 64.8134 4.37317 64.6007 4.72024C64.3995 5.05999 64.1026 5.33285 63.7471 5.50467C63.3632 5.68925 62.9373 5.76886 62.5128 5.73539V5.76999ZM62.5128 4.73178C62.7222 4.73444 62.9285 4.68 63.1093 4.57432C63.2902 4.46864 63.4389 4.31571 63.5394 4.13192C63.6364 3.93241 63.6867 3.7135 63.6867 3.49169C63.6867 3.26988 63.6364 3.05097 63.5394 2.85146C63.4267 2.66335 63.2626 2.51129 63.0665 2.4131C62.8884 2.30745 62.6852 2.25166 62.4781 2.2516C62.2722 2.259 62.0707 2.31429 61.8898 2.4131C61.7107 2.51814 61.5632 2.66958 61.463 2.85146C61.3556 3.04929 61.3037 3.27253 61.313 3.49746C61.3047 3.71862 61.3565 3.9379 61.463 4.13192C61.5579 4.32063 61.7064 4.47714 61.8898 4.58181C62.069 4.68344 62.2722 4.73522 62.4781 4.73178H62.5128ZM69.0996 1.37489H70.2532V3.91274L72.0643 1.37489H73.2179V5.70078H72.0643V3.16292L70.3224 5.70078H69.1689L69.0996 1.37489ZM71.1645 1.10956C70.8494 1.11823 70.5393 1.02962 70.2763 0.855778C70.172 0.762247 70.0908 0.645945 70.0387 0.515905C69.9867 0.385864 69.9654 0.245584 69.9764 0.105957L70.7839 0.105957C70.7859 0.22539 70.8309 0.340081 70.9108 0.428957C70.9564 0.46833 71.0096 0.497871 71.0672 0.515734C71.1248 0.533597 71.1854 0.5394 71.2453 0.532778C71.346 0.527121 71.4426 0.490904 71.5221 0.428957C71.5627 0.386023 71.5938 0.33515 71.6137 0.279554C71.6336 0.223957 71.6417 0.164846 71.6375 0.105957L72.4565 0.105957C72.4667 0.245499 72.4449 0.385515 72.3929 0.515417C72.341 0.645319 72.2602 0.761706 72.1566 0.855778C71.8715 1.04723 71.53 1.13667 71.1876 1.10956H71.1645ZM85.0305 4.03964H84.4652V5.70078H83.3116V1.37489H84.4652V3.0591H85.0651L86.0802 1.37489H87.3722L85.9879 3.45131L87.3491 5.70078H85.9764L85.0305 4.03964ZM93.44 5.76999C93.0103 5.78456 92.5844 5.68506 92.2057 5.4816C91.8394 5.32347 91.5297 5.05801 91.3174 4.72024C91.1067 4.37236 90.9953 3.9734 90.9953 3.56667C90.9953 3.15994 91.1067 2.76098 91.3174 2.4131C91.5294 2.09099 91.8243 1.83197 92.1711 1.66328C92.5555 1.4757 92.9776 1.3782 93.4054 1.3782C93.8332 1.3782 94.2553 1.4757 94.6397 1.66328C94.995 1.85141 95.2907 2.13509 95.4934 2.48231C95.7114 2.82703 95.8237 3.22807 95.8164 3.63589C95.8121 4.04214 95.7007 4.44008 95.4934 4.78946C95.2929 5.13261 94.996 5.40937 94.6397 5.58542C94.2609 5.74398 93.849 5.80735 93.44 5.76999ZM93.44 4.72024C93.6475 4.72081 93.8513 4.66539 94.03 4.55982C94.2087 4.45424 94.3555 4.30244 94.4551 4.12039C94.5521 3.92088 94.6024 3.70196 94.6024 3.48015C94.6024 3.25834 94.5521 3.03943 94.4551 2.83992C94.3345 2.65275 94.1622 2.50451 93.9591 2.4131C93.7837 2.31185 93.5848 2.25855 93.3823 2.25855C93.1798 2.25855 92.9809 2.31185 92.8055 2.4131C92.6264 2.51814 92.4789 2.66958 92.3787 2.85146C92.2818 3.05097 92.2314 3.26988 92.2314 3.49169C92.2314 3.7135 92.2818 3.93241 92.3787 4.13192C92.4835 4.3189 92.6383 4.47298 92.8258 4.5769C93.0132 4.68082 93.2259 4.73045 93.44 4.72024ZM103.949 5.65464V3.34749L102.795 5.21628H102.253L101.146 3.45131V5.70078H99.9923V1.37489H101.007L102.53 3.8666L104.087 1.37489H105.103V5.70078L103.949 5.65464ZM113.639 1.32874V5.70078H112.485V2.33235H110.744V5.70078H109.59V1.37489L113.639 1.32874ZM122.152 1.32874V5.70078H120.999V2.33235H119.765V3.03603C119.744 3.54988 119.694 4.06212 119.615 4.57028C119.546 4.89772 119.404 5.20535 119.199 5.47006C119.087 5.57215 118.956 5.65119 118.814 5.70265C118.671 5.75411 118.52 5.777 118.369 5.76999C118.189 5.79304 118.006 5.79304 117.826 5.76999V4.72024H117.988C118.061 4.72682 118.134 4.71304 118.199 4.68044C118.264 4.64783 118.319 4.5977 118.357 4.53567C118.458 4.3748 118.521 4.19348 118.542 4.00503C118.565 3.70554 118.565 3.40473 118.542 3.10524V1.43256L122.152 1.32874ZM130.054 4.72024V5.6431H126.594V1.37489H129.985V2.32081H127.805V3.03603H129.731V3.95889H127.805V4.72024H130.054ZM136.053 4.13192H135.511V5.70078H134.288V1.37489H135.511V3.0591H136.088L137.126 1.37489H138.429L137.045 3.45131L138.429 5.70078H137.045L136.053 4.13192ZM144.462 5.8046C144.036 5.82343 143.613 5.7236 143.24 5.51621C142.88 5.34088 142.579 5.06422 142.374 4.72024C142.175 4.36863 142.072 3.97083 142.075 3.56667C142.076 3.16304 142.179 2.76628 142.374 2.4131C142.597 2.09866 142.894 1.84485 143.24 1.67481C143.595 1.4942 143.987 1.39435 144.386 1.38239C144.784 1.37043 145.181 1.44664 145.547 1.6056C145.856 1.73353 146.127 1.94036 146.331 2.20546L145.547 2.92067C145.438 2.75533 145.289 2.62074 145.113 2.52983C144.937 2.43892 144.741 2.39475 144.543 2.40156C144.326 2.39795 144.112 2.44956 143.92 2.55153C143.737 2.65146 143.588 2.80421 143.493 2.98989C143.384 3.18721 143.328 3.41008 143.332 3.63589C143.328 3.86169 143.384 4.08456 143.493 4.28189C143.582 4.47229 143.732 4.62691 143.92 4.72024C144.11 4.82805 144.326 4.88004 144.543 4.87021C144.737 4.87066 144.929 4.82611 145.103 4.74004C145.277 4.65398 145.429 4.52875 145.547 4.37417L146.331 5.07785C146.123 5.33649 145.853 5.53878 145.547 5.66617C145.214 5.81921 144.851 5.89418 144.486 5.88535" fill="#CB8857"/>
<path d="M172.322 3.02441H153.103V3.91266H172.322V3.02441Z" fill="#CB8857"/>
<path d="M25.7493 3.02441H6.53076V3.91266H25.7493V3.02441Z" fill="#CB8857"/>
</g>
<defs>
<clipPath id="clip0_218_258">
<rect width="178.757" height="51.9453" fill="white" transform="translate(0 0.105957)"/>
</clipPath>
</defs>
</svg>
