<svg width="138" height="94" viewBox="0 0 138 94" fill="none" xmlns="http://www.w3.org/2000/svg">
<g opacity="0.7" clip-path="url(#clip0_218_273)">
<path d="M25.3025 88.6616C25.2119 88.6213 25.1312 88.5617 25.066 88.487C25.0008 88.4123 24.9528 88.3242 24.9251 88.229C25.1622 87.9509 25.4495 87.7199 25.7719 87.5479C26.061 87.3652 26.3964 87.2694 26.7384 87.2718C26.8986 87.2657 27.0576 87.3016 27.1996 87.3758C27.3417 87.4501 27.4619 87.5602 27.5484 87.6952C27.7402 88.0609 27.8352 88.4696 27.8245 88.8825C27.8247 89.2413 27.7876 89.5991 27.714 89.9502C27.6599 90.2131 27.5861 90.4716 27.4931 90.7234C27.6892 90.5013 27.8677 90.2644 28.027 90.0146C28.2111 89.7293 28.3767 89.444 28.5424 89.0942C28.7081 88.7444 28.8462 88.4775 28.975 88.1738C29.1008 87.9126 29.2054 87.6417 29.288 87.3638C29.3863 87.3218 29.4879 87.288 29.5917 87.2626H30.2452C30.3192 87.2805 30.3904 87.3084 30.4569 87.3454C30.4287 87.621 30.37 87.8927 30.282 88.1554C30.2084 88.4223 30.144 88.7076 30.0795 88.9746C30.0151 89.2415 29.9507 89.536 29.877 89.7937C29.8034 90.0515 29.7574 90.3092 29.7114 90.5485H29.7942C30.0519 90.0515 30.3188 89.6281 30.5858 89.177C30.834 88.7925 31.1175 88.432 31.4326 88.1001C31.7036 87.8208 32.0137 87.5821 32.353 87.3914C32.6521 87.2363 32.9826 87.1513 33.3194 87.1429C33.5093 87.1386 33.6948 87.2004 33.8441 87.3178C33.9654 87.422 34.0467 87.5652 34.0742 87.7228C34.0938 87.8961 34.055 88.0711 33.9637 88.2198C33.8573 88.4003 33.6961 88.5422 33.5035 88.6248C33.3977 88.4876 33.2664 88.3719 33.117 88.2842C32.9591 88.2288 32.787 88.2288 32.6291 88.2842C32.5279 88.3846 32.4467 88.5033 32.3898 88.634C32.2972 88.8195 32.2232 89.0138 32.1689 89.2139C32.0867 89.4619 32.0312 89.718 32.0032 89.9778C31.953 90.282 31.9284 90.5899 31.9296 90.8983C31.9104 91.2378 31.967 91.5774 32.0953 91.8923C32.1346 91.9915 32.2032 92.0764 32.292 92.1356C32.3808 92.1948 32.4856 92.2256 32.5923 92.2237C32.7475 92.2235 32.8976 92.168 33.0157 92.0672C33.1513 91.9684 33.2748 91.8541 33.3839 91.7266C33.5421 91.8163 33.6702 91.9508 33.752 92.1132C33.5255 92.3984 33.2476 92.6387 32.9329 92.822C32.7705 92.9146 32.6013 92.9947 32.4266 93.0613C32.264 93.1193 32.093 93.1504 31.9204 93.1533C31.7462 93.1615 31.5732 93.1199 31.4216 93.0336C31.2701 92.9472 31.1462 92.8195 31.0644 92.6655C30.8394 92.2715 30.7338 91.8206 30.7607 91.3677C30.7593 90.9731 30.7901 90.5791 30.8527 90.1895C30.9166 89.86 31.009 89.5366 31.1288 89.2231C30.772 89.7363 30.4638 90.2817 30.2084 90.8522C29.9139 91.5518 29.6561 92.2605 29.426 92.9876C29.3493 93.0429 29.2613 93.0806 29.1683 93.0981H28.4872C28.4012 93.0916 28.32 93.0559 28.2571 92.9968C28.3307 92.6563 28.4044 92.3341 28.4872 92.0764C28.57 91.8187 28.6253 91.4873 28.6897 91.156C28.7541 90.8246 28.8277 90.5669 28.883 90.2355C28.9382 89.9042 29.0118 89.6465 29.0763 89.3151H28.9934C28.7357 89.7845 28.4596 90.2355 28.1558 90.6866C27.8755 91.1022 27.568 91.4988 27.2354 91.8739C26.9619 92.2123 26.6534 92.5209 26.315 92.7943C26.0505 92.9998 25.7291 93.1187 25.3945 93.1349C25.2015 93.1445 25.0111 93.0862 24.8565 92.9702C24.7018 92.8542 24.5926 92.6878 24.5478 92.4998C24.5204 92.3185 24.5562 92.1333 24.649 91.9752C24.7641 91.7919 24.9401 91.655 25.146 91.5886C25.2376 91.7155 25.3573 91.8195 25.4958 91.8923C25.6218 91.9747 25.7687 92.0194 25.9192 92.0212C26.039 91.9161 26.1361 91.7877 26.2045 91.6438C26.3156 91.4475 26.3992 91.2369 26.453 91.0179C26.5307 90.7431 26.5892 90.4632 26.6279 90.1803C26.6757 89.848 26.7003 89.5128 26.7016 89.177C26.7016 88.4407 26.5083 87.9989 26.1493 87.9989C26.0059 88.0009 25.867 88.0493 25.7535 88.137C25.6149 88.2787 25.4858 88.4294 25.3669 88.588L25.3025 88.6616ZM38.5751 90.5393C38.418 90.892 38.2365 91.2334 38.032 91.561C37.8583 91.8428 37.6546 92.1052 37.4246 92.3433C37.2461 92.5438 37.0344 92.712 36.7987 92.8404C36.6023 92.9527 36.3805 93.0129 36.1544 93.0152C36.0085 93.0327 35.8606 93.0093 35.7273 92.9475C35.594 92.8857 35.4806 92.7881 35.3996 92.6655C35.2502 92.3823 35.1772 92.065 35.1879 91.745V91.2204C35.2102 90.9869 35.2533 90.7559 35.3168 90.5301C35.3628 90.2908 35.4272 90.033 35.4825 89.7753C35.5377 89.5176 35.6021 89.2783 35.6481 89.0574L35.777 88.4315C35.7954 88.291 35.7954 88.1486 35.777 88.0081H34.9762C34.9396 87.8787 34.9396 87.7417 34.9762 87.6123C35.1497 87.4445 35.3613 87.3213 35.5929 87.2534C35.8481 87.154 36.1198 87.104 36.3937 87.1061C36.4939 87.0985 36.5943 87.1174 36.6848 87.1611C36.7753 87.2047 36.8527 87.2715 36.9091 87.3546C37.0206 87.5404 37.0751 87.7548 37.0656 87.9713C37.0622 88.2406 37.0314 88.509 36.9735 88.7721C36.8999 89.1034 36.8171 89.444 36.7342 89.8029L36.4949 90.7878C36.4386 91.0358 36.4047 91.2884 36.3937 91.5425C36.3937 91.9107 36.4949 92.0948 36.6974 92.0948C36.8999 92.0948 36.9367 91.9844 37.1116 91.7727C37.3045 91.5192 37.4827 91.2549 37.6455 90.9811C37.8331 90.685 38.0021 90.3776 38.1517 90.0607C38.2841 89.7927 38.3978 89.5159 38.4923 89.2323C38.5778 88.9546 38.6455 88.6718 38.6948 88.3855C38.75 88.0633 38.842 87.7228 38.9157 87.3546L39.2102 87.281H39.606C39.728 87.2625 39.8521 87.2625 39.9742 87.281C40.065 87.2828 40.1538 87.3082 40.2319 87.3546C40.2067 87.6321 40.1543 87.9065 40.0754 88.1738C40.0202 88.4683 39.9742 88.7629 39.9189 89.0942C39.8637 89.4256 39.8177 89.7109 39.7532 90.0146C39.6888 90.3184 39.6612 90.6037 39.6244 90.8798C39.5876 91.156 39.56 91.3953 39.5323 91.607C39.523 91.7787 39.523 91.9507 39.5323 92.1224H40.2319C40.2781 92.2408 40.2781 92.3722 40.2319 92.4906C40.1395 92.5635 40.0409 92.6281 39.9373 92.6839L39.56 92.8496C39.4227 92.9022 39.281 92.9422 39.1366 92.9692C39.0079 92.9784 38.8787 92.9784 38.75 92.9692C38.6706 92.9692 38.592 92.9528 38.5192 92.9211C38.4463 92.8895 38.3808 92.8432 38.3266 92.7851C38.2618 92.7189 38.2125 92.6392 38.1823 92.5517C38.152 92.4641 38.1416 92.371 38.1517 92.2789C38.1425 92.1748 38.1425 92.0701 38.1517 91.966C38.1703 91.7989 38.198 91.633 38.2345 91.4689L38.3542 90.9351C38.3813 90.7816 38.4213 90.6308 38.4739 90.4841L38.5751 90.5393ZM42.8551 88.0265C42.8095 87.8985 42.8095 87.7587 42.8551 87.6307C42.9858 87.5852 43.122 87.5574 43.2601 87.5479C43.5091 87.5097 43.7551 87.4544 43.9964 87.3822L44.9169 87.2718H45.8373C45.9853 87.2541 46.1353 87.2754 46.2725 87.3335C46.4097 87.3916 46.5294 87.4846 46.6197 87.6031C46.7718 87.8551 46.8455 88.1467 46.8314 88.4407C46.8222 88.7493 46.7914 89.0569 46.7393 89.3611C46.7048 89.757 46.6464 90.1504 46.5644 90.5393C46.5 90.9627 46.4172 91.2572 46.3711 91.5794C46.3224 91.8067 46.2916 92.0375 46.2791 92.2697H46.9418C46.9881 92.4007 46.9881 92.5437 46.9418 92.6747C46.7883 92.8423 46.5953 92.9689 46.3803 93.0429C46.128 93.1399 45.8591 93.1868 45.5888 93.1809C45.4916 93.1867 45.3944 93.1698 45.3049 93.1314C45.2155 93.0931 45.1362 93.0344 45.0733 92.96C44.9892 92.8571 44.9283 92.7371 44.895 92.6084C44.8616 92.4797 44.8565 92.3453 44.88 92.2145C44.8894 91.9643 44.9171 91.7151 44.9629 91.4689C44.9746 91.1216 45.0208 90.7762 45.1009 90.438C45.1746 90.0791 45.2206 89.7109 45.2758 89.3703C45.3297 89.0942 45.3605 88.814 45.3679 88.5327C45.3652 88.4222 45.3264 88.3155 45.2574 88.229C45.2085 88.1766 45.1482 88.136 45.0812 88.1105C45.0142 88.085 44.9422 88.0751 44.8708 88.0817H44.6407C44.6057 88.4522 44.5253 88.817 44.4014 89.1678C44.3094 89.5452 44.2173 89.941 44.0977 90.3552C43.9918 90.7142 43.8595 91.0649 43.7019 91.4045C43.5776 91.7284 43.417 92.0371 43.2233 92.3249C43.06 92.5601 42.8577 92.7656 42.625 92.9324C42.4168 93.0765 42.1695 93.1536 41.9163 93.1533C41.8027 93.1563 41.6897 93.1367 41.5839 93.0956C41.478 93.0545 41.3813 92.9928 41.2996 92.914C41.2171 92.8404 41.1519 92.7493 41.109 92.6474C41.066 92.5456 41.0462 92.4354 41.0511 92.3249C41.0609 92.1556 41.1255 91.9941 41.2351 91.8647C41.3533 91.7161 41.509 91.6017 41.6862 91.5333C41.7672 91.6224 41.8601 91.6998 41.9623 91.7635C42.0472 91.8185 42.1464 91.8473 42.2476 91.8463C42.3581 91.8463 42.5053 91.7358 42.671 91.5149C42.8569 91.2241 43.0141 90.9158 43.1404 90.5945C43.3162 90.2036 43.4638 89.8007 43.5822 89.3887C43.7052 88.9643 43.7914 88.5301 43.84 88.0909L42.8551 88.0265ZM51.3507 87.1061C51.6222 87.1063 51.891 87.1595 52.1422 87.2626C52.3596 87.3629 52.5538 87.5071 52.7129 87.686C52.8702 87.8794 52.9889 88.1013 53.0627 88.3395C53.1391 88.5965 53.1793 88.8629 53.1823 89.131C53.1795 89.4796 53.1487 89.8274 53.0903 90.1711C53.03 90.4845 52.9438 90.7924 52.8326 91.0915C52.7161 91.3842 52.5712 91.6648 52.4 91.9291C52.254 92.1685 52.067 92.3804 51.8477 92.555C51.6349 92.7281 51.3913 92.8592 51.1298 92.9416C50.8735 93.0239 50.6071 93.0704 50.3382 93.0797C50.0488 93.0793 49.7618 93.0263 49.4914 92.9232C49.2557 92.8269 49.0426 92.6827 48.8655 92.4998C48.6855 92.2992 48.5478 92.0644 48.4605 91.8095C48.3746 91.5106 48.3373 91.1998 48.3501 90.889C48.3421 90.2573 48.4643 89.6307 48.709 89.0482C48.906 88.5262 49.221 88.0568 49.6295 87.6767C50.0983 87.2304 50.7218 86.983 51.3691 86.9864L51.3507 87.1061ZM49.7031 90.7878C49.6753 91.1718 49.7687 91.5549 49.97 91.8831C50.0484 92.0006 50.1555 92.0961 50.2811 92.1605C50.4068 92.2249 50.5468 92.2562 50.688 92.2513H50.9365C51.018 92.2344 51.0959 92.2032 51.1666 92.1592C51.2722 92.0111 51.3588 91.8503 51.4243 91.6806C51.5188 91.4568 51.5957 91.226 51.6544 90.9903C51.6656 90.762 51.6902 90.5346 51.728 90.3092C51.7465 90.0487 51.7465 89.7873 51.728 89.5268C51.7708 89.1178 51.6839 88.7056 51.4795 88.3487C51.4074 88.245 51.3109 88.1606 51.1986 88.1028C51.0863 88.0451 50.9615 88.0157 50.8352 88.0173C50.7348 87.9988 50.6319 87.9988 50.5315 88.0173L50.2738 88.1093C50.0624 88.4407 49.907 88.8045 49.8135 89.1863C49.7011 89.7246 49.664 90.276 49.7031 90.8246V90.7878ZM57.8029 85.569C58.0851 85.5664 58.3627 85.497 58.6128 85.3665C58.8519 85.2471 59.0457 85.0533 59.1651 84.8142C59.2958 84.8511 59.4178 84.9137 59.5241 84.9983C59.6143 85.0713 59.684 85.1664 59.7266 85.2744C59.506 85.6121 59.2057 85.8903 58.8522 86.0844C58.4314 86.3222 57.9547 86.443 57.4715 86.4342C57.1428 86.4571 56.8165 86.3625 56.5511 86.1672C56.336 86.0344 56.1809 85.8232 56.1185 85.5782C56.0888 85.4712 56.0825 85.3592 56.0999 85.2496C56.1174 85.14 56.1583 85.0355 56.2197 84.9431C56.4047 84.7193 56.6681 84.5745 56.9561 84.5381L57.8029 85.569ZM57.9685 90.5761C57.8134 90.9298 57.6318 91.2713 57.4255 91.5978C57.2543 91.8814 57.0504 92.144 56.818 92.3801C56.6362 92.5808 56.4214 92.7489 56.1829 92.8772C55.9931 92.9892 55.7773 93.0494 55.557 93.0521C55.4086 93.0689 55.2584 93.0453 55.1223 92.9837C54.9861 92.9221 54.8692 92.8249 54.7839 92.7023C54.6345 92.4191 54.5615 92.1019 54.5722 91.7819C54.563 91.6071 54.563 91.432 54.5722 91.2572C54.5912 91.024 54.6312 90.7929 54.6918 90.5669C54.6918 90.3276 54.8023 90.0699 54.8667 89.8121C54.9311 89.5544 54.9772 89.3151 55.0324 89.0942C55.0876 88.8733 55.1152 88.6524 55.152 88.4683C55.1704 88.3278 55.1704 88.1855 55.152 88.0449H54.4341C54.3885 87.9169 54.3885 87.7771 54.4341 87.6491C54.6032 87.4849 54.8079 87.3621 55.0324 87.2902C55.2942 87.1917 55.5718 87.1418 55.8516 87.1429C55.9505 87.135 56.0497 87.1539 56.1388 87.1977C56.2279 87.2414 56.3035 87.3083 56.3578 87.3914C56.4683 87.578 56.5256 87.7913 56.5235 88.0081C56.5124 88.2774 56.4785 88.5453 56.4222 88.8089C56.3486 89.1402 56.275 89.4808 56.1829 89.8398L55.9436 90.8246C55.8903 91.0729 55.8595 91.3255 55.8516 91.5794C55.8516 91.9475 55.9436 92.1316 56.1553 92.1316C56.367 92.1316 56.3946 92.0212 56.5603 91.8095C56.754 91.5566 56.9322 91.2922 57.0941 91.0179C57.2782 90.7142 57.4439 90.392 57.6004 90.0975C57.7366 89.8312 57.8505 89.5542 57.9409 89.2691C58.0146 89.0298 58.079 88.7444 58.1434 88.4223C58.2079 88.1001 58.2815 87.7596 58.3735 87.3914L58.6773 87.3178H59.0455C59.1675 87.2994 59.2916 87.2994 59.4136 87.3178C59.5074 87.3193 59.5993 87.3446 59.6805 87.3914C59.6253 87.6399 59.5793 87.9069 59.5333 88.2106C59.5067 88.5219 59.4513 88.83 59.3676 89.131C59.3124 89.444 59.2663 89.7477 59.2203 90.0515C59.1743 90.3552 59.1099 90.6405 59.0731 90.9167C59.0362 91.1928 58.9994 91.4321 58.981 91.6438C58.967 91.8153 58.967 91.9877 58.981 92.1592H59.6805C59.7076 92.2168 59.7217 92.2797 59.7217 92.3433C59.7217 92.407 59.7076 92.4698 59.6805 92.5274C59.5913 92.6002 59.4959 92.6649 59.3952 92.7207C59.2674 92.7853 59.1352 92.8407 58.9994 92.8864C58.8689 92.9401 58.7332 92.9802 58.5944 93.006C58.4627 93.0153 58.3304 93.0153 58.1987 93.006C58.0953 92.9896 57.9975 92.9485 57.9133 92.8864C57.8515 92.8182 57.8041 92.7382 57.774 92.6512C57.744 92.5642 57.7319 92.472 57.7384 92.3801C57.729 92.273 57.729 92.1652 57.7384 92.058C57.7278 91.8873 57.7594 91.7165 57.8305 91.561L57.9133 90.9995C57.9275 90.8435 57.968 90.691 58.033 90.5485L57.9685 90.5761ZM65.332 89.7293C65.5883 89.7309 65.8389 89.6538 66.0499 89.5084C66.186 89.444 66.308 89.3533 66.4089 89.2415C66.5317 89.131 66.6455 89.0109 66.7494 88.8825C66.851 88.7701 66.9348 88.6428 66.998 88.5051C67.0627 88.4135 67.098 88.3044 67.0992 88.1922C67.1073 88.046 67.0614 87.9019 66.9703 87.7872C66.921 87.7042 66.8552 87.6322 66.7771 87.5755C66.8904 87.4545 67.0244 87.3548 67.1728 87.281C67.3703 87.1962 67.5839 87.1553 67.7987 87.1613C67.8891 87.1575 67.9792 87.1727 68.0632 87.206C68.1473 87.2393 68.2234 87.29 68.2866 87.3546C68.35 87.4183 68.3992 87.4947 68.431 87.5788C68.4627 87.6628 68.4762 87.7527 68.4706 87.8424C68.4402 88.2173 68.2957 88.5739 68.0565 88.8641C67.7325 89.2867 67.3331 89.6456 66.8783 89.9226C66.9427 90.0975 67.0072 90.3 67.0992 90.5301L67.3845 91.1744C67.495 91.4045 67.5962 91.5886 67.6975 91.7635C67.7693 91.9012 67.8557 92.0308 67.9552 92.15H68.4983C68.5164 92.2132 68.5164 92.2802 68.4983 92.3433V92.5458C68.351 92.6916 68.1836 92.8156 68.0012 92.914C67.8052 93.0147 67.5863 93.0623 67.3661 93.0521C67.251 93.051 67.1378 93.023 67.0355 92.9702C66.9332 92.9175 66.8447 92.8415 66.7771 92.7483C66.5956 92.52 66.444 92.2695 66.326 92.0028C66.1987 91.7023 66.0881 91.395 65.9947 91.0823L65.691 90.3092H65.3504C65.328 90.5366 65.2849 90.7615 65.2215 90.9811L65.0835 91.653L64.9454 92.2789L64.8257 92.822C64.7284 92.8742 64.6223 92.9085 64.5128 92.9232H63.758C63.6735 92.9055 63.5946 92.8676 63.5279 92.8127C63.5612 92.5455 63.6135 92.281 63.6844 92.0212C63.7488 91.7174 63.8041 91.4045 63.8685 91.1007L64.0434 90.1803C64.0717 89.8711 64.1178 89.5638 64.1814 89.2599C64.1814 88.993 64.2643 88.7537 64.2919 88.542C64.3061 88.3889 64.3061 88.2348 64.2919 88.0817H63.5095C63.5004 88.0238 63.5004 87.9648 63.5095 87.9069C63.5003 87.8428 63.5003 87.7777 63.5095 87.7136L63.7949 87.5387L64.1814 87.3638L64.614 87.2349C64.7515 87.2166 64.8908 87.2166 65.0282 87.2349C65.1334 87.224 65.2388 87.2536 65.3228 87.3178C65.4067 87.3636 65.4742 87.4343 65.5161 87.5203C65.5712 87.6091 65.6029 87.7104 65.6081 87.8148C65.6265 87.9276 65.6265 88.0426 65.6081 88.1554V88.4683C65.6173 88.6133 65.5921 88.7584 65.5345 88.8917C65.47 89.0482 65.5345 89.1863 65.4608 89.3519C65.3872 89.5176 65.3964 89.6189 65.3504 89.7569L65.332 89.7293ZM72.6954 87.1337C72.9668 87.1357 73.2353 87.1888 73.487 87.2902C73.6996 87.3939 73.8902 87.5377 74.0484 87.7136C74.2052 87.9089 74.3267 88.13 74.4074 88.3671C74.4808 88.6245 74.518 88.8909 74.5179 89.1586C74.5196 89.5074 74.4888 89.8556 74.4258 90.1987C74.3696 90.5131 74.2833 90.8213 74.1681 91.1192C74.0549 91.4116 73.913 91.6922 73.7447 91.9567C73.5987 92.1961 73.4118 92.408 73.1924 92.5826C72.9763 92.7558 72.7297 92.8869 72.4653 92.9692C72.2093 93.0523 71.9428 93.0988 71.6737 93.1073C71.4066 93.1379 71.1362 93.1255 70.873 93.0705C70.6267 92.9772 70.4055 92.828 70.2266 92.6348C70.0477 92.4416 69.9161 92.2095 69.8421 91.9567C69.7364 91.6615 69.6835 91.3499 69.6856 91.0363C69.6776 90.4046 69.7998 89.7779 70.0446 89.1955C70.2415 88.6734 70.5565 88.2041 70.965 87.824C71.4429 87.3905 72.0688 87.1566 72.7138 87.1705L72.6954 87.1337ZM71.0386 90.8154C71.0184 91.2 71.1147 91.5817 71.3148 91.9107C71.3931 92.0282 71.5002 92.1237 71.6259 92.1881C71.7515 92.2526 71.8916 92.2838 72.0327 92.2789H72.2812C72.372 92.2696 72.4598 92.2414 72.5389 92.1961C72.646 92.0522 72.7327 91.8942 72.7967 91.7266C72.878 91.5165 72.9456 91.3012 72.9992 91.0823C73.0265 90.8344 73.0696 90.5885 73.128 90.346C73.1465 90.0855 73.1465 89.8241 73.128 89.5636C73.1796 89.1542 73.0921 88.7392 72.8795 88.3855C72.8112 88.2801 72.7169 88.1942 72.6056 88.1362C72.4943 88.0781 72.3699 88.0498 72.2444 88.0541C72.144 88.0356 72.0411 88.0356 71.9407 88.0541L71.6737 88.1462C71.47 88.4815 71.315 88.8441 71.2135 89.2231C71.1033 89.7463 71.057 90.281 71.0755 90.8154H71.0386ZM76.5612 88.0541C76.5524 87.9808 76.5524 87.9066 76.5612 87.8332C76.5429 87.7607 76.5429 87.6848 76.5612 87.6123C76.6711 87.5359 76.7922 87.4769 76.9202 87.4374L77.4172 87.2994C77.6163 87.2786 77.8133 87.2417 78.0063 87.1889H78.6138C78.6978 87.3644 78.7685 87.5459 78.8255 87.732C78.9267 88.0173 79.028 88.3302 79.1384 88.6524C79.2489 88.9746 79.3409 89.3427 79.433 89.6833C79.525 90.0238 79.5986 90.2908 79.6355 90.4933H79.6999L80.1049 89.7569C80.2613 89.4808 80.427 89.1863 80.5743 88.8365L81.0529 87.9161C81.1652 87.7004 81.2666 87.4792 81.3567 87.2534C81.4751 87.2057 81.5987 87.1717 81.7248 87.1521L82.185 87.0785H82.8386V87.7596C82.8172 88.0681 82.7803 88.3753 82.7281 88.68L82.59 89.7201C82.5715 90.0572 82.5285 90.3925 82.4612 90.7234C82.4612 91.0363 82.3875 91.3124 82.3691 91.5425C82.3599 91.7081 82.3599 91.874 82.3691 92.0396H83.0503C83.0871 92.1721 83.0871 92.3121 83.0503 92.4446C82.9012 92.6089 82.715 92.7351 82.5072 92.8127C82.2566 92.9047 81.9917 92.9515 81.7248 92.9508C81.6239 92.9543 81.5233 92.9364 81.4297 92.8983C81.3361 92.8602 81.2517 92.8029 81.1818 92.7299C81.0361 92.5448 80.9669 92.3109 80.9885 92.0764C80.9916 91.8236 81.0132 91.5713 81.0529 91.3216C81.0786 90.9836 81.1309 90.6482 81.2094 90.3184C81.2646 89.9778 81.3106 89.6373 81.3751 89.3243C81.4395 89.0114 81.4855 88.7813 81.5039 88.6432H81.3751C81.1358 89.1402 80.878 89.6833 80.5743 90.2447C80.2706 90.8062 79.9484 91.4321 79.6539 91.9567L79.433 92.058H79.1108H78.715C78.6414 91.7727 78.5678 91.4781 78.4849 91.1376L78.2732 90.2171C78.2088 89.9318 78.1444 89.6557 78.0707 89.3795C77.9971 89.1034 77.9695 88.8641 77.9235 88.634C77.859 89.1126 77.7946 89.5544 77.7118 90.0883C77.6384 90.5506 77.5276 91.0062 77.3804 91.4505C77.2531 91.8189 77.0562 92.1595 76.8005 92.4538C76.6852 92.5822 76.5428 92.6834 76.3837 92.7503C76.2245 92.8171 76.0526 92.8479 75.8801 92.8404C75.7678 92.8448 75.6558 92.8258 75.5512 92.7846C75.4466 92.7434 75.3517 92.6809 75.2726 92.601C75.1901 92.5274 75.125 92.4364 75.082 92.3345C75.039 92.2326 75.0193 92.1224 75.0241 92.012C75.0267 91.8615 75.0785 91.7161 75.1714 91.5978C75.275 91.4666 75.4163 91.3702 75.5764 91.3216C75.6593 91.4073 75.7557 91.4788 75.8617 91.5333C75.9466 91.5884 76.0459 91.6172 76.147 91.6162C76.2667 91.6162 76.3955 91.4965 76.5152 91.248C76.659 90.9522 76.776 90.6442 76.865 90.3276C76.9809 90.0196 77.0822 89.7063 77.1687 89.3887C77.2515 88.9469 77.3252 88.5235 77.3712 88.1186L76.5612 88.0541ZM86.419 89.2323C86.5643 88.9278 86.7336 88.6354 86.9253 88.3579C87.0781 88.1343 87.2506 87.9248 87.4407 87.732C87.6243 87.5563 87.832 87.4075 88.0574 87.2902C88.2524 87.195 88.4663 87.1447 88.6833 87.1429C88.8418 87.1368 88.9995 87.1683 89.1435 87.2349C89.2644 87.2993 89.366 87.3946 89.438 87.5111C89.5129 87.6328 89.5658 87.7668 89.5945 87.9069C89.6129 88.0628 89.6129 88.2203 89.5945 88.3763C89.584 88.6852 89.5502 88.9929 89.4933 89.2967C89.4288 89.6649 89.346 90.033 89.2632 90.4012L89.0422 91.4413C88.9779 91.663 88.9408 91.8917 88.9318 92.1224H89.7234C89.7697 92.2534 89.7697 92.3964 89.7234 92.5274C89.561 92.6911 89.3624 92.8141 89.1435 92.8864C88.8985 93.0019 88.6319 93.0646 88.3611 93.0705C88.2578 93.0795 88.1538 93.0623 88.0589 93.0204C87.964 92.9786 87.8812 92.9135 87.8181 92.8312C87.7068 92.6589 87.6521 92.4562 87.6616 92.2513C87.6721 92.0032 87.706 91.7566 87.7628 91.5149L87.9653 90.5209C88.0584 90.1966 88.1352 89.8679 88.1954 89.536C88.2813 89.2795 88.3369 89.0138 88.3611 88.7444C88.3626 88.5834 88.3313 88.4236 88.2691 88.275C88.2462 88.222 88.2072 88.1775 88.1577 88.1478C88.1081 88.118 88.0505 88.1046 87.993 88.1093C87.818 88.1413 87.6608 88.2363 87.5512 88.3763C87.3562 88.5882 87.1835 88.8195 87.0357 89.0666C86.87 89.3427 86.7136 89.6281 86.5755 89.9134C86.4562 90.1669 86.3637 90.4322 86.2994 90.705C86.2779 90.8881 86.2441 91.0695 86.1981 91.248L86.0877 91.7174C86.0732 91.8857 86.0424 92.0522 85.9956 92.2145C85.9956 92.3893 85.922 92.5826 85.876 92.7943C85.7881 92.844 85.691 92.8753 85.5906 92.8864H84.8359C84.7424 92.8838 84.6522 92.8515 84.5782 92.7943C84.6518 92.4262 84.7346 92.012 84.7991 91.6162C84.8635 91.2204 84.9555 90.6958 85.0292 90.254C85.1028 89.8121 85.158 89.3335 85.2041 88.993C85.248 88.688 85.2726 88.3806 85.2777 88.0725H84.5045C84.4588 87.9477 84.4588 87.8108 84.5045 87.686L84.7991 87.5295L85.2041 87.3454L85.6459 87.2165C85.7746 87.2073 85.9037 87.2073 86.0324 87.2165C86.1114 87.2123 86.1903 87.2239 86.2646 87.2508C86.339 87.2777 86.4071 87.3192 86.465 87.373C86.5932 87.5204 86.6592 87.7118 86.6491 87.9069V88.5788L86.5571 89.0022C86.572 89.1237 86.5461 89.2467 86.4835 89.3519L86.419 89.2323ZM92.1441 88.0541C92.1154 87.9238 92.1154 87.7887 92.1441 87.6583C92.3064 87.571 92.4798 87.5059 92.6595 87.4651C92.9083 87.4259 93.1543 87.3706 93.3959 87.2994L94.2611 87.1889H95.1815C95.3282 87.1701 95.4773 87.1909 95.6133 87.2492C95.7492 87.3074 95.8671 87.401 95.9547 87.5203C96.1029 87.7739 96.1763 88.0643 96.1664 88.3579C96.1645 88.6664 96.1368 88.9743 96.0835 89.2783C96.0514 89.6756 95.9868 90.0697 95.8902 90.4564C95.8258 90.8798 95.7614 91.1744 95.7062 91.4965C95.6605 91.7241 95.6328 91.9549 95.6233 92.1869H96.3228C96.3692 92.3179 96.3692 92.4608 96.3228 92.5918C96.1679 92.7578 95.9753 92.884 95.7614 92.96C95.509 93.057 95.2401 93.1039 94.9698 93.0981C94.8711 93.1054 94.7721 93.0891 94.6809 93.0507C94.5897 93.0123 94.5089 92.9528 94.4452 92.8772C94.3043 92.6897 94.2357 92.4577 94.2519 92.2237C94.2644 91.9732 94.2951 91.7241 94.3439 91.4781L94.528 90.4564C94.5924 90.0883 94.6569 89.7385 94.7121 89.3887C94.7675 89.113 94.7952 88.8324 94.7949 88.5512C94.7949 88.4416 94.7594 88.335 94.6937 88.2474C94.6438 88.1941 94.5817 88.1537 94.5128 88.1296C94.4439 88.1056 94.3701 88.0986 94.2979 88.1093H94.077L93.8377 89.1955C93.7548 89.5728 93.6352 89.9594 93.5247 90.3736C93.4183 90.73 93.2923 91.0803 93.1474 91.4229C93.0126 91.7454 92.8461 92.0537 92.6503 92.3433C92.4879 92.5762 92.289 92.7813 92.0612 92.9508C91.8487 93.1003 91.5939 93.1777 91.3341 93.1717C91.2239 93.1766 91.1139 93.1587 91.0109 93.1191C90.908 93.0795 90.8143 93.0191 90.7358 92.9416C90.6536 92.8658 90.5888 92.773 90.5459 92.6698C90.503 92.5665 90.483 92.4551 90.4873 92.3433C90.4907 92.1736 90.56 92.0118 90.6806 91.8923C90.7881 91.7407 90.9389 91.6252 91.1132 91.561C91.1982 91.6468 91.2942 91.721 91.3985 91.7819C91.4835 91.8369 91.5827 91.8657 91.6839 91.8647C91.7943 91.8647 91.9416 91.7543 92.0889 91.5333C92.2786 91.2594 92.439 90.9664 92.5675 90.6589C92.7328 90.2763 92.8712 89.8827 92.9817 89.4808C93.0919 89.0539 93.1749 88.6204 93.2302 88.183L92.1441 88.0541Z" fill="white"/>
<path d="M99.4991 93.1616C99.232 93.1769 98.9649 93.1299 98.719 93.0245C98.473 92.9191 98.2549 92.7581 98.0817 92.5542C97.7226 92.09 97.5458 91.5105 97.5846 90.925C97.5843 90.6407 97.6121 90.3571 97.6675 90.0782C97.7466 89.7906 97.8578 89.5127 97.9988 89.2498C98.1211 88.9716 98.2658 88.7038 98.4314 88.449C98.6134 88.196 98.8268 87.9672 99.0665 87.7679C99.2935 87.5774 99.5521 87.4279 99.8305 87.3261C100.127 87.2246 100.438 87.1717 100.751 87.1696C100.976 87.1696 101.2 87.207 101.414 87.2801C101.573 87.3367 101.72 87.4243 101.846 87.5378C101.955 87.6394 102.037 87.7658 102.086 87.906C102.132 88.0392 102.157 88.179 102.159 88.3202C102.167 88.5721 102.103 88.8212 101.975 89.0381C101.842 89.2464 101.674 89.4302 101.478 89.5812C101.346 89.6982 101.197 89.7945 101.036 89.8665C100.846 89.9598 100.649 90.0397 100.447 90.1058C100.222 90.1872 99.9914 90.2518 99.7568 90.2991C99.5144 90.3314 99.2745 90.3806 99.0389 90.4464V90.879C99.0365 91.0881 99.0676 91.2963 99.1309 91.4957C99.1842 91.6577 99.2686 91.8078 99.3795 91.9375C99.4753 92.0546 99.5986 92.1463 99.7384 92.2044C99.8694 92.26 100.01 92.2882 100.153 92.2872C100.36 92.2795 100.565 92.2391 100.76 92.1676C100.984 92.1022 101.196 91.9995 101.386 91.8638C101.472 91.9088 101.546 91.9744 101.6 92.0547C101.655 92.1349 101.689 92.2275 101.699 92.3241C101.569 92.4523 101.424 92.5636 101.266 92.6554C101.09 92.759 100.905 92.8483 100.714 92.9223C100.524 93.0046 100.327 93.0693 100.125 93.1156C99.917 93.1643 99.7035 93.186 99.4899 93.1801L99.4991 93.1616ZM99.0021 89.8205C99.2006 89.811 99.3978 89.7833 99.5912 89.7376C99.7885 89.6922 99.98 89.6243 100.162 89.5352C100.33 89.4593 100.475 89.3421 100.585 89.1946C100.694 89.0484 100.752 88.8706 100.751 88.6884C100.76 88.5205 100.704 88.3557 100.594 88.2281C100.532 88.1632 100.456 88.1129 100.371 88.0811C100.287 88.0493 100.196 88.0366 100.107 88.0441C100.015 88.0348 99.9223 88.0348 99.8305 88.0441L99.5912 88.1269C99.5155 88.2321 99.4537 88.3465 99.4071 88.4674C99.3426 88.6055 99.2874 88.7436 99.2322 88.8908C99.1748 89.0446 99.1256 89.2013 99.0849 89.3603C99.0359 89.518 99.0141 89.683 99.0205 89.8481L99.0021 89.8205ZM105.141 89.7376C105.393 89.7368 105.639 89.6633 105.85 89.5259C105.984 89.4505 106.108 89.3577 106.218 89.2498L106.55 88.9001C106.643 88.7835 106.723 88.6569 106.789 88.5227C106.864 88.418 106.904 88.2925 106.904 88.1637C106.904 88.035 106.864 87.9094 106.789 87.8047C106.731 87.7198 106.66 87.6451 106.577 87.5838C106.692 87.4606 106.83 87.3607 106.982 87.2893C107.181 87.2074 107.394 87.1667 107.608 87.1696C107.697 87.1687 107.785 87.1853 107.867 87.2185C107.949 87.2517 108.024 87.3008 108.087 87.3629C108.152 87.4279 108.202 87.5056 108.236 87.5911C108.269 87.6767 108.284 87.7682 108.28 87.86C108.248 88.2316 108.103 88.5847 107.866 88.8724C107.538 89.294 107.139 89.6553 106.688 89.9401C106.728 90.1505 106.802 90.3527 106.909 90.5384C107.001 90.7593 107.102 90.9802 107.203 91.1919C107.304 91.4036 107.406 91.6061 107.498 91.781C107.57 91.9158 107.656 92.0423 107.755 92.1584H108.271C108.28 92.2256 108.28 92.2937 108.271 92.3609V92.5542C108.126 92.7028 107.958 92.8271 107.774 92.9223C107.573 93.0208 107.353 93.0713 107.129 93.0696C107.014 93.0654 106.901 93.035 106.799 92.9808C106.697 92.9266 106.609 92.85 106.54 92.7567C106.365 92.5278 106.219 92.2772 106.108 92.0111C105.973 91.7115 105.856 91.4041 105.758 91.0907C105.666 90.7777 105.565 90.5108 105.482 90.2807H105.086C105.064 90.5112 105.021 90.7391 104.957 90.9618L104.819 91.6337L104.681 92.2596L104.561 92.8027C104.463 92.8517 104.358 92.8829 104.249 92.8947H103.494C103.407 92.885 103.326 92.8461 103.264 92.7843C103.297 92.5163 103.352 92.2515 103.429 91.9927C103.485 91.689 103.54 91.3852 103.604 91.0723L103.779 90.1518C103.807 89.8426 103.853 89.5352 103.917 89.2314C103.917 88.9553 104 88.7252 104.028 88.5043C104.037 88.351 104.037 88.1973 104.028 88.0441H103.264C103.245 87.9872 103.245 87.926 103.264 87.8692C103.245 87.8092 103.245 87.7451 103.264 87.6851L103.54 87.501L103.936 87.3261L104.368 87.1973C104.506 87.1788 104.645 87.1788 104.782 87.1973C104.886 87.1961 104.989 87.2248 105.077 87.2801C105.159 87.3285 105.226 87.3986 105.27 87.4826C105.319 87.5743 105.35 87.6741 105.362 87.7771C105.371 87.8905 105.371 88.0044 105.362 88.1177V88.8724C105.376 89.0315 105.344 89.191 105.27 89.3327C105.197 89.462 105.156 89.6073 105.151 89.7561L105.141 89.7376ZM113.775 87.7863C113.782 87.9611 113.723 88.1322 113.609 88.265C113.487 88.3836 113.339 88.4718 113.177 88.5227C113.031 88.3937 112.87 88.2825 112.698 88.1913C112.502 88.09 112.284 88.0364 112.063 88.0348C111.98 88.0257 111.897 88.0257 111.814 88.0348L111.612 88.1085C111.509 88.2425 111.417 88.384 111.336 88.5319C111.245 88.7338 111.171 88.9432 111.115 89.1578C111.041 89.4049 110.986 89.6572 110.949 89.9125C110.902 90.1892 110.877 90.4694 110.876 90.7501C110.848 91.1408 110.952 91.5295 111.17 91.8546C111.253 91.9682 111.361 92.0612 111.485 92.1267C111.61 92.1921 111.748 92.2281 111.888 92.232C112.082 92.2342 112.274 92.1934 112.45 92.1123C112.645 92.0296 112.83 91.9246 113.002 91.7994C113.095 91.8482 113.174 91.919 113.234 92.0057C113.293 92.0923 113.33 92.1921 113.342 92.2964C113.106 92.5371 112.829 92.7334 112.523 92.8763C112.125 93.0576 111.69 93.1457 111.253 93.134C111 93.1361 110.749 93.0859 110.517 92.9868C110.291 92.8884 110.092 92.7369 109.937 92.545C109.769 92.3575 109.641 92.1384 109.559 91.9007C109.467 91.6247 109.421 91.3356 109.421 91.0447C109.422 90.6951 109.459 90.3464 109.532 90.0046C109.611 89.6885 109.719 89.3804 109.854 89.0841C109.993 88.7987 110.159 88.5274 110.351 88.2742C110.529 88.0343 110.744 87.8232 110.986 87.6483C111.236 87.4574 111.525 87.3252 111.833 87.2617C112.132 87.1778 112.442 87.1375 112.753 87.142C113.03 87.1232 113.306 87.1977 113.536 87.3537C113.613 87.4032 113.678 87.4695 113.725 87.5476C113.773 87.6257 113.803 87.7136 113.812 87.8047" fill="white"/>
<path d="M0 79.2628H5.52258V78.508L3.58047 78.0846V69.3221H4.2892C5.7895 69.3221 6.20369 70.5003 6.20369 71.522C6.20369 72.5436 5.7895 73.8783 4.53772 73.8783H4.30761V75.1669L7.22537 79.2628H10.1892L10.2996 78.5264L9.11225 78.0846L6.44301 74.3845C7.05147 74.1926 7.58377 73.8133 7.96393 73.3009C8.3441 72.7885 8.55271 72.1692 8.55999 71.5312C8.59681 69.4142 6.8572 68.2176 4.60215 68.2176H0.0920429V68.954L1.35303 69.3314V78.103L0.174882 78.4804L0 79.2628ZM95.2368 79.2628H101.063V78.508L98.7069 78.1307V69.3129H99.4064C100.787 69.3129 101.247 70.4911 101.247 71.568C101.247 72.6449 100.999 73.8046 99.7838 73.8046H99.5168V74.8907H99.885C100.348 74.9337 100.816 74.8845 101.26 74.7461C101.704 74.6076 102.116 74.3826 102.473 74.0839C102.83 73.7853 103.124 73.419 103.339 73.0062C103.553 72.5933 103.684 72.1421 103.723 71.6784C103.728 71.6418 103.728 71.6047 103.723 71.568C103.723 69.4142 101.827 68.2084 99.5629 68.2084H95.3289L95.2737 68.9448L96.5623 69.3221V78.0938L95.3013 78.4712L95.2368 79.2628ZM11.0452 79.2628H14.8925L14.9938 78.5264L13.7144 78.0846L14.3771 76.2438H17.6078L18.2245 78.0846L17.1476 78.4344L17.0832 79.1707H21.6853L21.7866 78.4344L20.6084 78.0478L16.9267 68.0151H16.0523L12.3246 78.0386L11.1464 78.4344L11.0452 79.2628ZM14.7269 75.1853L14.8557 75.038L16.0431 71.8717L17.2212 75.038L17.3409 75.1853H14.7269ZM23.0107 79.2628H31.7364L31.5983 75.9492H30.8528L30.2729 77.7901L25.772 78.103L26.3243 77.5324L31.8469 68.6963V68.2176H23.563L23.7103 71.614H24.4466L25.0357 69.7732L29.0395 69.405L28.6438 69.8192L23.0107 78.7473V79.2628ZM33.3748 79.2628H42.1096L41.9532 75.9492H41.2168L40.637 77.7901L36.1545 78.1215L36.7067 77.5508L42.2293 68.7699V68.2913H34.0559L34.2768 71.6232H34.9763L35.5194 69.7824L39.5232 69.4142L39.1367 69.8284L33.4024 78.7565L33.3748 79.2628ZM43.4259 79.2628H47.2733L47.3745 78.5264L46.1043 78.0846L46.7578 76.2438H49.9885L50.6052 78.0846L49.5283 78.4344L49.4731 79.1707H54.0752L54.1673 78.4344L52.9799 78.0478L49.2982 68.0151H48.3778L44.6961 78.0386L43.5179 78.4344L43.4259 79.2628ZM47.1076 75.1853L47.2364 75.038L48.4146 71.8717L49.5927 75.038L49.7032 75.1853H47.1076ZM59.4966 75.1209L63.2151 79.2628H65.9764L66.0868 78.5264L65.1664 78.1491L60.9508 73.4733L60.6379 73.2616L64.4301 69.359L65.4425 68.954L65.5254 68.2084H61.6688L61.5583 68.9448L62.7457 69.2761L59.4874 72.6909L59.4966 75.1209ZM55.4099 79.2628H60.1317L60.2145 78.5264L59.0363 78.1399V69.3221L60.2145 68.9448L60.3065 68.2084H55.4927L55.4099 68.9448L56.7077 69.3221V78.0386L55.5295 78.416L55.4099 79.2628ZM66.6943 73.7402C66.7089 74.8447 67.0506 75.92 67.6762 76.8304C68.3018 77.7408 69.1832 78.4453 70.209 78.8549C71.2348 79.2645 72.359 79.3608 73.4396 79.1317C74.5202 78.9026 75.5086 78.3584 76.2799 77.5678C77.0513 76.7771 77.571 75.7756 77.7733 74.6897C77.9756 73.6038 77.8516 72.4823 77.4168 71.4669C76.9819 70.4515 76.2559 69.5878 75.3304 68.9849C74.4049 68.382 73.3214 68.0669 72.2169 68.0796C70.8021 68.0348 69.4272 68.5518 68.3924 69.5176C67.3576 70.4834 66.7471 71.8195 66.6943 73.234C66.6851 73.3995 66.6851 73.5655 66.6943 73.731V73.7402ZM72.2169 78.2319C69.8606 78.2319 69.1058 75.8756 69.1058 73.7494C69.1058 71.6232 69.8146 69.2025 72.2169 69.2025C74.6192 69.2025 75.3464 71.568 75.3464 73.7494C75.3464 75.9308 74.6284 78.2227 72.2169 78.2227V78.2319ZM83.575 79.2628H84.6795L88.5453 69.3774L89.6314 69L89.7235 68.2545H85.4527L85.3606 69L87.0634 69.3682L85.0109 75.0472L84.6151 76.391L84.1457 74.8539L82.0471 69.3314L83.5934 68.9632L83.6854 68.2176H78.393L78.3101 68.954L79.4975 69.3682L83.575 79.2628ZM103.898 79.2628H107.736L107.847 78.5264L106.613 78.0846L107.276 76.2438H110.516L111.114 78.0846L110.047 78.4344L109.982 79.1707H114.584L114.695 78.4344L113.517 78.0478L109.835 68.052H108.914L105.177 78.0386L104.009 78.4344L103.898 79.2628ZM107.58 75.1853L107.718 75.038L108.905 71.8717L110.083 75.038L110.203 75.1853H107.58ZM115.864 79.2628H121.386V78.508L119.407 78.0846V69.3221H120.116C121.635 69.3221 122.031 70.5003 122.031 71.522C122.031 72.5436 121.635 73.8783 120.365 73.8783H120.19V75.1669L123.107 79.2168H126.099L126.191 78.4804L125.013 78.0846L122.334 74.4029C122.941 74.2064 123.471 73.8245 123.849 73.3109C124.227 72.7974 124.435 72.1781 124.442 71.5404C124.442 69.4326 122.721 68.2268 120.493 68.2268H115.974L115.91 68.954L117.18 69.3314V78.103L116.002 78.4804L115.864 79.2628ZM131.345 75.1209L135.027 79.2628H137.844L137.945 78.5264L137.024 78.1491L132.818 73.4917L132.496 73.28L136.233 69.4142L137.254 69.0092L137.337 68.2729H133.49L133.398 69L134.576 69.3314L131.308 72.7461L131.345 75.1209ZM127.277 79.2628H131.999L132.082 78.5264L130.903 78.1399V69.3221L132.082 68.9448L132.192 68.2084H127.47L127.378 68.9448L128.685 69.3221V78.0386L127.498 78.416L127.277 79.2628Z" fill="white"/>
<path d="M63.8136 0.502058C70.7001 -0.552819 77.7445 0.516365 84.0078 3.56709C83.5936 3.83401 83.1518 4.14696 82.7284 4.48752C76.8831 1.79731 70.3767 0.881998 64.0161 1.85509L63.5559 1.92872C59.8037 2.53461 56.1849 3.78653 52.8605 5.62885C52.2099 5.42358 51.541 5.28178 50.8632 5.20545C54.6763 2.85691 58.9139 1.28072 63.335 0.566488L63.8136 0.502058ZM89.917 7.36846C95.116 11.5351 98.6015 17.4678 99.7104 24.0374V24.3964C100.64 30.664 99.2773 37.0566 95.8722 42.4C95.24 42.4067 94.6151 42.5348 94.0313 42.7774C97.7813 37.5053 99.3659 30.9955 98.4586 24.5897V24.2675C97.3833 18.0368 94.055 12.4187 89.107 8.48218C89.4235 8.14708 89.6957 7.77279 89.917 7.36846ZM82.9769 53.7857C79.9537 55.2416 76.7357 56.2523 73.4229 56.7863L72.9443 56.8507C65.7988 57.9543 58.4875 56.7551 52.0689 53.4268C52.8602 53.3537 53.6468 53.2369 54.4252 53.077C60.1739 55.5837 66.5169 56.4041 72.7142 55.4425L73.1744 55.3689C74.642 55.1628 76.0936 54.8552 77.5188 54.4484C79.3781 54.4526 81.2315 54.2394 83.0414 53.8133L82.9769 53.7857ZM38.6583 39.0773C37.9052 37.2255 37.3588 35.2962 37.0291 33.3246V32.9656C36.4678 29.1222 36.7824 25.2017 37.9495 21.4971L38.1888 21.6811L39.1093 22.4175C38.1393 25.7798 37.9069 29.3119 38.4282 32.7723V33.1037C38.7234 34.9415 39.2299 36.739 39.9377 38.4606C39.4979 38.6099 39.08 38.8173 38.6951 39.0773" fill="white"/>
<path d="M78.6691 32.174L78.2181 32.266H77.5462C76.735 32.3367 75.9195 32.1939 75.1807 31.8518C74.8916 31.6963 74.6377 31.4828 74.435 31.2246C74.2323 30.9665 74.085 30.6692 74.0025 30.3515C73.9529 30.1749 73.9445 29.9893 73.978 29.809C74.0115 29.6286 74.086 29.4584 74.1958 29.3114C74.3218 29.1564 74.4802 29.0307 74.6599 28.9433C74.8395 28.8558 75.0361 28.8087 75.2359 28.8052C75.8643 28.7528 76.496 28.8539 77.0768 29.0997C77.7151 29.3403 78.3022 29.6995 78.8072 30.1582C79.9575 30.0306 81.0405 29.5517 81.909 28.7868C83.0231 27.7925 83.9599 26.616 84.6795 25.3076C85.7436 23.5596 86.5089 21.6465 86.9438 19.6469C87.3185 17.9888 87.2869 16.2647 86.8517 14.6214C86.5944 13.6736 86.1705 12.7791 85.5999 11.9797C84.9828 11.14 84.23 10.409 83.3725 9.81673C82.4318 10.8918 81.582 12.0432 80.8321 13.2591C79.818 14.9949 78.8963 16.783 78.0708 18.616C76.8436 21.1503 75.4108 24.5252 73.7724 28.7408C72.741 31.5735 71.5361 34.3401 70.1643 37.0246C68.1006 40.9667 65.1748 44.3928 61.6043 47.0481C58.4194 49.2857 54.6597 50.5634 50.7709 50.7298C48.1134 50.9585 45.4413 50.5121 43.0025 49.432C42.0659 49.0287 41.2269 48.4287 40.5425 47.6728C39.858 46.9169 39.3441 46.0227 39.0354 45.0508C38.8679 44.5779 38.8091 44.0733 38.8633 43.5746C38.9175 43.0759 39.0833 42.5957 39.3484 42.1698C39.6033 41.7729 39.953 41.4456 40.3659 41.2174C40.7789 40.9892 41.2421 40.8674 41.7139 40.8628C42.5302 40.8232 43.3365 41.0564 44.0057 41.5255C44.6569 41.9695 45.1425 42.6169 45.3864 43.3664C45.4944 43.6131 45.5424 43.8818 45.5264 44.1506C45.5104 44.4194 45.4308 44.6806 45.2943 44.9127C45.0903 45.1186 44.8461 45.2804 44.5769 45.3881C44.3078 45.4957 44.0194 45.547 43.7296 45.5386C43.2591 45.5468 42.7902 45.4816 42.3398 45.3453C41.9107 45.1916 41.4606 45.1047 41.0051 45.0876C40.9484 45.0802 40.8908 45.0927 40.8422 45.1229C40.7935 45.1531 40.7568 45.1991 40.7382 45.2533C40.6926 45.3812 40.6926 45.5211 40.7382 45.6491C41.0195 46.3049 41.4401 46.8916 41.971 47.3685C42.5019 47.8453 43.1303 48.2008 43.8124 48.4103C45.5916 49.1812 47.5292 49.5157 49.4639 49.386C51.0745 49.3215 52.6676 49.0271 54.1949 48.5116C55.6083 48.0324 56.9285 47.3131 58.0975 46.3854C59.6947 45.026 61.0786 43.4343 62.2026 41.6636C64.191 38.5821 66.0011 35.3891 67.624 32.1003C68.2376 30.9283 69.1089 29.1887 70.238 26.8815C74.6499 18.0024 78.482 12.0135 81.7341 8.91471C79.9911 8.13889 78.1664 7.56153 76.2944 7.19351C69.3912 5.90491 63.979 6.21785 57.7201 8.91471C57.3966 8.52822 57.0459 8.16526 56.6708 7.82861L56.9102 7.72736C63.5096 4.90164 69.3267 4.56108 76.5797 6.01536C78.6979 6.43868 80.7608 7.10263 82.7282 7.99428C83.8235 7.19351 85.2134 6.01536 85.6828 5.77605C86.0417 5.55439 86.443 5.41018 86.8609 5.35265C87.0166 5.34464 87.1718 5.37631 87.3119 5.44469C87.4326 5.49969 87.528 5.59835 87.5789 5.72082C87.6617 6.03377 87.2843 6.55841 86.4007 7.23953C85.8208 7.68134 84.8084 8.57415 84.4678 8.8871C85.8208 9.8446 87.0349 10.9844 88.0759 12.2743C88.9492 13.3656 89.6025 14.6159 89.9996 15.956C90.553 17.5644 90.7572 19.2722 90.5985 20.9657C90.4397 22.6592 89.9218 24.2994 89.0792 25.777C87.3733 28.6303 84.4893 30.6184 80.4271 31.7414C80.7296 32.1979 81.0062 32.6712 81.2555 33.1588C83.4001 37.5033 80.6848 42.9338 78.393 46.4038C72.7139 54.881 95.2552 44.7931 95.7247 45.0968C97.8416 46.5327 78.9452 53.5371 75.2819 51.1532C74.5531 50.6321 74.0393 49.863 73.8368 48.9902C72.7139 45.2809 80.4916 37.7518 79.1569 33.168C79.1073 32.9808 79.0395 32.799 78.9544 32.625C78.88 32.4607 78.7907 32.3035 78.6875 32.1556L78.6691 32.174ZM43.6928 24.7093C43.6674 25.6204 43.7823 26.53 44.0333 27.4061C44.4596 28.9014 45.4234 30.1863 46.7394 31.0142C48.1045 31.897 49.7202 32.3106 51.3416 32.1924C53.9142 31.9527 56.3259 30.8346 58.1711 29.0261C60.5626 26.8251 62.447 24.1304 63.6937 21.1288C64.4124 19.4777 64.9077 17.7381 65.1664 15.956C65.4517 14.1151 65.7003 13.1947 65.9212 13.1947C65.9849 13.1903 66.0486 13.2034 66.1054 13.2326C66.1621 13.2618 66.2099 13.306 66.2433 13.3604C66.3631 13.5356 66.4476 13.7326 66.4918 13.9403C66.7876 15.1687 66.8778 16.4377 66.7587 17.6956C66.691 19.1945 66.4217 20.6775 65.958 22.1045C65.0218 25.3081 63.1962 28.1806 60.6931 30.3883C58.3173 32.3642 55.3504 33.4913 52.262 33.5914C50.0915 33.7665 47.9225 33.2371 46.0767 32.0819C44.3562 31.0509 43.0901 29.4066 42.533 27.4798C42.2315 26.434 42.1071 25.3451 42.1649 24.2583C42.644 24.4486 43.1324 24.6145 43.6284 24.7553" fill="white"/>
<path d="M32.611 5.47258C34.2677 9.20953 40.0388 7.83809 49.1787 7.6448C58.3186 7.45151 58.383 19.0029 58.383 20.0614C58.7612 21.5872 59.3012 23.0683 59.9937 24.4795L59.0733 25.6576L58.6867 24.7372L58.3738 24.0008C58.1069 23.3473 57.7111 22.4085 57.1956 21.304C56.6742 20.0255 56.0621 18.7859 55.364 17.5946C54.9374 16.9062 54.4475 16.2591 53.9005 15.6617C53.6203 15.349 53.3122 15.0625 52.9801 14.8057L52.7316 14.6217L52.4646 14.4007C52.2881 14.2782 52.1036 14.1675 51.9124 14.0694C51.1675 13.6837 50.3707 13.4078 49.5469 13.2502C48.7587 13.1126 47.9624 13.0265 47.163 12.9925C45.6442 12.9189 44.236 12.9097 43.0486 12.7716C42.5004 12.7089 41.9564 12.6137 41.4195 12.4863C40.9501 12.3758 40.499 12.2469 40.2413 12.1457L39.4958 11.9156L39.2381 11.8051L39.4958 11.9432L40.2413 12.2838C40.5727 12.4126 40.9685 12.5691 41.4195 12.7072C41.9514 12.8654 42.4924 12.9914 43.0394 13.0845C44.2176 13.3146 45.6627 13.4067 47.1445 13.5632C47.9048 13.6359 48.6585 13.7651 49.3996 13.9497C50.1567 14.1291 50.8805 14.4274 51.5442 14.8334C51.7096 14.9237 51.8667 15.0284 52.0136 15.1463L52.2437 15.312L52.4646 15.5053C52.7483 15.7521 53.0101 16.0232 53.247 16.3152C53.6967 16.8904 54.0912 17.5068 54.4251 18.1561C55.0149 19.2985 55.5195 20.483 55.9347 21.6998C50.4121 22.6202 41.355 21.5893 37.2315 17.567C38.4189 17.4382 42.0362 18.2205 42.4227 17.429C37.7009 15.0635 32.4545 10.4705 32.5649 5.46338" fill="white"/>
</g>
<defs>
<clipPath id="clip0_218_273">
<rect width="138" height="93.1107" fill="white" transform="translate(0 0.105957)"/>
</clipPath>
</defs>
</svg>
