<svg width="152" height="73" viewBox="0 0 152 73" fill="none" xmlns="http://www.w3.org/2000/svg">
<g opacity="0.7" clip-path="url(#clip0_218_282)">
<path d="M24.4031 33.6096H27.7552V29.0641H32.0374V33.6535H35.3983V21.535H32.0374V26.0454H27.7552V21.535H24.4031V33.6096ZM40.365 33.7675C42.2429 33.7675 43.3574 32.89 44.463 30.7401L49.1402 21.535H45.5073L42.8747 27.2037L40.1895 21.535H36.4601L41.1811 30.4505C41.0581 30.6107 40.9 30.7406 40.719 30.8304C40.538 30.9201 40.3389 30.9673 40.1369 30.9683C39.6494 30.9633 39.1739 30.817 38.768 30.5471L37.3991 32.9602C38.2857 33.5029 39.3081 33.7828 40.3475 33.7675H40.365ZM50.2195 33.6096H53.5278V30.0995H55.1863C58.1874 30.0995 60.3724 28.599 60.3724 25.7646C60.3724 22.9302 58.4067 21.4911 55.3618 21.4911H50.1844L50.2195 33.6096ZM53.5278 27.5284V24.3518H55.1512C56.3533 24.3518 57.0817 24.8959 57.0817 25.9313C57.0817 26.9668 56.3533 27.5284 55.1687 27.5284H53.5278ZM66.4272 33.8202C69.3844 33.8202 71.2184 32.2407 71.2184 30.082C71.2362 29.4526 71.0351 28.8366 70.6495 28.3389C70.2638 27.8413 69.7175 27.4928 69.1036 27.3529C69.6418 27.1345 70.0994 26.755 70.4135 26.2664C70.7277 25.7779 70.8832 25.2042 70.8586 24.6238C70.8586 22.7372 69.0334 21.3595 66.3395 21.3595C65.431 21.3399 64.528 21.503 63.6838 21.8392C62.8397 22.1753 62.0717 22.6777 61.4254 23.3163L63.0751 25.282C63.9541 24.5525 65.0489 24.1331 66.1903 24.0886C67.1204 24.0886 67.6996 24.5273 67.6996 25.1416C67.6996 25.7558 67.1994 26.2472 65.9972 26.2472H64.7599V28.7745H66.0148C67.3837 28.7745 67.9541 29.1781 67.9541 29.8363C67.9541 30.4944 67.3574 31.0297 66.1113 31.0297C65.482 31.0437 64.8564 30.9295 64.2726 30.6942C63.6888 30.4589 63.159 30.1073 62.7153 29.6608L60.9603 31.8721C61.6989 32.5532 62.5683 33.0772 63.5156 33.412C64.463 33.7469 65.4685 33.8858 66.4711 33.8202H66.4272ZM71.8853 33.6096H75.3954L76.2729 31.5035H80.9237L81.8012 33.6622H85.3815L80.2568 21.4385H77.0363L71.8853 33.6096ZM77.2206 28.8447L78.5895 25.4136L79.9585 28.8447H77.2206ZM87.2331 33.6096H90.5062V26.7123L93.5687 31.3895H93.6477L96.7365 26.6684V33.6096H100.036V21.535H96.5259L93.6565 26.2034L90.7782 21.535H87.2682L87.2331 33.6096ZM101.221 33.6096H104.731L105.608 31.5035H110.259L111.137 33.6622H114.717L109.583 21.4999H106.433L101.221 33.6096ZM106.591 28.8447L107.951 25.4136L109.32 28.8447H106.591ZM115.901 33.6096H119.245V29.0641H123.545V33.6535H126.914V21.535H123.545V26.0454H119.245V21.535H115.901V33.6096Z" fill="white"/>
<path d="M138.533 62.0149C138.981 62.0149 141.262 62.1114 143.219 62.1114C143.789 62.1114 143.886 61.9622 143.886 61.8043C143.886 61.6463 143.737 61.5673 143.184 61.5059C142.888 61.5233 142.591 61.4907 142.306 61.4094C141.429 61.2602 141.104 60.9092 141.078 59.1103C141.075 59.0958 141.076 59.0809 141.08 59.0666C141.083 59.0524 141.09 59.039 141.099 59.0274C141.108 59.0159 141.119 59.0063 141.132 58.9994C141.145 58.9925 141.16 58.9884 141.174 58.9874C147.317 58.4785 151.178 55.4774 151.178 49.5805C151.178 45.2631 148.449 41.9198 141.174 41.3845H141.078C141.078 39.7348 141.35 39.3224 142.166 39.1732C142.455 39.112 142.749 39.0709 143.044 39.0503C143.377 39.0503 143.579 38.9275 143.579 38.752C143.579 38.5765 143.403 38.4536 142.894 38.4536C141.841 38.4536 138.621 38.5326 138.445 38.5326C138.27 38.5326 135.523 38.4536 134.347 38.4536C133.777 38.4536 133.654 38.5765 133.654 38.752C133.654 38.9275 133.803 39.0503 134.198 39.0503H134.856C135.734 39.1205 136.059 39.4715 136.059 41.3757C128.547 41.8759 125.897 45.4649 125.897 49.6331C125.897 54.6174 128.626 58.2503 135.936 58.9699C135.936 58.9699 136.015 59.0401 136.015 59.0927C136.015 60.8478 135.751 61.2953 134.883 61.3743L134.225 61.4708C133.83 61.4708 133.654 61.62 133.654 61.7691C133.654 61.9183 133.856 62.0675 134.365 62.0675C135.286 62.0675 137.875 62.0149 138.445 62.0149H138.533ZM140.999 43.2185C140.996 43.2081 140.996 43.1973 140.998 43.1868C140.999 43.1762 141.003 43.1661 141.009 43.1571C141.015 43.1481 141.022 43.1403 141.031 43.1343C141.04 43.1282 141.05 43.124 141.06 43.122C144.57 43.5695 145.562 46.6935 145.562 50.4756C145.562 53.5468 144.509 56.8814 141.087 57.3026C140.964 57.3026 140.964 57.2061 140.964 57.1534L140.999 43.2185ZM136.155 57.1447C136.155 57.2236 136.155 57.25 136.032 57.2236C132.522 56.3461 131.531 52.8361 131.531 49.2646C131.531 45.2807 132.891 43.3852 136.102 43.0255L136.155 57.1447Z" fill="white"/>
<path d="M120.114 39.5943C120.018 38.8397 119.842 38.4185 119.544 38.4185C119.245 38.4185 119 38.7168 118.517 39.4978L110.33 54.0382L101.634 39.6996C101.002 38.8221 100.756 38.4711 100.458 38.4711C100.159 38.4711 99.9576 38.7431 99.8347 39.647L97.0969 58.0748C96.7985 60.0579 96.5002 60.8038 95.6226 60.9267C95.3279 60.9118 95.0325 60.9384 94.7451 61.0057C94.4994 61.0934 94.1396 61.1285 94.1396 61.3128C94.1396 61.4971 94.4994 61.6111 94.7978 61.6111C95.921 61.4971 97.325 61.4971 98.3078 61.4971C99.2907 61.4971 100.861 61.5848 102.186 61.5848C102.66 61.5848 102.783 61.4971 102.783 61.2514C102.783 61.0057 102.704 60.9793 102.257 60.9793C101.879 60.9605 101.503 60.9106 101.133 60.8302C100.388 60.681 100.08 60.33 100.08 59.47C100.08 58.61 100.08 57.8642 100.203 57.0656L101.081 48.5976C101.651 49.6243 102.967 52.1077 103.485 52.9852C104.617 54.9069 106.46 58.3205 107.513 60.0053C108.39 61.3654 108.522 61.6111 108.873 61.6111C109.224 61.6111 109.286 61.4356 110.102 59.9088L116.244 48.3168L117.324 59.0664C117.446 60.4265 117.42 60.602 116.937 60.8214C116.855 60.819 116.775 60.8488 116.714 60.9045C116.654 60.9603 116.617 61.0375 116.613 61.1197C116.613 61.2426 116.718 61.4444 117.297 61.4707C120.667 61.5497 123.098 61.5497 125.563 61.5497C126.046 61.5497 126.292 61.5497 126.292 61.2514C126.292 60.953 126.099 60.953 125.721 60.953C125.128 60.93 124.54 60.8417 123.966 60.6898C122.984 60.3914 122.676 59.6455 122.431 57.6887L120.114 39.5943Z" fill="white"/>
<path d="M76.6503 61.5323C78.0982 61.5323 83.0123 61.5323 83.4774 61.4534C83.6967 61.4534 83.7494 61.3042 83.7757 61.0848C84.0391 59.7259 84.5286 58.4208 85.2236 57.2237C86.6715 54.1524 90.4887 45.6844 92.5509 41.9901C93.481 40.3053 93.9198 39.8577 94.885 39.6559C95.2447 39.5611 95.6116 39.4966 95.9819 39.4629C96.3593 39.4629 96.5786 39.3137 96.5786 39.1031C96.5786 38.8925 96.3593 38.8311 96.0083 38.8311C95.4379 38.8311 92.7615 38.9276 92.3315 38.9276C91.1732 38.9276 90.0587 38.8311 89.6024 38.8311C89.1461 38.8311 88.9267 38.9013 88.9267 39.1382C88.9267 39.3751 89.1022 39.4365 89.4269 39.4629C90.0324 39.5594 90.0938 39.8051 90.0938 40.1298C90.0285 40.6906 89.8776 41.2381 89.6463 41.7532C88.839 43.6925 87.1103 47.8958 85.715 50.6161C85.2061 49.7386 81.0028 41.9638 80.7307 41.4022C80.5124 41.0307 80.361 40.6238 80.2832 40.2C80.2832 39.9016 80.2832 39.5945 81.4591 39.5594C81.7838 39.5594 81.9329 39.3839 81.9329 39.1996C81.9329 39.0153 81.7574 38.9276 81.4328 38.9276C79.5549 38.9276 77.247 39.0241 76.7995 39.0241C75.6938 39.0241 73.2894 38.9276 71.9732 38.9276C71.5958 38.9276 71.3677 38.9978 71.3677 39.1996C71.3677 39.4014 71.5958 39.5331 71.9381 39.5331C73.4035 39.5331 73.8247 39.9806 75.0971 42.0866C76.3695 44.1927 81.2397 52.6168 82.6262 55.4248C82.7098 55.5559 82.7542 55.7081 82.7542 55.8636C82.7542 56.0191 82.7098 56.1713 82.6262 56.3024C82.3094 57.0089 81.9087 57.6747 81.4328 58.2855C79.8006 60.4969 78.9757 61.0058 76.545 61.0058C76.1677 61.0058 75.9922 61.1023 75.9922 61.3305C75.9922 61.5587 76.2379 61.6289 76.5977 61.6289" fill="white"/>
<path d="M53.5283 42.9109C53.5283 40.5153 53.7389 39.708 54.8972 39.5588C55.2246 39.5413 55.5527 39.5413 55.88 39.5588C56.3714 39.5588 56.5206 39.4097 56.5206 39.2605C56.5206 39.1113 56.3012 38.9534 55.8011 38.9534C54.9235 38.9534 52.9404 39.0236 50.9221 39.0499C50.1499 39.0499 47.2014 38.9534 46.1484 38.9534C45.6658 38.9534 45.5166 39.0236 45.5166 39.2254C45.5166 39.4272 45.6921 39.5325 46.0607 39.5588C46.3119 39.5413 46.5641 39.5413 46.8153 39.5588C48.1842 39.7343 48.0702 40.4364 48.1842 43.3146C48.2895 49.3958 48.1842 56.8283 48.1842 60.7859C48.1842 61.6634 48.3071 62.1548 48.6844 62.1548C49.0618 62.1548 49.2285 62.0671 50.1586 61.1632C51.3082 60.119 54.1075 57.074 59.8113 50.44C61.4084 48.5797 62.5404 47.3073 63.4354 46.1753C63.3565 49.9311 63.4354 54.9504 63.2599 58.1621C63.1634 60.119 63.0581 60.7947 61.891 60.8912C61.6295 60.9344 61.3659 60.9637 61.1012 60.979C60.6011 60.979 60.3905 61.0755 60.3905 61.2773C60.3905 61.4791 60.6274 61.5757 61.1012 61.5757C62.3034 61.5757 63.6811 61.5318 64.936 61.5318C65.6643 61.5318 69.9641 61.6108 71.14 61.6108C71.6139 61.6108 71.8157 61.6108 71.8157 61.3124C71.8157 61.0141 71.6928 61.1106 71.14 61.0141C70.8128 61.0317 70.4847 61.0022 70.166 60.9263C68.9901 60.6806 68.8058 60.3296 68.8058 58.4342C68.5864 52.5197 68.6742 46.6404 68.5864 40.6821C68.5864 38.7866 68.4285 38.4883 68.0775 38.4883C67.7265 38.4883 66.9543 38.8568 64.9272 41.1208C63.3301 42.9197 62.0753 44.3676 60.2676 46.4298C58.9864 47.9303 55.88 51.5369 53.4406 54.3274L53.5283 42.9109Z" fill="white"/>
<path d="M27.5711 52.8793C27.628 54.984 27.5694 57.0903 27.3956 59.1886C27.2201 60.4435 27.0183 60.7594 26.4128 60.8822C26.1144 60.8822 25.8161 60.9612 25.5353 60.9875C25.2545 61.0138 24.9561 61.084 24.9561 61.2947C24.9561 61.5053 25.1316 61.593 25.5616 61.593C26.562 61.5316 29.8351 61.5316 30.0194 61.5316C30.2037 61.5316 33.4768 61.6193 35.4775 61.6193C35.925 61.6193 36.083 61.5053 36.083 61.3561C36.083 61.2069 35.9689 61.0138 35.5214 61.0138C35.0619 60.9993 34.6043 60.9495 34.1525 60.8647C33.275 60.6892 33.038 60.1188 32.9766 59.2588C32.8274 57.9864 32.8274 55.2574 32.8274 52.9056V41.4453C32.8274 40.9363 32.9503 40.7433 33.1872 40.6906C33.4586 40.6643 33.7319 40.6643 34.0033 40.6906C34.5386 40.6814 35.0698 40.7861 35.5615 40.9979C36.0532 41.2097 36.4942 41.5238 36.8552 41.9191C37.9521 43.3007 38.4795 45.0492 38.3294 46.8069C38.3294 49.536 37.1272 51.4577 34.6351 51.4577C34.0823 51.4577 33.977 51.5806 33.977 51.7649C33.977 51.9491 34.1261 52.0106 34.3016 52.0632C34.6078 52.1257 34.9193 52.158 35.2318 52.1597C39.3298 52.1597 43.6121 49.6588 43.6121 45.0431C43.6294 44.3006 43.4943 43.5624 43.2151 42.8741C42.9359 42.1859 42.5185 41.5622 41.9887 41.0416C40.7865 39.936 38.8121 38.9707 34.7316 38.9707C33.3627 38.9707 31.6516 39.0672 30.2212 39.0672C29.7035 39.0672 26.6497 38.9707 25.351 38.9707C24.7718 38.9707 24.6929 39.0936 24.6929 39.2691C24.6929 39.4446 24.842 39.5674 25.2282 39.5674C25.614 39.5775 25.9984 39.6185 26.3777 39.6903C27.0973 39.8394 27.3517 40.3923 27.4219 41.2259C27.4921 42.0596 27.5097 44.3762 27.5097 47.6756L27.5711 52.8793Z" fill="white"/>
<path d="M13.4603 41.0594C15.0736 41.011 16.6882 41.0608 18.2954 41.2086C20.0505 41.3314 20.5155 42.0861 20.6296 42.9636C20.6676 43.1633 20.6881 43.3659 20.691 43.5691C20.691 43.9201 20.7788 44.0956 21.0245 44.0956C21.2702 44.0956 21.2965 43.9201 21.3228 43.4989C21.3228 42.7442 21.5247 39.9888 21.5247 39.5413C21.5247 38.7866 21.5247 38.6111 21.2263 38.6111C20.9125 38.6476 20.6017 38.7062 20.2962 38.7866C19.6714 38.876 19.0406 38.9171 18.4095 38.9095H5.3521C4.2344 38.9288 3.11683 38.8642 2.00877 38.7164C1.67471 38.6186 1.3347 38.5424 0.990858 38.4883C0.80658 38.4883 0.718829 38.7866 0.657403 39.2429C0.4468 40.3662 0.122119 41.9632 -0.000732422 43.2181C-0.000732422 43.5866 -0.000732422 43.8148 0.244971 43.8148C0.490675 43.8148 0.543326 43.5866 0.595977 43.3409C0.671324 43.1057 0.76522 42.8768 0.876781 42.6565C1.25411 41.6035 1.92102 41.2086 3.60585 41.112C5.29068 41.0155 6.95795 41.0594 8.17769 41.0594V52.8269C8.23423 54.9433 8.17564 57.0612 8.00219 59.1713C7.90567 60.0488 7.69506 60.7069 7.0457 60.821C6.70347 60.821 6.37002 60.9088 6.07166 60.9351C5.77331 60.9614 5.47495 61.0316 5.47495 61.2334C5.47495 61.4353 5.69433 61.5318 6.14186 61.5318H10.5294C11.0384 61.5318 13.9254 61.6195 15.9876 61.6195C16.5316 61.6195 16.6808 61.5318 16.6808 61.3563C16.6808 61.1808 16.5667 61.0579 16.0841 61.0141C15.649 60.9862 15.2155 60.9364 14.7854 60.8649C13.9079 60.7157 13.6797 60.0927 13.6271 59.3117C13.4779 58.0568 13.4779 55.2137 13.4779 52.9058L13.4603 41.0594Z" fill="white"/>
<path d="M20.9369 71.948V70.8599L21.4722 70.2719L22.6481 71.948H23.6923L22.0689 69.6138L23.6221 67.8588H22.5954L20.8843 69.7279V67.8588H20.0068V69.7279L18.357 67.7973H17.2514L18.8221 69.5524L17.1987 71.9129H18.2781L19.4364 70.2281L19.9804 70.816V71.9129L20.9369 71.948ZM27.764 67.8588H26.9304L25.1139 70.5878V67.8588H24.2364V71.948H25.1139L26.9128 69.2189V71.948H27.7903L27.764 67.8588ZM29.2996 67.8588V68.7363C29.2996 70.9652 29.0188 71.2635 28.5274 71.2635H28.3958V72.0006C28.5533 72.0182 28.7122 72.0182 28.8697 72.0006C29.8086 72.0006 30.2386 71.3864 30.2386 68.9732V68.6573H31.3793V71.948H32.2569V67.8149L29.2996 67.8588ZM35.2141 72.0621C35.4953 72.0546 35.7722 71.9918 36.0291 71.8772C36.286 71.7627 36.5179 71.5987 36.7114 71.3946C36.9049 71.1905 37.0563 70.9502 37.157 70.6876C37.2577 70.425 37.3057 70.1451 37.2982 69.8639C37.2907 69.5827 37.2279 69.3058 37.1134 69.0488C36.9988 68.7919 36.8348 68.5601 36.6307 68.3666C36.4266 68.1731 36.1864 68.0216 35.9237 67.9209C35.6611 67.8203 35.3812 67.7723 35.1 67.7798C34.5321 67.7868 33.9903 68.019 33.5937 68.4255C33.1971 68.832 32.9782 69.3794 32.9852 69.9472C32.9922 70.5151 33.2245 71.0569 33.6309 71.4535C34.0374 71.8502 34.5848 72.069 35.1527 72.0621H35.2141ZM35.2141 71.1845C35.0509 71.1845 34.8892 71.1523 34.7386 71.0895C34.5879 71.0268 34.4511 70.9349 34.3361 70.819C34.2211 70.7032 34.1301 70.5658 34.0684 70.4147C34.0068 70.2635 33.9756 70.1017 33.9768 69.9385C33.9548 69.7729 33.9668 69.6046 34.0121 69.4439C34.0574 69.2831 34.1349 69.1333 34.2401 69.0035C34.3452 68.8738 34.4757 68.7668 34.6235 68.6892C34.7714 68.6115 34.9335 68.5649 35.1 68.552H35.2404C35.4052 68.5531 35.5682 68.5867 35.72 68.6509C35.8718 68.715 36.0095 68.8084 36.1252 68.9257C36.2409 69.0431 36.3323 69.1821 36.3943 69.3347C36.4563 69.4874 36.4876 69.6508 36.4865 69.8156V69.9209C36.49 70.0834 36.4614 70.245 36.4024 70.3965C36.3435 70.5479 36.2552 70.6863 36.1428 70.8036C36.0303 70.921 35.8959 71.015 35.747 71.0804C35.5982 71.1457 35.438 71.1811 35.2755 71.1845H35.2141ZM41.7428 67.8412H40.9355L39.1805 70.5703V67.8588H38.2064V71.948H39.0839L40.839 69.2189V71.948H41.7165L41.7428 67.8412ZM39.9878 67.5253C40.2343 67.5352 40.4752 67.4494 40.6599 67.2859C40.8447 67.1223 40.9592 66.8937 40.9794 66.6478L40.4528 66.5513C40.4359 66.6621 40.3796 66.7631 40.2941 66.8356C40.2086 66.9082 40.0999 66.9474 39.9878 66.9461C39.7421 66.9461 39.6104 66.797 39.5227 66.5513L39.0137 66.6478C39.0317 66.8914 39.143 67.1187 39.3245 67.2822C39.506 67.4456 39.7436 67.5328 39.9878 67.5253ZM44.4719 72.0884H45.3494V70.8423L45.832 70.3509L47.1132 72.1059H48.1925L46.4375 69.7366L48.1135 67.9816H47.043L45.3932 69.7366V67.8588H44.5157L44.4719 72.0884ZM50.7461 72.0884C51.1666 72.0815 51.5757 71.9503 51.9219 71.7114C52.2681 71.4726 52.536 71.1367 52.6917 70.746C52.8475 70.3553 52.8842 69.9272 52.7973 69.5157C52.7104 69.1042 52.5037 68.7275 52.2033 68.4332C51.9028 68.1388 51.5221 67.9399 51.1088 67.8614C50.6956 67.7829 50.2684 67.8284 49.881 67.9921C49.4935 68.1558 49.1632 68.4305 48.9314 68.7815C48.6997 69.1325 48.5769 69.5442 48.5786 69.9648C48.5786 70.2439 48.6342 70.5203 48.7424 70.7776C48.8505 71.035 49.0089 71.2682 49.2083 71.4635C49.4077 71.6588 49.6442 71.8124 49.9037 71.9152C50.1632 72.018 50.4407 72.0679 50.7198 72.0621H50.7636L50.7461 72.0884ZM50.7461 71.2109C50.4171 71.2085 50.1024 71.0762 49.8706 70.8428C49.6389 70.6094 49.5088 70.2938 49.5088 69.9648V69.9209C49.4905 69.7612 49.5039 69.5995 49.5483 69.4451C49.5927 69.2906 49.6672 69.1464 49.7675 69.0209C49.8678 68.8953 49.992 68.7908 50.1328 68.7133C50.2736 68.6359 50.4284 68.587 50.5881 68.5695H50.7373C51.0694 68.5695 51.3882 68.7002 51.6247 68.9334C51.8611 69.1666 51.9963 69.4835 52.0009 69.8156C52.0009 69.8156 52.0009 69.8946 52.0009 69.9297C52.0032 70.0922 51.9735 70.2535 51.9135 70.4045C51.8534 70.5556 51.7642 70.6932 51.651 70.8098C51.5377 70.9263 51.4026 71.0194 51.2534 71.0837C51.1041 71.148 50.9437 71.1823 50.7812 71.1845L50.7461 71.2109ZM53.7384 71.9743H54.6159V69.3067L55.8093 71.0617L56.9677 69.3067V72.0621H57.8452V67.9816H56.915L55.8181 69.7366L54.7388 67.9816H53.7735L53.7384 71.9743ZM58.7929 72.0621H59.6704V68.6749H61.4254V71.9655H62.3029V67.8675H58.8631L58.7929 72.0621ZM63.7947 67.9377V68.8153C63.7947 71.0354 63.5227 71.3337 63.0225 71.3337H62.8909V72.0621C63.0483 72.0796 63.2073 72.0796 63.3647 72.0621C64.3124 72.0621 64.7336 71.4478 64.7336 69.0346V68.7187H65.9183V72.0094H66.7958V67.8939L63.7947 67.9377ZM67.7084 72.0621H70.8324V71.2547H68.6474V70.3772H70.5867V69.5699H68.6474V68.6924H70.8499V67.8939H67.7523L67.7084 72.0621ZM71.6397 72.0621H72.5172V70.7809L72.9823 70.2895L74.2634 72.0445H75.3779L73.7106 69.605L75.3867 67.85H74.2898L72.5962 69.7191V67.8588H71.7187L71.6397 72.0621ZM77.5103 72.0621C77.8247 72.0808 78.1392 72.0273 78.4298 71.9056C78.7203 71.7839 78.9791 71.5973 79.1863 71.36L78.6159 70.7458C78.4771 70.8939 78.3102 71.0129 78.1249 71.0958C77.9395 71.1787 77.7395 71.2238 77.5366 71.2284C77.2204 71.1915 76.9288 71.0397 76.7171 70.8019C76.5055 70.5641 76.3886 70.2568 76.3886 69.9385C76.3886 69.6201 76.5055 69.3129 76.7171 69.0751C76.9288 68.8373 77.2204 68.6855 77.5366 68.6485C77.7356 68.6431 77.9333 68.682 78.1155 68.7625C78.2976 68.8429 78.4595 68.9629 78.5896 69.1136L79.1336 68.4818C78.9328 68.2601 78.6855 68.0854 78.4095 67.9702C78.1335 67.8549 77.8354 67.8019 77.5366 67.8149C76.9904 67.8029 76.4605 68.0009 76.0561 68.3681C75.6517 68.7354 75.4037 69.2438 75.3632 69.7886C75.3227 70.3333 75.4927 70.8728 75.8384 71.2959C76.184 71.7189 76.6788 71.9931 77.2207 72.0621C77.3346 72.0708 77.449 72.0708 77.5629 72.0621H77.5103ZM82.9684 68.7012H85.2236V67.8851H82.0733V71.9743H83.9688C84.9252 71.9743 85.5132 71.5092 85.5132 70.6142C85.5132 69.7191 84.9867 69.333 84.0653 69.333H82.9684V68.7012ZM83.9688 70.1666C84.39 70.1666 84.5918 70.3421 84.5918 70.6493C84.5918 70.9564 84.39 71.1758 83.9688 71.1758H82.9684V70.1403L83.9688 70.1666ZM89.8656 67.8851H88.9881L87.2331 70.6142V67.8588H86.3556V71.948H87.2331L88.9881 69.2189V71.948H89.8656V67.8851ZM92.3051 67.8149C91.9984 67.8013 91.6924 67.8538 91.4077 67.9688C91.1231 68.0839 90.8665 68.2589 90.6554 68.4818L91.138 69.061C91.2777 68.9087 91.4492 68.7889 91.6402 68.71C91.8312 68.6312 92.0373 68.5952 92.2437 68.6046C92.6386 68.6046 92.9106 68.7802 92.9106 69.0697C92.9106 69.3593 92.6474 69.5436 92.1735 69.5436H91.7084V70.307H92.1823C92.6474 70.307 92.9896 70.4474 92.9896 70.7897C92.9896 71.1319 92.6912 71.2723 92.3051 71.2723C92.0546 71.2883 91.8035 71.2504 91.5689 71.1611C91.3342 71.0717 91.1215 70.9331 90.945 70.7546L90.4536 71.3864C90.6915 71.6239 90.9775 71.8078 91.2922 71.9258C91.607 72.0439 91.9434 72.0933 92.2788 72.0708C93.2353 72.0708 93.8495 71.5531 93.8495 70.8423C93.8496 70.6167 93.7733 70.3976 93.6331 70.2208C93.4929 70.044 93.2971 69.9197 93.0773 69.8683C93.2724 69.8007 93.4415 69.6739 93.5611 69.5055C93.6806 69.3372 93.7447 69.1358 93.7443 68.9293C93.7443 68.2887 93.13 67.8237 92.2437 67.8237L92.3051 67.8149ZM94.6832 71.9919H95.5607V70.307H97.228V71.9568H98.1055V67.8675H97.228V69.4909H95.5607V67.8588H94.6832V71.9919ZM99.1497 71.9919H102.291V71.1845H99.9834V70.307H101.923V69.4997H99.9834V68.6661H102.177V67.8675H99.0795L99.1497 71.9919ZM105.02 71.9919C105.334 72.0091 105.647 71.9558 105.937 71.8358C106.227 71.7158 106.487 71.5322 106.696 71.2986L106.126 70.6844C105.986 70.8305 105.819 70.9477 105.634 71.029C105.448 71.1103 105.249 71.1542 105.047 71.1582C104.73 71.1213 104.439 70.9695 104.227 70.7317C104.016 70.4939 103.899 70.1866 103.899 69.8683C103.899 69.5499 104.016 69.2427 104.227 69.0049C104.439 68.7671 104.73 68.6153 105.047 68.5783C105.245 68.5759 105.442 68.6162 105.624 68.6964C105.805 68.7767 105.968 68.895 106.1 69.0434L106.644 68.4116C106.415 68.1355 106.121 67.9198 105.79 67.7835C105.458 67.6471 105.098 67.5941 104.741 67.6292C104.384 67.6644 104.041 67.7865 103.742 67.985C103.443 68.1835 103.197 68.4522 103.026 68.7676C102.856 69.083 102.765 69.4356 102.762 69.7943C102.759 70.153 102.844 70.507 103.009 70.8252C103.175 71.1434 103.416 71.4162 103.712 71.6196C104.007 71.823 104.348 71.9508 104.704 71.9919C104.818 72.0006 104.933 72.0006 105.047 71.9919H105.02ZM109.11 71.9919H109.987V70.7107L110.47 70.2193L111.733 71.9743H112.83L111.075 69.6138L112.742 67.8588H111.654L109.987 69.7279V67.8588H109.11V71.9919ZM113.945 67.8939V68.7714C113.945 70.9915 113.673 71.2898 113.181 71.2898H113.041V72.027C113.201 72.0445 113.363 72.0445 113.523 72.027C114.462 72.027 114.884 71.4215 114.884 68.9995V68.6836H116.016V71.9743H116.893V67.8324L113.945 67.8939ZM117.525 71.9919H118.402L118.78 71.1143H120.535L120.921 71.9919H121.86L120.105 67.8939H119.271L117.525 71.9919ZM119.096 70.2368L119.64 68.8767L120.184 70.2368H119.096ZM124.361 71.9919C124.677 72.0092 124.993 71.9561 125.286 71.8361C125.579 71.7162 125.841 71.5326 126.054 71.2986L125.554 70.7458C125.415 70.8932 125.248 71.0117 125.062 71.0945C124.877 71.1773 124.678 71.2228 124.475 71.2284C124.159 71.1915 123.867 71.0397 123.655 70.8019C123.444 70.5641 123.327 70.2568 123.327 69.9385C123.327 69.6201 123.444 69.3129 123.655 69.0751C123.867 68.8373 124.159 68.6855 124.475 68.6485C124.673 68.6432 124.869 68.6822 125.05 68.7627C125.23 68.8431 125.391 68.9631 125.519 69.1136L126.072 68.4818C125.87 68.2616 125.622 68.0878 125.347 67.9727C125.071 67.8575 124.773 67.8037 124.475 67.8149C123.945 67.8631 123.452 68.1077 123.093 68.5006C122.735 68.8935 122.536 69.4064 122.536 69.9385C122.536 70.4706 122.735 70.9834 123.093 71.3763C123.452 71.7692 123.945 72.0138 124.475 72.0621L124.361 71.9919ZM128.704 71.9919C129.018 72.0091 129.331 71.9558 129.621 71.8358C129.911 71.7158 130.171 71.5322 130.38 71.2986L129.81 70.6844C129.671 70.8313 129.504 70.9489 129.318 71.0303C129.133 71.1117 128.933 71.1552 128.731 71.1582C128.415 71.1213 128.123 70.9695 127.911 70.7317C127.7 70.4939 127.583 70.1866 127.583 69.8683C127.583 69.5499 127.7 69.2427 127.911 69.0049C128.123 68.7671 128.415 68.6153 128.731 68.5783C128.929 68.5747 129.127 68.6145 129.308 68.6948C129.49 68.7751 129.653 68.8941 129.784 69.0434L130.328 68.4116C130.026 68.114 129.648 67.9055 129.235 67.8093C128.823 67.7131 128.391 67.7328 127.989 67.8662C127.587 67.9997 127.229 68.2417 126.956 68.5656C126.683 68.8895 126.504 69.2826 126.44 69.7015C126.397 70.2632 126.577 70.8194 126.942 71.2485C127.307 71.6776 127.827 71.9449 128.388 71.9919C128.502 72.0006 128.617 72.0006 128.731 71.9919H128.704ZM130.749 71.9919H131.679L132.048 71.1143H133.803L134.171 71.9919H135.137L133.382 67.8939H132.504L130.749 71.9919ZM132.372 70.2368L132.925 68.8679L133.469 70.2368H132.372Z" fill="white"/>
<path d="M14.3117 68.8154H0.894531V69.4472H14.3117V68.8154Z" fill="#EDC833"/>
<path d="M14.3205 70.1763H4.62402V70.8081H14.3205V70.1763Z" fill="#EDC833"/>
<path d="M150.423 68.8154H137.006V69.4472H150.423V68.8154Z" fill="#EDC833"/>
<path d="M146.703 70.1753H137.006V70.8071H146.703V70.1753Z" fill="#EDC833"/>
<path d="M83.2578 5.92387C83.2578 5.92387 81.5028 5.15166 80.6253 6.44161C80.4039 6.81653 80.3298 7.26036 80.4174 7.68687C80.505 8.11337 80.748 8.49209 81.0991 8.74947C81.0991 8.74947 82.0469 8.00358 82.4856 8.74947C82.9244 9.49535 81.1167 10.3027 79.3704 10.1096C77.6242 9.91656 76.6238 8.44234 77.2205 7.89828C77.8172 7.35422 78.4227 8.38969 78.4227 8.38969C78.8389 8.2191 79.1775 7.90085 79.3734 7.49598C79.5694 7.09111 79.6089 6.62815 79.4845 6.1959C79.3402 5.74673 79.0417 5.36301 78.6419 5.11252C78.2421 4.86204 77.7667 4.7609 77.2995 4.82698C77.5857 3.96844 77.579 3.03921 77.2804 2.18489C76.9819 1.33056 76.4084 0.599399 75.6498 0.105957C74.9255 0.599835 74.3787 1.31296 74.0896 2.14059C73.8006 2.96822 73.7846 3.86672 74.0439 4.70413C73.5766 4.63625 73.1003 4.73663 72.7001 4.98737C72.2998 5.23811 72.0017 5.62289 71.8589 6.07305C71.7271 6.50886 71.7629 6.97821 71.9594 7.38896C72.1558 7.79972 72.4987 8.12221 72.9207 8.29316C72.9207 8.29316 73.5613 7.27524 74.1229 7.80175C74.6845 8.32826 73.5262 9.75861 71.9554 10.0131C70.3847 10.2676 68.4454 9.3725 68.8578 8.65294C69.2703 7.93338 70.2267 8.65294 70.2267 8.65294C70.5765 8.39429 70.8177 8.01498 70.9037 7.58856C70.9896 7.16214 70.9141 6.719 70.6918 6.34508C69.8143 5.06391 68.0593 5.82735 68.0593 5.82735C68.0667 4.98122 67.7748 4.15969 67.2354 3.50782C66.6959 2.85594 65.9434 2.41563 65.1108 2.26464L68.928 14.2515C73.3593 13.2247 77.9666 13.2247 82.3979 14.2515L86.2063 2.26464C85.3586 2.42153 84.5952 2.87686 84.0543 3.54814C83.5134 4.21941 83.2308 5.06222 83.2578 5.92387Z" fill="#EDC833"/>
<path d="M68.928 14.9538V16.3228C73.3582 15.2872 77.9676 15.2872 82.3978 16.3228V14.9538C77.9656 13.936 73.3602 13.936 68.928 14.9538Z" fill="#EDC833"/>
<path d="M134.777 26.3439C135.461 26.146 136.179 26.0937 136.885 26.1905C137.591 26.2872 138.269 26.5308 138.875 26.9055C139.374 27.1195 139.834 27.4162 140.235 27.783C139.83 28.1446 139.371 28.4407 138.875 28.6605C138.268 29.0338 137.59 29.2759 136.884 29.3711C136.178 29.4663 135.46 29.4126 134.777 29.2134C135.212 29.9739 135.746 30.6732 136.365 31.2931C135.638 31.241 134.928 31.0567 134.268 30.749C133.946 30.5846 133.679 30.3324 133.495 30.0217C133.312 29.711 133.221 29.3546 133.232 28.994V26.5896C133.221 26.229 133.312 25.8726 133.495 25.5619C133.679 25.2512 133.946 24.999 134.268 24.8346C134.921 24.5098 135.636 24.3245 136.365 24.2905C135.746 24.9042 135.212 25.5977 134.777 26.3527" fill="white"/>
<path d="M16.6022 26.3439C15.9175 26.1482 15.1996 26.097 14.4941 26.1937C13.7886 26.2904 13.1109 26.5328 12.5042 26.9055C12.0031 27.1215 11.5407 27.4179 11.1353 27.783C11.5448 28.1428 12.0063 28.4386 12.5042 28.6605C13.1116 29.0318 13.7896 29.2727 14.495 29.3678C15.2005 29.463 15.9181 29.4104 16.6022 29.2134C16.1611 29.9722 15.6244 30.6712 15.0051 31.2931C15.7285 31.2398 16.4361 31.0554 17.0936 30.749C17.4135 30.5847 17.6795 30.3319 17.8599 30.0208C18.0404 29.7097 18.1277 29.3533 18.1115 28.994V26.5896C18.1277 26.2303 18.0404 25.8739 17.8599 25.5628C17.6795 25.2517 17.4135 24.9989 17.0936 24.8346C16.4424 24.511 15.7313 24.3257 15.0051 24.2905C15.6132 24.9092 16.1409 25.6021 16.5758 26.3527" fill="white"/>
</g>
<defs>
<clipPath id="clip0_218_282">
<rect width="151.239" height="72" fill="white" transform="translate(0 0.105957)"/>
</clipPath>
</defs>
</svg>
