<svg width="115" height="99" viewBox="0 0 115 99" fill="none" xmlns="http://www.w3.org/2000/svg">
<g opacity="0.7" clip-path="url(#clip0_218_301)">
<path d="M65.8905 3.4165C70.178 4.95159 74.0372 7.48795 77.1472 10.8147C78.2249 11.9266 79.1863 13.1455 80.0166 14.4525C78.3657 13.9738 76.6587 13.7154 74.94 13.6841L74.4986 13.2427C72.2135 10.791 69.4766 8.8036 66.4382 7.38948C66.3877 6.31885 66.2785 5.25179 66.1112 4.19311L65.8905 3.4165ZM82.4445 45.0673C81.1266 48.0577 79.3382 50.8176 77.1472 53.2422C72.5075 58.4343 65.9996 61.5765 59.0483 61.981C52.097 62.3855 45.2685 60.0193 40.058 55.4003C39.2681 54.7208 38.5303 53.983 37.8508 53.1931C35.6598 50.7685 33.8714 48.0086 32.5535 45.0183C34.2306 45.8673 35.962 46.6046 37.7363 47.2255C38.5336 48.5067 39.4623 49.7013 40.5076 50.7897C44.5177 55.2882 50.1436 58.0189 56.1588 58.3864C62.1739 58.754 68.0905 56.7285 72.6184 52.7517L74.6049 50.7897C75.6467 49.6709 76.5725 48.4493 77.368 47.1437C79.0968 46.5449 80.7916 45.8517 82.4445 45.0673ZM34.8751 14.567C35.7439 13.2851 36.7028 12.0667 37.7445 10.921C40.8429 7.46792 44.7873 4.8815 49.1893 3.4165L48.9686 3.97239C48.6492 5.11351 48.4384 6.28226 48.3391 7.46305C45.2936 8.80702 42.5518 10.7536 40.2787 13.1854L39.8454 13.6269C38.1571 13.7019 36.486 13.9988 34.8751 14.5098" fill="#C09B6A"/>
<path fill-rule="evenodd" clip-rule="evenodd" d="M57.3879 19.3087L56.4069 19.0879C47.1367 16.7663 35.1033 13.3656 28.0402 22.3988C24.0673 27.5898 24.288 34.9798 30.3537 40.2771C33.6727 43.1465 39.0763 44.6915 43.1637 46.1303C42.418 44.505 41.1834 43.1532 39.6322 42.2636C50.4475 42.1573 46.8015 30.5654 50.333 26.151C48.7207 26.6016 47.2202 27.3841 45.9279 28.4483C44.6356 29.5126 43.5799 30.8351 42.8285 32.3312C40.9401 26.4862 33.3294 27.696 33.5174 33.2141C36.166 32.0042 37.4904 33.1078 37.9318 34.4321C39.0354 37.9637 34.294 40.833 31.0895 35.8627C26.7895 29.0204 37.3841 14.1258 41.2426 25.6033C41.8209 24.7052 42.0841 23.6404 41.9909 22.5763C41.8976 21.5122 41.4532 20.5094 40.7276 19.7256C43.3762 19.2841 48.2321 20.8292 50.7663 23.3716C55.6222 28.0067 54.8537 48.5337 46.0249 48.5337V50.6265H68.6692V48.5582C59.8404 48.5582 59.0719 28.0312 63.9278 23.3961C66.5764 20.9436 71.2852 19.3087 74.081 19.7501C73.3326 20.5149 72.8691 21.5132 72.768 22.5784C72.6668 23.6436 72.934 24.7113 73.5251 25.6033C77.3918 14.1585 87.9864 29.0204 83.6782 35.8627C80.4573 40.9802 75.7077 38.0699 76.844 34.4403C77.2855 33.0015 78.6098 31.8979 81.2585 33.2222C81.5936 27.5979 73.9011 26.4943 71.9882 32.3394C71.2247 30.8521 70.1651 29.5366 68.8746 28.4738C67.584 27.411 66.0898 26.6233 64.4837 26.1592C68.0152 30.5736 64.3774 42.1655 75.1927 42.2718C73.6394 43.1588 72.4041 44.5114 71.6612 46.1385C75.7486 44.6997 81.2585 43.1547 84.463 40.2853C90.5287 34.988 90.8639 27.598 86.7765 22.4069C79.7134 13.3574 67.6882 16.7745 58.418 19.0961L57.3879 19.3087ZM57.3879 0.105957C55.9744 1.72537 54.9558 3.65059 54.4123 5.73025C53.5667 5.30815 52.6789 4.97659 51.7636 4.74109C50.66 8.60779 50.3249 12.2456 57.486 15.0087C61.2383 13.9051 64.6554 12.2456 63.2084 4.74109C62.2648 5.09786 61.3563 5.54119 60.4944 6.06542C60.0062 3.83841 58.934 1.7815 57.3879 0.105957" fill="white"/>
<path d="M15.6721 72.8622H13.3587V72.6169C13.3587 71.9547 13.8001 71.5133 14.7893 71.5133V69.9683H7.06404V71.5133C8.06137 71.5133 8.50281 71.9547 8.50281 72.6169V72.8622H6.28743C2.20818 72.8622 0.000976562 75.0448 0.000976562 78.6826C0.000976562 82.3204 2.20818 84.5358 6.28743 84.5358H8.50281V84.7566C8.50281 85.4187 8.06137 85.8602 7.06404 85.8602V87.4052H9.59824C9.84365 87.4251 10.0895 87.3731 10.3059 87.2555C10.5222 87.1379 10.6995 86.9598 10.8163 86.743C10.9423 86.9497 11.1204 87.1197 11.3327 87.2359C11.545 87.3521 11.7842 87.4105 12.0262 87.4052H14.5685V85.8602C13.5794 85.8602 13.1379 85.4187 13.1379 84.7566V84.5358H15.4514C19.4244 84.5358 21.6316 82.3286 21.6316 78.6826C21.6316 75.0367 19.6206 72.8622 15.6721 72.8622ZM2.20818 78.6826C2.28117 77.766 2.5685 76.8793 3.04703 76.0941C3.52556 75.3088 4.18188 74.647 4.96311 74.162C3.64696 75.4863 2.76407 76.6144 2.76407 78.6826C2.76407 80.7509 3.75323 81.8872 4.96311 83.2115C4.17269 82.7348 3.50932 82.0739 3.02961 81.2853C2.54989 80.4967 2.26807 79.6038 2.20818 78.6826ZM8.50281 82.5493C7.99906 82.5217 7.50601 82.393 7.05304 82.1708C6.60006 81.9487 6.19642 81.6377 5.86614 81.2563C5.53586 80.8749 5.28571 80.431 5.13057 79.9509C4.97543 79.4708 4.91848 78.9645 4.96311 78.4619C5.028 77.5454 5.42199 76.6831 6.07248 76.0341C6.72296 75.3852 7.5861 74.9932 8.50281 74.9304V82.5493ZM10.9553 84.8628L10.7345 78.6826L10.9553 73.3853L11.176 78.6826L10.9553 84.8628ZM13.4077 82.5493V74.9304C13.9104 74.959 14.4023 75.0885 14.8539 75.3113C15.3055 75.534 15.7077 75.8453 16.0365 76.2267C16.3652 76.6081 16.6139 77.0518 16.7676 77.5313C16.9213 78.0108 16.9769 78.5164 16.9311 79.0178C16.87 79.933 16.4794 80.795 15.8316 81.4443C15.1838 82.0936 14.3227 82.4861 13.4077 82.5493ZM16.9311 83.2115C18.2636 81.8872 19.2527 80.7591 19.2527 78.6826C19.2527 76.6062 18.2636 75.4863 16.9311 74.162C17.5235 74.4384 18.0547 74.8304 18.4934 75.315C18.9322 75.7997 19.2696 76.3671 19.4859 76.984C19.7022 77.6009 19.793 78.2548 19.753 78.9073C19.7129 79.5598 19.5428 80.1978 19.2527 80.7836C18.8232 81.8694 17.9917 82.7477 16.9311 83.236V83.2115ZM34.1064 70.8511H25.719V72.3962C26.7082 72.3962 27.0352 72.8376 27.0352 73.4998V83.9799C27.0352 84.6421 26.5937 85.0835 25.719 85.0835V86.6286H28.2532C28.4986 86.6485 28.7445 86.5965 28.9608 86.4789C29.1772 86.3613 29.3545 86.1832 29.4713 85.9664C29.5678 86.1978 29.7401 86.3894 29.96 86.5098C30.1799 86.6301 30.4343 86.672 30.6812 86.6286H33.2235V85.1244C32.2262 85.1244 31.7848 84.683 31.7848 84.0208V80.4484H33.992C37.1883 80.4484 39.2893 78.6826 39.2893 75.5926C39.2893 72.5025 37.3028 70.8511 34.1064 70.8511ZM29.4713 83.9799L29.2506 78.6826L29.4713 73.3853L29.692 78.6826L29.4713 83.9799ZM31.9237 78.7971V72.5025C32.7193 72.5598 33.4636 72.9163 34.0069 73.5003C34.5502 74.0842 34.8522 74.8522 34.8522 75.6498C34.8522 76.4474 34.5502 77.2154 34.0069 77.7993C33.4636 78.3832 32.7193 78.7397 31.9237 78.7971ZM35.4634 79.0178C35.9107 78.6536 36.2797 78.2028 36.5485 77.6924C36.8173 77.1821 36.9802 76.6227 37.0275 76.0479C37.0748 75.4731 37.0056 74.8946 36.8239 74.3472C36.6423 73.7997 36.3519 73.2946 35.9703 72.8622C35.7496 72.6414 35.6433 72.4207 35.4226 72.3063C35.8718 72.5236 36.2738 72.8275 36.6053 73.2005C36.9369 73.5734 37.1917 74.0082 37.355 74.4798C37.5182 74.9514 37.5868 75.4506 37.5568 75.9487C37.5268 76.4469 37.3988 76.9342 37.1802 77.3828C36.7921 78.1079 36.1737 78.6831 35.4226 79.0178H35.4634ZM53.4072 70.843V72.388C55.3937 72.388 56.2766 73.2709 55.3937 75.0367C54.7315 76.4673 54.5108 76.8024 53.0802 79.3366C51.5352 76.8024 49.655 73.8186 49.4342 73.4916C49.1073 72.8295 49.5487 72.388 50.4316 72.388V70.8511H42.8208V72.3962C43.7037 72.3962 44.0389 72.9439 44.8073 74.162C45.4694 75.0448 50.5297 82.5493 50.9875 82.9908C50.546 83.9799 49.3525 85.9664 47.7911 85.3043C48.0923 85.2484 48.3614 85.081 48.5447 84.8356C48.728 84.5901 48.8121 84.2846 48.7803 83.9799C48.759 83.5303 48.5621 83.1071 48.2318 82.8013C47.9015 82.4955 47.4644 82.3316 47.0145 82.345C46.789 82.3269 46.5623 82.3558 46.3486 82.4298C46.1349 82.5038 45.9388 82.6214 45.7729 82.775C45.6069 82.9287 45.4747 83.1151 45.3844 83.3225C45.2942 83.5299 45.248 83.7538 45.2487 83.9799C45.028 85.6149 46.8837 86.8493 48.7803 86.8493C49.4677 86.8468 50.1403 86.6487 50.7194 86.2781C51.2984 85.9075 51.76 85.3798 52.0502 84.7566C52.7124 83.7592 57.5682 74.6034 58.0097 73.8268C58.2306 73.3638 58.5783 72.9729 59.0124 72.6995C59.4464 72.426 59.9491 72.2812 60.4621 72.2817V70.7367H53.4154L53.4072 70.843ZM48.9928 77.0231L46.6793 73.0502L49.4342 76.8024L51.8867 80.8899L48.9928 77.0231ZM79.4604 72.3962V70.8511H71.9396V72.3962C72.9369 72.3962 73.2639 72.8376 73.2639 73.4998V77.9142H69.528V73.4998C69.528 72.8376 69.9694 72.3962 70.9668 72.3962V70.8511H63.3478V72.3962C64.2307 72.3962 64.6721 72.8376 64.6721 73.4998V83.9799C64.6721 84.6421 64.2307 85.0835 63.3478 85.0835V86.6286H65.8902C66.1343 86.6469 66.3784 86.5941 66.5931 86.4765C66.8078 86.359 66.9839 86.1819 67.1001 85.9664C67.1981 86.1985 67.372 86.3903 67.5933 86.5106C67.8145 86.6309 68.0701 86.6725 68.3181 86.6286H70.8523V85.1244C69.8632 85.1244 69.4217 84.683 69.4217 84.0208V79.5655H73.0595V83.9799C73.0595 84.6421 72.6181 85.0835 71.7352 85.0835V86.6286H74.2776C74.5217 86.6469 74.7658 86.5941 74.9805 86.4765C75.1952 86.359 75.3713 86.1819 75.4875 85.9664C75.5953 86.1907 75.771 86.3753 75.9896 86.4942C76.2082 86.613 76.4587 86.66 76.7055 86.6286H79.4604V85.1244C78.4713 85.1244 78.0298 84.683 78.0298 84.0208V73.4998C78.05 73.3328 78.1031 73.1715 78.1862 73.0253C78.2693 72.8791 78.3807 72.7509 78.5139 72.6482C78.647 72.5455 78.7993 72.4703 78.9618 72.427C79.1243 72.3838 79.2938 72.3733 79.4604 72.3962ZM67.1982 83.9799L67.0347 78.6826L67.2554 73.3853L67.4761 78.6826L67.1982 83.9799ZM75.6918 83.9799L75.4711 78.6826L75.6918 73.3853L76.027 78.6826L75.6918 83.9799ZM93.9054 78.3557C94.6958 78.2442 95.4201 77.8529 95.9466 77.2529C96.4731 76.6529 96.7669 75.8839 96.7748 75.0857C96.7748 71.8158 94.7883 70.6713 89.491 70.6713C87.7253 70.7769 85.9807 71.1093 84.2999 71.6605V76.0749H85.2973C85.2973 73.6224 85.845 72.3226 88.4936 72.3226C90.7009 72.3226 91.6982 72.9848 91.6982 75.0857C91.6982 76.5163 90.8153 77.6199 88.4282 77.7344H86.9895V79.3693H88.2893C90.7417 79.4838 91.9352 80.9144 91.9352 82.3531C91.9352 84.8056 90.7172 85.7702 88.51 85.7702C85.8613 85.7702 85.3136 84.4459 85.3136 82.018H84.3163V86.4324C85.9574 86.986 87.6643 87.3213 89.3929 87.4297C94.9109 87.4297 97.3388 86.4324 97.3388 82.4594C97.3952 81.9644 97.3505 81.4632 97.2074 80.986C97.0642 80.5088 96.8257 80.0657 96.5061 79.6835C96.1866 79.3013 95.7928 78.988 95.3485 78.7625C94.9043 78.5371 94.4189 78.4042 93.9217 78.372L93.9054 78.3557ZM92.5974 71.7504C92.9819 71.8541 93.341 72.0358 93.6523 72.2842C93.9635 72.5327 94.2203 72.8425 94.4066 73.1945C94.593 73.5465 94.7049 73.933 94.7354 74.3301C94.7659 74.7272 94.7143 75.1263 94.5839 75.5026C94.44 75.9707 94.1838 76.3965 93.8375 76.7428C93.4913 77.089 93.0655 77.3453 92.5974 77.4891C92.984 77.2518 93.3197 76.9401 93.5849 76.572C93.85 76.204 94.0395 75.7869 94.1421 75.345C94.2448 74.9032 94.2587 74.4453 94.183 73.998C94.1072 73.5508 93.9434 73.123 93.701 72.7395C93.3854 72.3558 93.0133 72.0223 92.5974 71.7504ZM92.9244 85.4351C93.4394 85.1038 93.8604 84.6455 94.1468 84.1042C94.4331 83.563 94.5752 82.9571 94.5594 82.345C94.5533 81.7368 94.4017 81.1389 94.1173 80.6013C93.8328 80.0637 93.4238 79.602 92.9244 79.2549C93.5669 79.4773 94.1241 79.8944 94.5185 80.4482C94.9129 81.0021 95.1248 81.6651 95.1248 82.345C95.1248 83.0249 94.9129 83.6879 94.5185 84.2417C94.1241 84.7956 93.5669 85.2127 92.9244 85.4351ZM111.359 72.4125C113.124 72.4125 113.893 74.1783 113.893 75.6089H114.776V70.7367H102.088V72.2817C103.078 72.2817 103.519 72.7232 103.519 73.3853V84.0126C103.519 84.6748 103.078 85.1162 102.088 85.1162V86.6613H114.776V81.7727H113.787C113.787 83.2115 113.01 84.9773 111.244 84.9773H108.269V79.3448C108.53 79.3265 108.792 79.3656 109.037 79.4593C110.672 79.68 111.138 81.225 111.138 82.3286H112.127V75.1511H111.179C111.265 75.8078 111.094 76.4724 110.703 77.0067C110.312 77.5411 109.73 77.9041 109.078 78.0205L108.309 78.1349V72.5025L111.359 72.4125ZM105.841 83.9963L105.62 78.699L105.841 73.4017L106.061 78.699L105.841 83.9963Z" fill="white"/>
<path d="M14.0215 96.7817H13.2449C13.2449 96.7817 13.3593 96.561 14.1277 94.5745C14.4629 95.392 14.7899 96.1195 15.0106 96.7817C15.0106 96.8962 15.0106 96.8962 14.8962 96.8962L14.0215 96.7817ZM15.6564 97.3376C16.5393 97.3376 16.9808 97.3376 16.9808 97.8853C16.9808 97.9998 16.9808 97.9998 17.0952 97.9998C17.2097 97.9998 17.2015 97.9998 17.2015 97.8853C17.1828 97.5515 17.2215 97.2169 17.3159 96.8962V96.7817H16.6456C16.5393 96.7817 16.5393 96.7817 16.5393 96.6754C15.9834 95.5718 14.9943 93.2502 14.7735 92.8087C14.7697 92.7515 14.7452 92.6975 14.7046 92.6569C14.664 92.6163 14.6101 92.5918 14.5528 92.588C14.4466 92.588 14.4466 92.7025 14.3321 93.0295L12.7871 96.6754C12.7871 96.7036 12.7759 96.7307 12.7559 96.7506C12.736 96.7705 12.709 96.7817 12.6808 96.7817H12.1249C12.1102 96.7817 12.0957 96.7847 12.0822 96.7905C12.0688 96.7963 12.0567 96.8049 12.0467 96.8157C12.0367 96.8264 12.0291 96.8391 12.0242 96.853C12.0194 96.8668 12.0175 96.8815 12.0186 96.8962V97.8853C12.0186 97.9998 12.0186 98.106 12.1249 98.106C12.2312 98.106 12.2393 98.106 12.2393 97.9998C12.2393 97.5583 12.3456 97.4439 13.6699 97.4439L15.6564 97.3376ZM20.0708 97.4439C20.3976 97.4706 20.7264 97.4315 21.0378 97.3289C21.3493 97.2263 21.6369 97.0623 21.8839 96.8466C22.1308 96.6309 22.332 96.3679 22.4755 96.0731C22.619 95.7784 22.702 95.4578 22.7195 95.1304V94.7952C22.6835 94.1548 22.3981 93.5539 21.9244 93.1215C21.4506 92.689 20.8263 92.4594 20.1853 92.4817H20.0708C19.4406 92.422 18.8117 92.6082 18.3156 93.0015C17.8196 93.3947 17.4948 93.9646 17.4093 94.5919C17.3237 95.2191 17.484 95.8551 17.8567 96.3669C18.2294 96.8786 18.7855 97.2265 19.4087 97.3376C19.622 97.4094 19.8458 97.4453 20.0708 97.4439ZM20.2916 97.0024C19.188 97.0024 18.7465 95.8988 18.7465 94.6889C18.7465 93.2502 19.4087 92.9232 19.9646 92.9232C21.1744 92.9232 21.5014 94.1331 21.5014 95.1304C21.3952 96.8962 20.6186 97.0024 20.2916 97.0024ZM28.7934 92.915C28.7934 92.6943 28.679 92.6943 28.679 92.6943L28.4582 92.915L26.6925 95.7844L24.8204 92.915C24.706 92.6943 24.5997 92.6943 24.5997 92.6943C24.5371 92.7524 24.4966 92.8304 24.4853 92.915L23.9375 96.6673C23.8231 97.1087 23.8231 97.215 23.6024 97.3294H23.3817C23.1609 97.215 23.1609 97.215 23.1609 97.3294C23.1609 97.4439 23.2754 97.4357 23.2754 97.4357H24.9103C25.0248 97.4357 25.0248 97.4357 25.0248 97.3294C25.0248 97.2232 25.0248 97.215 24.9103 97.215H24.6896C24.4689 97.215 24.4689 97.1087 24.4689 96.888V96.3321L24.5834 94.787C24.752 95.0474 24.8996 95.3207 25.0248 95.6045C25.3518 96.046 25.6788 96.7081 25.8995 97.0351C26.1202 97.3621 26.1202 97.3703 26.2347 97.3703C26.3491 97.3703 26.3409 97.3703 26.5617 97.0351L27.8942 94.7216L28.1149 96.8144C28.1149 97.1496 28.1149 97.1496 28.0004 97.1496C27.886 97.1496 27.8942 97.1496 28.0004 97.2558C28.0004 97.2862 28.0125 97.3153 28.034 97.3368C28.0554 97.3582 28.0845 97.3703 28.1149 97.3703H29.9869C30.1014 97.3703 30.1014 97.3703 30.1014 97.2558C30.1014 97.1414 30.1014 97.1496 29.9869 97.1496H29.6599C29.4392 97.1496 29.3248 96.9289 29.3248 96.4874L28.7934 92.915ZM35.1943 93.1357H36.1835V96.7735C36.1835 96.9943 36.0772 97.1087 35.9627 97.1087H35.742C35.6357 97.1087 35.6357 97.1087 35.6357 97.215C35.6357 97.3212 35.6357 97.3294 35.742 97.3294H37.9492C38.0637 97.3294 38.0637 97.3294 38.0637 97.215C38.0637 97.1005 38.0637 97.1087 37.9492 97.1087H37.7285C37.5078 97.1087 37.5078 96.9943 37.5078 96.7735V93.0213C37.5078 92.8006 37.5078 92.8006 37.6222 92.8006H37.8429C37.9492 92.8006 37.9492 92.8006 37.9492 92.6943C37.9492 92.588 37.9492 92.5798 37.8429 92.5798H32.701C32.5947 92.5798 32.5947 92.5798 32.5947 92.6943C32.5947 92.8087 32.5947 92.8006 32.701 92.8006H32.9217C33.0361 92.8006 33.2569 92.915 33.1424 93.1357V96.888C33.1424 97.1087 33.0361 97.215 32.9217 97.215H32.701C32.5947 97.215 32.5947 97.215 32.5947 97.3294C32.5947 97.4439 32.5947 97.4357 32.701 97.4357H34.9082C35.0226 97.4357 35.0226 97.4357 35.0226 97.3294C35.0226 97.2232 35.0226 97.215 34.9082 97.215H34.6875C34.6429 97.222 34.5974 97.2183 34.5545 97.2044C34.5116 97.1904 34.4727 97.1665 34.4408 97.1346C34.4089 97.1028 34.385 97.0638 34.3711 97.0209C34.3571 96.9781 34.3535 96.9325 34.3605 96.888V93.242L35.1943 93.1357ZM39.388 95.5882V96.9125C39.388 97.1332 39.2735 97.2395 39.1673 97.2395H38.9466C38.8321 97.2395 38.8321 97.2395 38.8321 97.3539C38.8321 97.4684 38.8321 97.4602 38.9466 97.4602H41.1538C41.26 97.4602 41.26 97.4602 41.26 97.3539C41.26 97.2477 41.26 97.2395 41.1538 97.2395H40.8758C40.6551 97.2395 40.6551 97.0188 40.6551 96.9125V93.2665C40.6551 93.1603 40.6551 93.1603 40.7695 93.0458H40.8758C41.0811 93.0525 41.2777 93.1305 41.4317 93.2665C41.6383 93.5586 41.7523 93.9061 41.7587 94.2639C41.7587 94.8116 41.538 95.1467 40.9903 95.1467C40.8758 95.1467 40.8758 95.1467 40.8758 95.253C40.8758 95.3593 40.8758 95.3675 40.9903 95.3675H41.211C42.0939 95.3675 43.083 94.926 43.083 93.9287C43.0923 93.6032 42.9751 93.2867 42.756 93.0458C42.2879 92.6943 41.7025 92.5362 41.1211 92.6044H38.9629C38.8485 92.6044 38.8485 92.6044 38.8485 92.7188C38.8485 92.8333 38.8485 92.7188 38.9629 92.8251H39.1836C39.4043 92.8251 39.4043 92.9395 39.4043 93.1603V95.6127L39.388 95.5882ZM44.0231 95.5882V96.4711C44.0231 96.9125 44.0231 97.1332 43.8024 97.2395H43.5817C43.4672 97.2395 43.4672 97.2395 43.4672 97.3539C43.4672 97.4684 43.4672 97.4602 43.5817 97.4602H46.6718C46.8925 97.4602 46.9988 97.4602 46.9988 97.2395C47.0933 96.9553 47.1322 96.6555 47.1132 96.3566C47.1132 96.2503 47.1132 96.2503 46.9988 96.2503C46.8843 96.2503 46.8925 96.2503 46.8925 96.3566C46.778 96.6918 46.778 96.7981 46.5573 96.9125C46.3728 96.9369 46.1899 96.9724 46.0096 97.0188C45.233 97.0188 45.233 96.9125 45.233 96.4711V95.253H46.1159C46.4511 95.253 46.5573 95.3675 46.5573 95.5882V95.6945C46.5573 95.7248 46.5694 95.7539 46.5909 95.7754C46.6123 95.7968 46.6414 95.8089 46.6718 95.8089C46.778 95.8089 46.7781 95.8089 46.7781 95.6945V94.4846L46.6718 94.5909C46.5573 94.7053 46.5573 94.7053 46.1159 94.8116H45.2494V93.2665H46.2467C46.5737 93.2665 46.5737 93.381 46.6881 93.4873V93.708C46.6881 93.8224 46.6881 93.8224 46.7944 93.8224C46.8248 93.8224 46.8539 93.8104 46.8753 93.7889C46.8968 93.7674 46.9088 93.7383 46.9088 93.708V92.6044H43.7043C43.598 92.6044 43.598 92.6044 43.598 92.7188C43.598 92.8333 43.598 92.8251 43.7043 92.8251H43.925C44.0395 92.8251 44.1458 92.9395 44.1458 93.1603V94.4846L44.0231 95.5882ZM53.179 92.9395C53.179 92.7188 53.179 92.7188 53.0727 92.7188C52.9664 92.7188 52.9582 92.7188 52.852 92.8251L51.0862 95.6945L49.206 92.8251C49.0997 92.6044 48.9853 92.6044 48.9853 92.6044C48.9281 92.6653 48.891 92.7424 48.879 92.8251L48.3394 96.5692C48.2332 97.0106 48.2332 97.1251 48.0125 97.2313H47.7917C47.6773 97.2313 47.6773 97.2313 47.6773 97.3458C47.6773 97.4602 47.7917 97.452 47.7917 97.452H49.4267C49.5411 97.452 49.5411 97.452 49.5411 97.3458C49.5411 97.2395 49.5411 97.2313 49.4267 97.2313H49.206C48.9853 97.2313 48.9853 97.1251 48.9853 96.9043V96.3484L49.0997 94.8034C49.2684 95.0637 49.416 95.3371 49.5411 95.6209C49.8681 96.0623 50.2033 96.7245 50.424 97.0515C50.6448 97.3785 50.6448 97.3866 50.751 97.3866C50.8573 97.3866 50.8655 97.3866 50.9717 97.0515L52.3206 94.6889L52.5413 96.7817C52.5413 97.1169 52.5413 97.1169 52.435 97.1169C52.3288 97.1169 52.3206 97.1169 52.435 97.2232C52.5495 97.3294 52.435 97.3376 52.5413 97.3376H54.4215C54.5278 97.3376 54.5278 97.3376 54.5278 97.2232C54.5278 97.1087 54.5278 97.1169 54.4215 97.1169H54.0864C53.8656 97.1169 53.7594 96.8962 53.7594 96.4547L53.179 92.9395ZM56.4898 93.6017C56.4898 93.1603 56.4898 92.9395 56.8249 92.9395H57.0457C57.1519 92.9395 57.1519 92.9395 57.1519 92.8251C57.1519 92.7106 57.1519 92.7188 57.0457 92.7188H54.8548C54.7403 92.7188 54.7403 92.7188 54.7403 92.8251C54.7403 92.9314 54.7403 92.9395 54.8548 92.9395H54.9611C55.2962 92.9395 55.1818 93.1603 55.1818 93.708V97.3539C55.1818 97.5747 55.1818 97.5747 55.2962 97.5747C55.4107 97.5747 55.4025 97.5747 55.6232 97.3539L57.8304 95.1467C58.0221 94.8644 58.2442 94.604 58.4926 94.3701V96.8226C58.4926 97.264 58.4926 97.3785 58.1656 97.3785H57.9449C57.8304 97.3785 57.8304 97.3785 57.8304 97.4847C57.8304 97.591 57.8304 97.5992 57.9449 97.5992H60.2584C60.3728 97.5992 60.3728 97.5992 60.3728 97.4847C60.3728 97.3703 60.3728 97.3785 60.2584 97.3785H60.0376C59.8169 97.3785 59.8169 97.264 59.7107 96.937V93.2911C59.7107 92.9641 59.7107 92.8496 59.5962 92.8496C59.4818 92.8496 59.3755 92.9641 58.934 93.4055C58.4926 93.8469 58.3863 94.0677 58.0512 94.3947L56.5061 96.0296L56.4898 93.6017ZM61.4601 97.3539H63.0051C63.1114 97.3539 63.1114 97.3539 63.0051 97.2395C63.0947 96.9755 63.204 96.7186 63.3321 96.4711C63.6673 95.8089 64.4357 94.0186 64.8772 93.381C65.0979 93.0458 65.2123 92.9395 65.433 92.9395H65.6538C65.76 92.9395 65.76 92.9395 65.76 92.8251C65.76 92.7106 65.76 92.8251 65.6538 92.8251H64.3458C64.2313 92.8251 64.2313 92.8251 64.2313 92.9395C64.2313 93.054 64.2313 93.0458 64.3458 93.0458C64.4602 93.0458 64.4521 93.0458 64.4521 93.1603C64.4592 93.2192 64.4533 93.279 64.435 93.3355C64.4166 93.3919 64.3862 93.4437 64.3458 93.4873C64.0478 94.0579 63.7884 94.6478 63.5692 95.253C63.4629 95.0323 62.58 93.4872 62.58 93.381C62.58 93.2747 62.4656 93.2665 62.4656 93.1603C62.4656 93.054 62.4656 93.0458 62.6863 93.0458C62.907 93.0458 62.8007 92.9395 62.8007 92.9395C62.8007 92.9092 62.7887 92.8801 62.7672 92.8586C62.7458 92.8371 62.7166 92.8251 62.6863 92.8251H60.5935C60.4791 92.8251 60.4791 92.8251 60.4791 92.9395C60.4791 93.054 60.4791 93.0458 60.5935 93.0458C60.9205 93.0458 61.035 93.1603 61.2557 93.6017C61.4764 94.0431 62.58 95.6945 62.8907 96.3566V96.5692C62.7844 96.6836 62.7844 96.7899 62.6699 97.0106C62.5789 97.2168 62.419 97.3849 62.2177 97.4863C62.0165 97.5877 61.7862 97.616 61.5663 97.5665C61.4601 97.5665 61.4601 97.5665 61.4601 97.6728C61.4601 97.779 61.3456 97.452 61.4601 97.3458V97.3539ZM70.7303 92.9314C70.7303 92.7106 70.7303 92.7106 70.6159 92.7106C70.5014 92.7106 70.5096 92.8169 70.3952 92.9314L68.6703 95.7926L66.7982 92.9232C66.6838 92.7025 66.5775 92.7025 66.5775 92.7025C66.5149 92.7605 66.4744 92.8386 66.4631 92.9232L65.9154 96.6754C65.8009 97.1169 65.8009 97.2232 65.5802 97.3376H65.3595C65.1387 97.2232 65.1387 97.2232 65.1387 97.3376C65.1387 97.452 65.1387 97.4439 65.2532 97.4439H66.8882C67.0026 97.4439 67.0026 97.4439 67.0026 97.3376C67.0026 97.2313 67.0026 97.2232 66.8882 97.2232H66.6674C66.4467 97.2232 66.4467 97.1169 66.4467 96.8962V96.3403L66.6674 94.7952C66.8427 95.0516 66.9907 95.3255 67.1089 95.6127C67.444 96.0542 67.771 96.7163 67.9918 97.0433C68.2125 97.3703 68.2125 97.3785 68.3269 97.3785C68.4414 97.3785 68.4332 97.3785 68.5477 97.0433L69.872 94.7298L70.0927 96.8226C70.0927 97.1578 70.0927 97.1578 69.9782 97.1578C69.8638 97.1578 69.872 97.1578 69.872 97.264C69.872 97.3703 69.872 97.3785 69.9782 97.3785H71.8585C71.9647 97.3785 71.9647 97.3785 71.9647 97.264C71.9647 97.1496 71.9647 97.1578 71.8585 97.1578H71.5233C71.3026 97.1578 71.1963 96.937 71.1963 96.4956L70.7303 92.9314ZM76.1339 94.4764V93.2584C76.1339 93.0376 76.1339 92.9314 76.3546 92.9314H76.4691C76.5753 92.9314 76.5753 92.9314 76.5753 92.8169C76.5753 92.7025 76.5753 92.7106 76.4691 92.7106H74.3927C74.2864 92.7106 74.1719 92.7106 74.1719 92.8169C74.1719 92.8473 74.184 92.8764 74.2055 92.8978C74.2269 92.9193 74.256 92.9314 74.2864 92.9314H74.5071C74.7278 92.9314 74.7278 93.0376 74.7278 93.2584V97.0106C74.7278 97.3458 74.7278 97.3458 74.5071 97.3458H74.3927C74.2864 97.3458 74.2864 97.3458 74.2864 97.452C74.2864 97.5583 74.2864 97.5665 74.3927 97.5665H76.5999C76.7143 97.5665 76.7143 97.5665 76.7143 97.452C76.7143 97.3376 76.7143 97.3458 76.5999 97.3458H76.3792C76.3342 97.3513 76.2885 97.3464 76.2458 97.3313C76.203 97.3163 76.1643 97.2916 76.1326 97.2592C76.101 97.2267 76.0773 97.1874 76.0633 97.1443C76.0493 97.1012 76.0455 97.0554 76.0522 97.0106V95.1386C76.4667 95.8078 76.9459 96.4348 77.4828 97.0106C77.8179 97.3458 78.1449 97.452 79.0278 97.452H79.69C79.8044 97.452 79.8044 97.452 79.8044 97.3458C79.8044 97.2395 79.8044 97.2313 79.69 97.2313C79.631 97.2384 79.5712 97.2326 79.5147 97.2142C79.4583 97.1959 79.4065 97.1655 79.363 97.1251C79.1283 96.9967 78.9354 96.8038 78.8071 96.5692C78.1623 95.921 77.5717 95.2211 77.0413 94.4764C77.3821 94.0824 77.7509 93.7136 78.1449 93.3728C78.3969 93.1275 78.6977 92.9381 79.0278 92.8169H77.589L77.6953 92.9314L77.916 93.0376C77.8301 93.2005 77.7198 93.3494 77.589 93.4791C77.137 93.9907 76.6567 94.4765 76.1503 94.9342L76.1339 94.4764ZM84.2025 96.5692C83.761 95.6863 82.6574 93.2992 82.5675 92.9314C82.4776 92.5635 82.3468 92.5962 82.3468 92.5962C82.2281 92.7359 82.1189 92.8834 82.0198 93.0376L80.254 96.6836C80.0333 97.1251 79.9189 97.2313 79.5919 97.2313C79.4774 97.2313 79.4774 97.2313 79.4774 97.3458C79.4774 97.4602 79.4774 97.452 79.5919 97.452H81.2268C81.3413 97.452 81.3413 97.452 81.3413 97.3458C81.3413 97.2395 81.3413 97.3458 81.2268 97.2313C81.1124 97.1169 80.7854 97.2313 80.7854 97.0106C80.7782 96.951 80.7847 96.8905 80.8046 96.8338C80.8244 96.7771 80.857 96.7257 80.8998 96.6836L81.7827 94.4764L82.9926 97.1251C82.9926 97.2313 82.9926 97.2313 82.8863 97.2313C82.7801 97.2313 82.7719 97.2313 82.7719 97.3458C82.7719 97.4602 82.7719 97.3458 82.8863 97.3458H84.7584C84.8728 97.3458 84.8728 97.3458 84.8728 97.2313C84.8728 97.1169 84.8728 97.2313 84.7584 97.2313H84.6521C84.5376 97.2313 84.3169 97.0106 84.2106 96.5692H84.2025ZM87.9629 96.2422L88.4043 97.1251C88.4043 97.2313 88.4043 97.2313 88.2899 97.2313C88.1754 97.2313 88.2899 97.2313 88.2899 97.3458C88.2899 97.4602 88.2899 97.3458 88.4043 97.3458H90.2764C90.3908 97.3458 90.3908 97.3458 90.3908 97.2313C90.3908 97.1169 90.3908 97.1251 90.2764 97.1251H90.1701C89.9494 97.1251 89.8349 96.9043 89.6142 96.4629C89.1728 95.58 88.0692 93.193 87.9793 92.8169C87.8893 92.4409 87.7585 92.4899 87.7585 92.4899C87.6319 92.6252 87.5196 92.7731 87.4234 92.9314L85.6576 96.6836C85.4369 97.1251 85.3306 97.2313 84.9954 97.2313C84.8892 97.2313 84.8892 97.2313 84.8892 97.3458C84.8892 97.4602 84.8892 97.452 84.9954 97.452H86.6304C86.7367 97.452 86.7367 97.452 86.7367 97.3458C86.7367 97.2395 86.7367 97.3458 86.6304 97.2313C86.5241 97.1169 86.189 97.2313 86.189 97.0106C86.1819 96.9517 86.1877 96.8919 86.206 96.8354C86.2244 96.7789 86.2548 96.7271 86.2952 96.6836L86.4097 96.3484C86.4097 96.3203 86.4209 96.2932 86.4408 96.2733C86.4607 96.2534 86.4878 96.2422 86.516 96.2422H87.9629ZM86.7449 95.6863L87.1863 94.362L87.7422 95.6863H86.7449ZM93.5872 97.452C93.9583 97.4698 94.3299 97.434 94.6908 97.3458C94.8052 97.3458 94.8052 97.2313 94.9115 97.1251C94.9115 96.7899 95.026 96.2422 95.026 96.1277C95.026 96.0133 95.026 96.0215 94.9115 96.0215C94.7971 96.0215 94.8052 96.0214 94.8052 96.1277C94.7789 96.2941 94.7018 96.4483 94.5845 96.5692C94.2611 96.7942 93.8749 96.9115 93.4809 96.9043C92.3773 96.9043 91.7152 96.0214 91.7152 94.8034C91.6963 94.5221 91.7352 94.24 91.8294 93.9743C91.9236 93.7086 92.0711 93.465 92.2629 93.2584C92.5038 93.0393 92.8202 92.9221 93.1458 92.9314C93.6068 92.9348 94.0604 93.0468 94.4701 93.2584C94.5943 93.4588 94.6699 93.6856 94.6908 93.9205C94.6908 94.035 94.6908 94.035 94.8052 94.035C94.9197 94.035 94.9115 94.035 94.9115 93.9205V92.7106C94.9115 92.5962 94.9115 92.5962 94.8052 92.5962C94.5792 92.6131 94.3524 92.5767 94.1431 92.4899C93.8079 92.4899 93.4809 92.3755 93.2602 92.3755C92.5059 92.3576 91.767 92.5905 91.1593 93.0376C90.9155 93.2746 90.7218 93.558 90.5895 93.8711C90.4572 94.1842 90.389 94.5207 90.389 94.8606C90.389 95.2005 90.4572 95.537 90.5895 95.8501C90.7218 96.1633 90.9155 96.4467 91.1593 96.6836C91.4833 96.9888 91.8724 97.2166 92.2972 97.3497C92.722 97.4828 93.1714 97.5178 93.6117 97.452H93.5872ZM99.0235 97.452C99.3945 97.469 99.7661 97.4332 100.127 97.3458C100.233 97.3458 100.233 97.2313 100.348 97.1251C100.348 96.7899 100.454 96.2422 100.454 96.1277C100.454 96.0133 100.454 96.0215 100.348 96.0215C100.242 96.0215 100.233 96.0214 100.233 96.1277C100.207 96.2941 100.13 96.4483 100.013 96.5692C99.6897 96.7953 99.3031 96.9127 98.909 96.9043C97.8054 96.9043 97.1432 96.0214 97.1432 94.8034C97.126 94.5216 97.1664 94.2392 97.262 93.9736C97.3576 93.7079 97.5063 93.4646 97.6991 93.2584C97.9391 93.0378 98.2562 92.9203 98.582 92.9314C99.043 92.9348 99.4967 93.0468 99.9063 93.2584C100.027 93.4606 100.102 93.6865 100.127 93.9205C100.127 94.035 100.127 94.035 100.233 94.035C100.34 94.035 100.348 94.035 100.348 93.9205V92.7106C100.348 92.5962 100.348 92.5962 100.233 92.5962C100.007 92.6131 99.7805 92.5767 99.5712 92.4899C99.2442 92.4899 98.909 92.3755 98.6883 92.3755C97.9365 92.3576 97.2002 92.5905 96.5955 93.0376C96.3399 93.2532 96.137 93.5244 96.0024 93.8304C95.8678 94.1365 95.805 94.4693 95.8189 94.8034C95.8148 95.153 95.8816 95.4998 96.015 95.8229C96.1485 96.146 96.346 96.4388 96.5955 96.6836C96.9192 96.9893 97.3083 97.2174 97.7332 97.3506C98.1581 97.4837 98.6077 97.5184 99.048 97.452H99.0235ZM104.01 96.2422L104.452 97.1251C104.452 97.2313 104.452 97.2313 104.345 97.2313C104.239 97.2313 104.231 97.2313 104.231 97.3458C104.231 97.4602 104.231 97.3458 104.345 97.3458H106.217C106.332 97.3458 106.332 97.3458 106.332 97.2313C106.332 97.1169 106.332 97.1251 106.217 97.1251H105.997C105.776 97.1251 105.67 96.9043 105.449 96.4629C105.007 95.58 103.904 93.193 103.814 92.8169C103.724 92.4409 103.593 92.4899 103.593 92.4899C103.472 92.6274 103.362 92.7751 103.266 92.9314L101.427 96.5692C101.206 97.0106 101.092 97.1251 100.765 97.1251C100.65 97.1251 100.65 97.1251 100.65 97.2313C100.65 97.3376 100.65 97.3458 100.765 97.3458H102.4C102.514 97.3458 102.514 97.3458 102.514 97.2313C102.514 97.1169 102.514 97.2313 102.4 97.1251C102.285 97.0188 101.958 97.1251 101.958 96.9043C101.95 96.8434 101.957 96.7815 101.976 96.7234C101.996 96.6653 102.029 96.6125 102.073 96.5692L102.179 96.2422C102.179 96.2118 102.191 96.1827 102.212 96.1612C102.234 96.1398 102.263 96.1277 102.293 96.1277L104.01 96.2422ZM102.686 95.6863L103.242 94.362L103.789 95.58L102.686 95.6863Z" fill="#C09B6A"/>
<path d="M13.4646 35.4219C14.1268 35.4219 14.3475 35.4219 14.3475 35.2012C14.4767 34.7346 14.5508 34.2544 14.5682 33.7706C14.5682 33.6561 14.5682 33.6561 14.4619 33.6561C14.3557 33.6561 14.3475 33.6561 14.3475 33.7706C14.2412 34.0976 14.1268 34.3183 13.4646 34.4327C12.9887 34.5068 12.5075 34.5424 12.0258 34.539H11.5844C12.4673 33.8768 14.1268 32.904 14.1268 31.2691C14.1268 30.2799 13.4646 29.5033 11.9196 29.5033C11.3583 29.511 10.8036 29.6247 10.2846 29.8385C10.1783 29.8385 10.1783 29.9447 10.1783 30.0592C10.1783 30.1736 10.1783 31.0483 10.2846 31.0483C10.3909 31.0483 10.2846 31.2691 10.399 31.2691C10.5135 31.2691 10.5053 31.2691 10.5053 31.0483C10.5304 30.8143 10.6056 30.5884 10.726 30.3862C10.9365 30.1864 11.2126 30.0701 11.5026 30.0592C11.9441 30.0592 12.6062 30.1655 12.6062 31.6042C12.6062 33.4763 10.6198 34.8006 10.0639 35.3565L9.85132 35.5772C9.85132 35.5912 9.85407 35.605 9.85941 35.6179C9.86475 35.6308 9.87258 35.6425 9.88245 35.6523C9.89231 35.6622 9.90403 35.67 9.91692 35.6754C9.92982 35.6807 9.94364 35.6835 9.95759 35.6835L13.4646 35.4219ZM19.6203 32.2255C19.6203 30.6805 18.8518 29.2417 17.1678 29.2417C15.4838 29.2417 14.6336 30.566 14.6336 32.5116C14.6336 33.6152 15.075 35.4955 17.0861 35.4955C18.6556 35.6426 19.6203 34.4409 19.6203 32.2255ZM18.1897 32.5525C18.1897 34.0976 17.8545 35.0949 17.2986 35.0949C16.4157 35.0949 16.195 33.5498 16.195 32.2255C16.195 30.239 16.6364 29.6831 17.0779 29.6831C17.9608 29.7976 18.1897 31.1219 18.1897 32.5525Z" fill="#C09B6A"/>
<path d="M99.8813 35.4219C100.544 35.4219 100.764 35.4219 100.764 35.2012C100.889 34.7337 100.963 34.254 100.985 33.7706C100.985 33.6561 100.985 33.6561 100.87 33.6561C100.756 33.6561 100.764 33.6561 100.764 33.7706C100.65 34.0976 100.544 34.3183 99.8813 34.4327C99.4051 34.5038 98.9241 34.5393 98.4426 34.539H98.2219C99.1047 33.8768 100.764 32.904 100.764 31.2691C100.764 30.2799 100.102 29.5033 98.557 29.5033C97.9958 29.511 97.4411 29.6247 96.922 29.8385C96.8158 29.8385 96.8158 29.9447 96.8158 30.0592V31.0075C96.8158 31.0075 96.8158 31.2282 96.922 31.2282C97.0283 31.2282 97.1428 31.0075 97.1428 30.7867C97.1678 30.5527 97.2431 30.3268 97.3635 30.1246C97.5844 29.9154 97.8768 29.7984 98.181 29.7976C98.6224 29.7976 99.2846 29.9039 99.2846 31.3426C99.2846 33.2147 97.2981 34.539 96.7422 35.0949L96.5215 35.3156C96.5215 35.4219 96.5215 35.4219 96.6359 35.4219H99.8813ZM103.822 31.4489V29.3561C103.822 29.3258 103.81 29.2967 103.788 29.2752C103.767 29.2538 103.738 29.2417 103.707 29.2417C103.601 29.2417 103.601 29.2417 103.486 29.3561C103.045 29.5769 102.056 30.239 101.5 30.566L101.394 30.6805H101.5C101.614 30.6805 101.614 30.6805 101.721 30.566C101.889 30.47 102.085 30.4326 102.277 30.4598C102.383 30.4598 102.383 30.566 102.383 30.7867V34.7597C102.383 35.2012 102.277 35.2012 102.056 35.3156H101.614C101.5 35.3156 101.5 35.3156 101.5 35.4219C101.5 35.5282 101.5 35.5363 101.614 35.5363H104.369C104.484 35.5363 104.484 35.5363 104.484 35.4219C104.484 35.3074 104.484 35.3156 104.369 35.3156H104.042C103.822 35.3156 103.707 35.0949 103.707 34.8742V33.1084L103.822 31.4489Z" fill="#C09B6A"/>
</g>
<defs>
<clipPath id="clip0_218_301">
<rect width="114.775" height="98" fill="white" transform="translate(0 0.105957)"/>
</clipPath>
</defs>
</svg>
