<svg width="309" height="226" viewBox="0 0 309 226" fill="none" xmlns="http://www.w3.org/2000/svg">
<path opacity="0.25" d="M75.5228 225.851C62.5935 225.851 51.2804 223.427 41.5834 218.578C31.8865 213.191 24.075 206.188 18.1491 197.568C12.7619 188.949 8.45214 178.713 5.21982 166.861C1.9875 155.009 0.371338 142.619 0.371338 129.689C0.371338 103.292 7.10534 78.5109 20.5733 55.3459C34.5801 32.181 56.1289 13.8645 85.2197 0.396484L92.4925 14.9419C77.4083 21.9453 63.9403 32.181 52.0885 45.649C40.7753 58.5783 34.0413 72.3156 31.8865 86.8611C28.6541 98.1742 28.3848 109.218 31.0784 119.992C42.9302 107.063 58.8225 100.598 78.7551 100.598C97.0716 100.598 112.156 106.255 124.008 117.568C135.859 128.343 141.785 143.427 141.785 162.821C141.785 181.676 135.59 197.029 123.2 208.881C110.809 220.194 94.9167 225.851 75.5228 225.851ZM241.987 225.851C229.058 225.851 217.745 223.427 208.048 218.578C198.351 213.191 190.54 206.188 184.614 197.568C179.226 188.949 174.917 178.713 171.684 166.861C168.452 155.009 166.836 142.619 166.836 129.689C166.836 103.292 173.57 78.5109 187.038 55.3459C201.045 32.181 222.593 13.8645 251.684 0.396484L258.957 14.9419C243.873 21.9453 230.405 32.181 218.553 45.649C207.24 58.5783 200.506 72.3156 198.351 86.8611C195.119 98.1742 194.849 109.218 197.543 119.992C209.395 107.063 225.287 100.598 245.22 100.598C263.536 100.598 278.62 106.255 290.472 117.568C302.324 128.343 308.25 143.427 308.25 162.821C308.25 181.676 302.055 197.029 289.664 208.881C277.273 220.194 261.381 225.851 241.987 225.851Z" fill="#333D52"/>
</svg>
