<svg width="58" height="74" viewBox="0 0 58 74" fill="none" xmlns="http://www.w3.org/2000/svg">
<path d="M30.4692 73.6907C31.3596 73.6107 32.2095 73.2817 32.9218 72.7414C34.086 71.8412 35.1488 70.8172 36.0917 69.6874C36.4998 70.19 36.9508 70.6668 37.3803 71.1264C38.8939 72.6275 40.9157 73.5058 43.0459 73.5876H43.0802L48.1917 73.6907C48.3334 73.6907 48.4022 73.4845 48.4022 73.0679C48.4022 72.6512 48.3334 72.4407 48.1917 72.4407C45.4828 72.4407 43.4783 72.2489 42.1782 71.8652C40.8896 71.4829 40.0306 70.8042 39.571 69.8292C39.1114 68.8541 38.8923 67.325 38.8923 65.2375V37.7474C40.9599 37.3643 42.9774 36.7475 44.9058 35.909C48.402 34.3968 51.4196 31.9599 53.6339 28.8603C55.9247 25.6961 57.0701 21.7816 57.0701 17.1169C57.0701 11.344 55.1558 7.04864 51.3273 4.2309C47.4987 1.41316 42.5262 0.00286355 36.4096 0C35.9257 0 32.9762 0.10452 27.5612 0.313559C26.5291 0.406443 25.5467 0.799114 24.7349 1.44323C23.6925 2.28314 22.7357 3.2241 21.8785 4.25238C21.4919 3.78419 21.0925 3.33318 20.6672 2.89935C19.1417 1.37869 17.0945 0.495641 14.9415 0.429533H14.9072L9.79144 0.313559C9.65399 0.313559 9.58526 0.52403 9.58526 0.940677C9.58526 1.35732 9.65399 1.5678 9.79144 1.5678C12.5061 1.5678 14.5106 1.75822 15.8049 2.13907C17.0935 2.52136 17.9526 3.20002 18.4122 4.17506C18.8718 5.1501 19.0908 6.67924 19.0908 8.76677V36.2569C17.0299 36.6389 15.0194 37.2558 13.0988 38.0953C9.60071 39.6062 6.58138 42.0433 4.36644 45.1439C2.0756 48.311 0.930176 52.2255 0.930176 56.8873C0.930176 62.6603 2.84446 66.9556 6.67303 69.7733C10.5016 72.5911 15.477 73.9999 21.5993 73.9999C22.0861 74.0028 25.0427 73.8997 30.4692 73.6907ZM48.3635 9.5657L48.415 9.6559C49.8755 12.3362 50.6057 15.519 50.6057 19.2044C50.6057 24.9115 48.8875 29.2612 45.4513 32.2536C43.5593 33.902 41.3402 35.1316 38.9395 35.8617V16.9107C38.9395 14.8203 39.1658 13.2711 39.6182 12.2632C39.8658 11.7453 40.23 11.2919 40.6825 10.9386C41.1349 10.5853 41.663 10.3418 42.2255 10.2272C43.5141 9.88069 45.5186 9.70745 48.2389 9.70745C48.2819 9.70745 48.3291 9.6559 48.3635 9.5657ZM25.4136 3.70687C25.6682 3.2102 26.0327 2.77804 26.4792 2.44314C26.9257 2.10824 27.4426 1.8794 27.9908 1.77397C29.1734 1.48762 31.1908 1.34444 34.0429 1.34444C36.9841 1.31595 39.8817 2.05628 42.4488 3.4921C44.5823 4.69321 46.3923 6.39417 47.7235 8.44891C45.7477 8.44891 44.1799 8.48757 43.0287 8.552L36.1562 8.65938L27.0715 8.552C26.3886 8.52193 25.5811 8.50046 24.6705 8.48328C24.6533 6.24541 24.911 4.64755 25.4136 3.70687ZM24.6146 37.2835V35.8102V9.81483C26.0384 9.86987 27.455 10.0437 28.8498 10.3346C30.6224 10.7526 31.8222 11.4685 32.4493 12.4822C33.0764 13.4959 33.39 15.1138 33.39 17.336V36.7208V38.1984V64.1894C31.965 64.1357 30.5469 63.9633 29.1505 63.674C27.378 63.2588 26.1781 62.5429 25.551 61.5263C24.9239 60.5097 24.6118 58.9004 24.6146 56.6984V37.2835ZM9.6454 64.4299L9.59386 64.3397C8.13345 61.6652 7.40324 58.4823 7.40324 54.7912C7.40324 49.0842 9.12137 44.7344 12.5576 41.742C14.4481 40.0925 16.6678 38.8641 19.0694 38.1382V57.0892C19.0694 59.1768 18.8431 60.7245 18.3907 61.7325C18.1432 62.2504 17.7789 62.7038 17.3265 63.057C16.874 63.4103 16.3459 63.6538 15.7834 63.7685C14.4948 64.1178 12.4903 64.2925 9.76996 64.2925C9.72701 64.3011 9.67977 64.3483 9.6454 64.4299ZM10.3198 65.5424C12.2956 65.5424 13.8634 65.5038 15.0103 65.4394L21.8828 65.3363L30.9674 65.4394C31.6504 65.4694 32.4536 65.4909 33.3685 65.5081C33.3341 67.7502 33.0807 69.3481 32.591 70.2931C32.3385 70.7868 31.9774 71.2169 31.5347 71.5509C31.092 71.885 30.5794 72.1143 30.0353 72.2217C28.8556 72.508 26.8367 72.6512 23.9789 72.6512C21.0391 72.6791 18.143 71.9388 15.5773 70.5035C13.4496 69.3028 11.6454 67.6032 10.3198 65.551V65.5424Z" fill="#A58563"/>
</svg>
