<svg width="638" height="331" viewBox="0 0 638 331" fill="none" xmlns="http://www.w3.org/2000/svg">
<path d="M179.111 323.822H176.479V329.922H174.54V323.822H171.887L168.009 329.922H165.696L170.266 322.712L166.021 316.061H168.144L171.844 322.075H174.533V316.061H176.472V322.075H179.125L182.84 316.061H184.962L180.717 322.747L185.288 329.914H182.974L179.111 323.822Z" fill="#72665F"/>
<path d="M193.319 316.067H195.286V326.751L203.479 316.067H205.298V329.921H203.359V319.251L195.151 329.921H193.333L193.319 316.067Z" fill="#72665F"/>
<path d="M226.673 316.067V329.921H224.734V317.794H218.635L218.493 321.848C218.465 323.408 218.311 324.962 218.033 326.497C217.882 327.475 217.483 328.398 216.873 329.179C216.608 329.476 216.28 329.711 215.913 329.867C215.546 330.022 215.149 330.094 214.75 330.077C214.33 330.077 213.912 330.025 213.505 329.921L213.647 328.16C213.853 328.21 214.064 328.236 214.276 328.237C214.545 328.243 214.81 328.18 215.049 328.057C215.287 327.933 215.491 327.752 215.642 327.53C216.048 326.914 216.312 326.216 216.413 325.485C216.611 324.294 216.724 323.091 216.753 321.884L216.965 316.046L226.673 316.067Z" fill="#72665F"/>
<path d="M239.373 329.157C238.278 328.568 237.365 327.689 236.734 326.617C236.104 325.514 235.772 324.265 235.772 322.994C235.772 321.724 236.104 320.475 236.734 319.372C237.365 318.3 238.278 317.421 239.373 316.832C240.537 316.227 241.83 315.912 243.141 315.912C244.453 315.912 245.745 316.227 246.909 316.832C248.003 317.416 248.915 318.293 249.541 319.365C250.163 320.473 250.489 321.723 250.489 322.994C250.489 324.266 250.163 325.515 249.541 326.624C248.915 327.696 248.003 328.572 246.909 329.157C245.745 329.761 244.453 330.077 243.141 330.077C241.83 330.077 240.537 329.761 239.373 329.157ZM245.89 327.622C246.693 327.171 247.358 326.511 247.815 325.711C248.274 324.88 248.515 323.945 248.515 322.994C248.515 322.044 248.274 321.109 247.815 320.277C247.358 319.478 246.693 318.818 245.89 318.367C245.057 317.89 244.111 317.646 243.152 317.659C242.186 317.649 241.234 317.893 240.392 318.367C239.58 318.81 238.909 319.472 238.454 320.277C237.994 321.109 237.753 322.044 237.753 322.994C237.753 323.945 237.994 324.88 238.454 325.711C238.909 326.517 239.58 327.179 240.392 327.622C241.234 328.096 242.186 328.34 243.152 328.329C244.111 328.343 245.057 328.098 245.89 327.622Z" fill="#72665F"/>
<path d="M259.631 316.067H261.591V326.752L269.784 316.067H271.603V329.921H269.664V319.251L261.456 329.921H259.631V316.067ZM263.084 314.398C262.789 314.155 262.554 313.847 262.398 313.499C262.242 313.15 262.169 312.77 262.185 312.388H263.6C263.592 312.615 263.637 312.841 263.73 313.049C263.823 313.256 263.963 313.439 264.138 313.584C264.57 313.862 265.072 314.009 265.585 314.009C266.098 314.009 266.6 313.862 267.032 313.584C267.211 313.442 267.355 313.259 267.452 313.052C267.549 312.844 267.597 312.617 267.591 312.388H269.006C269.019 312.768 268.944 313.146 268.788 313.493C268.633 313.84 268.4 314.147 268.107 314.391C267.385 314.905 266.508 315.155 265.624 315.098C264.722 315.163 263.825 314.916 263.084 314.398Z" fill="#72665F"/>
<path d="M297.938 323.822H295.051V329.921H293.112V316.067H295.051V322.082H297.98L302.332 316.067H304.454L299.502 322.775L304.681 329.921H302.424L297.938 323.822Z" fill="#72665F"/>
<path d="M315.068 329.157C313.972 328.568 313.059 327.689 312.429 326.617C311.798 325.514 311.467 324.265 311.467 322.994C311.467 321.724 311.798 320.475 312.429 319.372C313.059 318.3 313.972 317.421 315.068 316.832C316.228 316.208 317.529 315.892 318.846 315.912C320.157 315.892 321.45 316.208 322.603 316.832C323.698 317.416 324.609 318.293 325.235 319.365C325.862 320.472 326.191 321.722 326.191 322.994C326.191 324.266 325.862 325.517 325.235 326.624C324.609 327.696 323.698 328.572 322.603 329.157C321.45 329.78 320.157 330.097 318.846 330.077C317.529 330.097 316.228 329.78 315.068 329.157ZM321.591 327.622C322.392 327.17 323.055 326.51 323.509 325.711C323.969 324.88 324.21 323.945 324.21 322.994C324.21 322.044 323.969 321.109 323.509 320.277C323.055 319.479 322.392 318.818 321.591 318.367C320.756 317.891 319.808 317.647 318.846 317.659C317.88 317.649 316.929 317.893 316.087 318.367C315.277 318.814 314.606 319.475 314.148 320.277C313.688 321.109 313.447 322.044 313.447 322.994C313.447 323.945 313.688 324.88 314.148 325.711C314.606 326.514 315.277 327.175 316.087 327.622C316.929 328.095 317.88 328.339 318.846 328.329C319.808 328.342 320.756 328.098 321.591 327.622Z" fill="#72665F"/>
<path d="M348.167 329.921V319.832L343.165 328.237H342.252L337.229 319.881V329.914H335.325V316.067H336.953L342.726 325.803L348.429 316.067H350.049V329.921H348.167Z" fill="#72665F"/>
<path d="M372.246 316.067V329.921H370.307V317.794H362.269V329.921H360.309V316.067H372.246Z" fill="#72665F"/>
<path d="M393.635 316.067V329.921H391.696V317.794H385.562L385.42 321.848C385.392 323.408 385.238 324.962 384.96 326.497C384.809 327.475 384.409 328.398 383.8 329.179C383.535 329.476 383.207 329.711 382.84 329.867C382.473 330.022 382.075 330.094 381.677 330.077C381.257 330.077 380.839 330.025 380.432 329.921L380.573 328.16C380.78 328.21 380.991 328.236 381.203 328.237C381.471 328.241 381.737 328.179 381.975 328.055C382.213 327.932 382.417 327.751 382.569 327.53C382.975 326.914 383.238 326.216 383.34 325.485C383.538 324.294 383.649 323.091 383.673 321.884L383.892 316.046L393.635 316.067Z" fill="#72665F"/>
<path d="M413.921 328.195V329.921H403.88V316.067H413.652V317.794H405.869V322.039H412.81V323.716H405.869V328.188L413.921 328.195Z" fill="#72665F"/>
<path d="M427.803 323.822H424.909V329.921H422.97V316.067H424.909V322.082H427.838L432.19 316.067H434.312L429.359 322.775L434.539 329.921H432.317L427.803 323.822Z" fill="#72665F"/>
<path d="M444.926 329.157C443.836 328.568 442.928 327.692 442.301 326.624C441.679 325.515 441.353 324.266 441.353 322.994C441.353 321.723 441.679 320.473 442.301 319.365C442.931 318.296 443.841 317.421 444.933 316.832C446.089 316.209 447.384 315.893 448.697 315.912C449.711 315.901 450.718 316.086 451.662 316.457C452.543 316.805 453.329 317.358 453.954 318.07L452.673 319.315C452.176 318.782 451.572 318.36 450.9 318.077C450.228 317.794 449.504 317.657 448.775 317.674C447.786 317.656 446.809 317.9 445.945 318.381C445.132 318.826 444.458 319.487 443.999 320.292C443.539 321.123 443.298 322.058 443.298 323.009C443.298 323.959 443.539 324.894 443.999 325.726C444.458 326.53 445.132 327.192 445.945 327.636C446.809 328.117 447.786 328.361 448.775 328.344C449.505 328.357 450.23 328.216 450.902 327.93C451.574 327.643 452.178 327.218 452.673 326.681L453.954 327.926C453.322 328.64 452.532 329.197 451.647 329.554C450.702 329.93 449.693 330.117 448.676 330.105C447.365 330.118 446.073 329.791 444.926 329.157Z" fill="#72665F"/>
<path d="M18.6936 276.841C19.2927 277.93 20.4932 278.699 22.2951 279.147C25.0759 279.698 27.9097 279.935 30.7433 279.855C30.9697 279.855 31.083 280.081 31.083 280.527C31.083 280.973 30.9697 281.235 30.7433 281.235C27.6631 281.235 25.2598 281.197 23.5333 281.121L13.7407 280.966L6.07791 281.079C4.72884 281.159 2.81607 281.197 0.339627 281.192C0.113209 281.192 0 280.956 0 280.485C0 280.039 0.113209 279.812 0.339627 279.812C2.34406 279.885 4.3494 279.695 6.30433 279.246C6.87849 279.111 7.41248 278.842 7.86259 278.461C8.31271 278.079 8.66614 277.597 8.89398 277.053C9.43563 275.441 9.67549 273.743 9.60154 272.043V219.918C9.68006 218.237 9.43999 216.556 8.89398 214.965C8.65426 214.428 8.29718 213.951 7.84902 213.571C7.40085 213.19 6.87301 212.914 6.30433 212.764C4.35562 212.276 2.34704 212.068 0.339627 212.149C0.113209 212.149 0 211.913 0 211.441C0 210.995 0.113209 210.769 0.339627 210.769L6.07791 210.882C9.23361 211.031 11.7384 211.109 13.6275 211.109C15.5167 211.109 17.5686 210.995 20.0451 210.769C20.946 210.769 22.3611 210.712 24.2904 210.599C26.2197 210.486 27.8895 210.429 29.2999 210.429C36.2859 210.429 41.8968 211.988 46.1327 215.106C50.3686 218.224 52.4912 222.941 52.5007 229.258C52.5007 234.14 51.279 238.269 48.8355 241.647C46.4619 244.973 43.2217 247.584 39.4675 249.196C35.7594 250.829 31.7523 251.672 27.7008 251.673C25.845 251.71 23.9916 251.52 22.1819 251.107C22.0333 251.107 21.9555 250.923 21.9555 250.548C21.9534 250.302 22.0117 250.059 22.1253 249.84C22.2385 249.621 22.3729 249.543 22.5215 249.621C23.8108 249.937 25.1353 250.087 26.4626 250.067C28.6594 250.111 30.8419 249.704 32.8754 248.871C34.9089 248.039 36.7503 246.799 38.2859 245.227C41.5359 242.019 43.1609 237.373 43.1609 231.288C43.1609 225.359 41.6208 220.706 38.5406 217.328C35.4604 213.951 31.3966 212.262 26.3494 212.262C24.5333 212.194 22.7161 212.363 20.9437 212.764C20.4074 212.915 19.9117 213.184 19.4929 213.551C19.0742 213.918 18.743 214.375 18.5238 214.887C18.0356 215.977 17.8163 217.717 17.8163 220.123V271.584C17.795 274.01 18.0922 275.751 18.6936 276.841Z" fill="#A58563"/>
<path d="M134.683 280.499C134.683 280.97 134.57 281.206 134.344 281.206H118.912C117.115 281.206 113.718 278.14 108.723 272.008C103.728 265.876 97.6286 257.333 90.4257 246.38C88.5601 246.741 86.6654 246.931 84.7652 246.946C84.3879 246.946 82.6237 246.833 79.4727 246.607V272.079C79.3902 273.797 79.6302 275.515 80.1803 277.145C80.418 277.675 80.7756 278.143 81.225 278.511C81.6745 278.88 82.2033 279.139 82.7699 279.268C84.7627 279.72 86.8059 279.91 88.8478 279.834C89.0743 279.834 89.1875 280.06 89.1875 280.506C89.1875 280.952 89.0743 281.213 88.8478 281.213C86.4422 281.213 84.6025 281.176 83.3289 281.1L75.3335 280.987L67.5504 281.1C66.1353 281.178 64.2107 281.213 61.805 281.213C61.6564 281.213 61.5857 280.987 61.5857 280.506C61.5857 280.025 61.6564 279.834 61.805 279.834C63.8493 279.909 65.8948 279.719 67.89 279.268C68.4681 279.126 69.0065 278.854 69.4649 278.475C69.9232 278.095 70.2895 277.616 70.5363 277.074C71.0996 275.467 71.3401 273.765 71.2438 272.065V219.918C71.3295 218.239 71.1016 216.56 70.5717 214.965C70.3298 214.429 69.9721 213.954 69.5242 213.573C69.0764 213.193 68.5496 212.917 67.982 212.764C66.0308 212.276 64.02 212.069 62.0102 212.149C61.7838 212.149 61.6706 211.913 61.6706 211.441C61.6706 210.995 61.7838 210.769 62.0102 210.769L67.5292 210.882C70.6849 211.029 73.2792 211.104 75.3123 211.109C76.8901 211.109 78.3902 211.066 79.8194 210.995C81.2487 210.925 82.4798 210.84 83.5341 210.769C86.3077 210.543 88.9021 210.429 91.3172 210.429C97.3267 210.429 102.001 211.762 105.341 214.427C106.976 215.696 108.285 217.336 109.161 219.211C110.037 221.086 110.454 223.142 110.379 225.21C110.41 229.173 109.17 233.042 106.841 236.248C104.42 239.601 101.184 242.28 97.4376 244.031C103.707 253.088 108.964 260.178 113.209 265.3C117.454 270.423 121.245 274.119 124.579 276.388C127.919 278.68 131.167 279.827 134.322 279.827C134.57 279.827 134.683 280.053 134.683 280.499ZM86.145 244.244C91.7771 244.244 95.7866 242.984 98.1734 240.465C100.56 237.946 101.761 234.024 101.775 228.699C101.775 222.769 100.537 218.547 98.0602 216.033C95.5838 213.519 92.0248 212.262 87.3832 212.262C84.4539 212.262 82.4091 212.804 81.2487 213.889C80.0883 214.974 79.5057 217.05 79.501 220.116V243.876C81.7075 244.117 83.9253 244.24 86.145 244.244Z" fill="#A58563"/>
<path d="M156.978 277.124C157.216 277.654 157.574 278.122 158.023 278.49C158.473 278.858 159.002 279.117 159.568 279.246C161.561 279.698 163.604 279.888 165.646 279.812C165.795 279.812 165.872 280.039 165.872 280.485C165.872 280.93 165.795 281.192 165.646 281.192C163.316 281.192 161.476 281.154 160.127 281.079L152.019 280.966L144.235 281.079C142.82 281.157 140.896 281.192 138.497 281.192C138.271 281.192 138.157 280.956 138.157 280.485C138.157 280.039 138.271 279.812 138.497 279.812C140.539 279.888 142.582 279.697 144.575 279.246C145.153 279.104 145.692 278.833 146.15 278.453C146.608 278.073 146.974 277.595 147.221 277.053C147.785 275.446 148.025 273.744 147.929 272.043V219.918C148.03 218.236 147.789 216.551 147.221 214.965C146.963 214.431 146.593 213.958 146.136 213.578C145.68 213.199 145.148 212.921 144.575 212.764C142.588 212.273 140.542 212.066 138.497 212.149C138.271 212.149 138.157 211.913 138.157 211.441C138.157 210.995 138.271 210.769 138.497 210.769L144.235 210.882C147.391 211.028 149.985 211.104 152.019 211.109C154.198 211.109 156.938 211.033 160.24 210.882L165.646 210.769C165.795 210.769 165.872 210.995 165.872 211.441C165.872 211.887 165.795 212.149 165.646 212.149C163.616 212.066 161.586 212.293 159.625 212.821C159.04 212.987 158.499 213.28 158.041 213.68C157.584 214.08 157.221 214.577 156.978 215.135C156.436 216.747 156.196 218.445 156.271 220.144V272.058C156.188 273.776 156.428 275.494 156.978 277.124Z" fill="#A58563"/>
<path d="M263.168 280.499C263.168 280.97 263.055 281.206 262.829 281.206C260.423 281.206 258.513 281.171 257.083 281.093L249.3 280.98L241.758 281.093C240.555 281.173 238.866 281.211 236.692 281.206C236.536 281.206 236.465 280.98 236.465 280.499C236.465 280.017 236.536 279.826 236.692 279.826C238.588 279.909 240.485 279.699 242.317 279.204C242.861 279.046 243.363 278.767 243.783 278.387C244.204 278.007 244.532 277.536 244.744 277.01C245.154 275.963 245.289 274.307 245.133 272.057L243.01 221.941L217.786 280.385C217.698 280.541 217.565 280.667 217.405 280.748C217.245 280.829 217.065 280.86 216.887 280.838C216.696 280.836 216.506 280.794 216.331 280.716C216.156 280.639 215.999 280.526 215.868 280.385L188.054 222.168L187.156 268.562C187.078 272.546 187.778 275.418 189.236 277.18C190.693 278.942 193.163 279.826 196.616 279.826C196.764 279.826 196.842 280.053 196.842 280.499C196.842 280.944 196.764 281.206 196.616 281.206C194.517 281.206 192.903 281.168 191.776 281.093L185.691 280.98L179.613 281.093C178.561 281.173 177.059 281.211 175.106 281.206C174.88 281.206 174.766 280.97 174.766 280.499C174.766 280.053 174.88 279.826 175.106 279.826C178.186 279.826 180.476 278.925 181.976 277.124C183.476 275.322 184.264 272.468 184.34 268.562L185.38 217.328C184.404 215.703 183.014 214.367 181.351 213.457C179.689 212.547 177.814 212.095 175.92 212.149C175.7 212.149 175.587 211.922 175.587 211.441C175.587 210.96 175.7 210.769 175.92 210.769L180.314 210.882C181.141 210.953 182.231 210.995 183.583 210.995C185.083 210.995 186.342 210.953 187.354 210.882C188.366 210.811 189.172 210.769 189.774 210.769C190.218 210.753 190.66 210.836 191.068 211.011C191.477 211.186 191.842 211.449 192.137 211.781C193.246 213.291 194.194 214.913 194.967 216.62L220.05 268.449L243.923 213.613C244.748 211.726 245.876 210.783 247.305 210.783C247.68 210.783 248.239 210.818 248.989 210.896C249.739 210.974 250.715 211.009 251.918 211.009L257.579 210.896C258.407 210.818 259.701 210.783 261.407 210.783C261.555 210.783 261.633 211.01 261.633 211.455C261.633 211.901 261.555 212.163 261.407 212.163C257.633 212.163 254.949 212.743 253.355 213.903C251.76 215.064 250.977 217.135 251.006 220.116L253.369 272.029C253.405 273.754 253.708 275.463 254.267 277.095C254.501 277.619 254.852 278.082 255.292 278.45C255.732 278.818 256.251 279.081 256.808 279.218C258.781 279.673 260.806 279.863 262.829 279.784C263.055 279.826 263.168 280.053 263.168 280.499Z" fill="#A58563"/>
<path d="M320.035 263.984C320.481 264.02 320.707 264.154 320.707 264.373C320.026 269.375 319.687 274.418 319.695 279.466C319.738 279.933 319.596 280.398 319.299 280.76C318.896 281.07 318.389 281.212 317.884 281.157H270.286C270.138 281.157 270.06 280.93 270.06 280.449C270.06 279.968 270.138 279.777 270.286 279.777C272.331 279.853 274.376 279.662 276.371 279.211C276.945 279.074 277.478 278.804 277.928 278.423C278.377 278.042 278.731 277.56 278.961 277.018C279.487 275.402 279.714 273.705 279.633 272.008V219.918C279.719 218.239 279.491 216.56 278.961 214.965C278.719 214.429 278.362 213.954 277.914 213.573C277.466 213.193 276.939 212.916 276.371 212.764C274.382 212.273 272.334 212.066 270.286 212.149C270.138 212.149 270.06 211.922 270.06 211.441C270.06 210.96 270.138 210.769 270.286 210.769H316.009C316.146 210.75 316.286 210.764 316.417 210.808C316.548 210.852 316.668 210.926 316.766 211.024C316.864 211.122 316.938 211.241 316.982 211.372C317.026 211.504 317.039 211.644 317.021 211.781L317.247 225.854C317.247 226.08 317.042 226.194 316.624 226.194C316.207 226.194 316.009 226.08 316.009 225.854C315.537 221.802 314.148 218.687 311.841 216.507C309.535 214.328 306.495 213.241 302.721 213.245H296.53C292.997 213.245 290.669 213.734 289.546 214.71C288.424 215.686 287.86 217.573 287.855 220.371V243.338H300.803C304.577 243.338 307.299 242.701 308.969 241.427C310.66 240.147 311.502 238.088 311.502 235.229C311.502 235.081 311.728 235.01 312.209 235.01C312.69 235.01 312.881 235.081 312.881 235.229L312.74 244.576C312.74 246.755 312.782 248.404 312.853 249.529L312.966 255.154C312.966 255.31 312.74 255.38 312.294 255.38C311.848 255.38 311.587 255.31 311.587 255.154C311.587 251.852 310.723 249.47 308.997 248.008C307.27 246.545 304.454 245.812 300.549 245.807H287.813V271.598C287.744 273.095 287.985 274.591 288.52 275.992C288.75 276.482 289.078 276.92 289.485 277.278C289.892 277.636 290.368 277.906 290.883 278.072C292.564 278.563 294.314 278.773 296.063 278.694H304.058C305.877 278.752 307.688 278.448 309.389 277.801C311.089 277.153 312.644 276.175 313.964 274.923C316.596 272.404 318.398 268.866 319.37 264.31C319.356 264.062 319.582 263.984 320.035 263.984Z" fill="#A58563"/>
<path d="M375.55 276.841C376.151 277.93 377.347 278.702 379.151 279.147C381.932 279.698 384.766 279.935 387.6 279.855C387.826 279.855 387.932 280.081 387.932 280.527C387.932 280.973 387.826 281.235 387.6 281.235C384.524 281.235 382.121 281.197 380.39 281.121L370.597 280.966L362.934 281.079C361.58 281.159 359.668 281.197 357.196 281.192C356.969 281.192 356.856 280.956 356.856 280.485C356.856 280.039 356.969 279.812 357.196 279.812C359.2 279.885 361.206 279.695 363.161 279.246C363.734 279.11 364.268 278.84 364.718 278.459C365.168 278.078 365.521 277.596 365.75 277.053C366.292 275.441 366.532 273.743 366.458 272.043V219.918C366.536 218.237 366.296 216.556 365.75 214.965C365.509 214.429 365.152 213.953 364.704 213.572C364.256 213.192 363.729 212.916 363.161 212.764C361.212 212.276 359.203 212.068 357.196 212.149C356.969 212.149 356.856 211.913 356.856 211.441C356.856 210.995 356.969 210.769 357.196 210.769L362.934 210.882C366.09 211.031 368.595 211.109 370.484 211.109C372.373 211.109 374.425 210.995 376.901 210.769C377.802 210.769 379.217 210.712 381.147 210.599C383.076 210.486 384.746 210.429 386.156 210.429C393.142 210.429 398.753 211.988 402.989 215.106C407.225 218.224 409.347 222.941 409.357 229.258C409.357 234.14 408.138 238.269 405.699 241.647C403.33 244.967 400.098 247.575 396.352 249.189C392.644 250.822 388.637 251.665 384.585 251.666C382.729 251.703 380.876 251.513 379.066 251.1C378.918 251.1 378.84 250.916 378.84 250.541C378.838 250.295 378.896 250.052 379.01 249.833C379.123 249.614 379.257 249.536 379.406 249.614C380.695 249.93 382.02 250.08 383.347 250.06C385.544 250.103 387.726 249.697 389.76 248.864C391.793 248.032 393.635 246.792 395.17 245.22C398.397 241.994 400.01 237.338 400.01 231.253C400.01 225.324 398.472 220.67 395.397 217.293C392.321 213.915 388.267 212.227 383.234 212.227C381.418 212.159 379.601 212.327 377.828 212.729C377.292 212.88 376.796 213.148 376.377 213.516C375.959 213.883 375.628 214.34 375.408 214.852C374.92 215.941 374.701 217.682 374.701 220.088V271.548C374.651 274.01 374.948 275.751 375.55 276.841Z" fill="#A58563"/>
<path d="M488.044 280.499C488.044 280.97 487.896 281.206 487.598 281.206C486.183 281.206 483.966 281.131 480.947 280.98C477.928 280.829 475.716 280.753 474.31 280.753C472.577 280.753 470.44 280.831 467.886 280.98C465.485 281.126 463.61 281.202 462.261 281.206C461.957 281.206 461.808 280.98 461.808 280.499C461.808 280.018 461.957 279.827 462.261 279.827C464.964 279.827 466.895 279.586 468.056 279.119C468.594 278.927 469.056 278.565 469.371 278.088C469.686 277.61 469.838 277.044 469.803 276.473C469.803 275.348 469.28 273.642 468.225 271.407L458.539 251.107H431.609L424.965 266.539C424.06 268.481 423.562 270.588 423.501 272.73C423.501 277.447 427.142 279.805 434.425 279.805C434.793 279.805 434.984 280.032 434.984 280.477C434.984 280.923 434.793 281.185 434.425 281.185C433.074 281.185 431.114 281.107 428.567 280.959C425.737 280.81 423.232 280.732 421.138 280.732C419.255 280.732 416.97 280.81 414.267 280.959C412.01 281.107 410.1 281.185 408.522 281.185C408.147 281.185 407.956 280.959 407.956 280.477C407.956 279.996 408.147 279.805 408.522 279.805C410.375 279.861 412.213 279.454 413.871 278.624C415.608 277.572 417.065 276.115 418.116 274.378C419.876 271.552 421.382 268.576 422.616 265.484L446.383 209.849C446.494 209.724 446.634 209.629 446.791 209.571C446.948 209.513 447.116 209.494 447.282 209.517C447.728 209.517 447.989 209.63 448.067 209.849L474.869 265.704C477.426 271.19 479.603 274.907 481.4 276.855C482.162 277.76 483.11 278.489 484.18 278.995C485.25 279.5 486.415 279.77 487.598 279.784C487.896 279.826 488.044 280.053 488.044 280.499ZM432.642 248.744H457.407L444.345 221.531L432.642 248.744Z" fill="#A58563"/>
<path d="M565.522 280.499C565.522 280.97 565.408 281.206 565.182 281.206H549.771C547.965 281.206 544.566 278.14 539.575 272.008C534.585 265.876 528.486 257.336 521.278 246.387C519.412 246.749 517.518 246.938 515.618 246.954C515.245 246.954 513.481 246.84 510.325 246.614V272.086C510.243 273.804 510.483 275.522 511.033 277.152C511.27 277.682 511.628 278.15 512.077 278.518C512.527 278.887 513.056 279.146 513.622 279.275C515.615 279.726 517.658 279.916 519.7 279.841C519.927 279.841 520.04 280.067 520.04 280.513C520.04 280.959 519.927 281.22 519.7 281.22C517.299 281.22 515.462 281.183 514.188 281.107L506.193 280.994L498.41 281.107C496.995 281.185 495.07 281.22 492.671 281.22C492.516 281.22 492.445 280.994 492.445 280.513C492.445 280.032 492.516 279.841 492.671 279.841C494.713 279.916 496.757 279.726 498.749 279.275C499.328 279.133 499.866 278.862 500.324 278.482C500.783 278.102 501.149 277.623 501.396 277.081C501.96 275.474 502.2 273.772 502.103 272.072V219.918C502.182 218.237 501.942 216.556 501.396 214.965C501.154 214.429 500.796 213.954 500.348 213.573C499.9 213.193 499.374 212.917 498.806 212.764C496.855 212.276 494.844 212.069 492.834 212.149C492.615 212.149 492.502 211.922 492.502 211.441C492.502 210.96 492.615 210.769 492.834 210.769L498.353 210.882C501.509 211.029 504.103 211.104 506.136 211.109C507.707 211.109 509.207 211.066 510.636 210.995C512.066 210.925 513.304 210.84 514.351 210.769C517.129 210.543 519.724 210.429 522.134 210.429C528.144 210.429 532.818 211.762 536.158 214.427C537.783 215.696 539.085 217.333 539.956 219.202C540.827 221.072 541.242 223.121 541.167 225.182C541.199 229.145 539.959 233.014 537.63 236.22C535.211 239.574 531.974 242.254 528.226 244.003C534.528 253.088 539.802 260.182 544.047 265.286C548.292 270.39 552.087 274.091 555.432 276.388C558.771 278.68 562.019 279.827 565.175 279.827C565.408 279.827 565.522 280.053 565.522 280.499ZM516.983 244.244C522.615 244.244 526.625 242.984 529.012 240.465C531.398 237.946 532.601 234.024 532.62 228.699C532.62 222.769 531.38 218.547 528.898 216.033C526.417 213.519 522.851 212.262 518.2 212.262C515.278 212.262 513.247 212.807 512.066 213.889C510.884 214.972 510.318 217.066 510.318 220.144V243.904C512.532 244.137 514.757 244.25 516.983 244.244Z" fill="#A58563"/>
<path d="M637.14 280.499C637.14 280.97 637.027 281.206 636.801 281.206H624.192C623.484 281.206 622.367 281.206 620.753 281.263C619.14 281.319 616.55 278.935 612.97 274.187C609.39 269.44 607.055 266.326 605.895 264.897L589.118 243.614L585.63 246.996V272.107C585.548 273.825 585.788 275.543 586.338 277.173C586.577 277.702 586.935 278.169 587.385 278.537C587.834 278.905 588.362 279.165 588.927 279.296C590.92 279.747 592.963 279.938 595.005 279.862C595.232 279.862 595.345 280.088 595.345 280.534C595.345 280.98 595.232 281.242 595.005 281.242C592.604 281.242 590.767 281.204 589.493 281.128L581.498 281.015L573.715 281.128C572.3 281.209 570.385 281.246 567.97 281.242C567.814 281.242 567.743 281.015 567.743 280.534C567.743 280.053 567.814 279.862 567.97 279.862C570.011 279.938 572.055 279.747 574.047 279.296C574.626 279.155 575.165 278.884 575.623 278.504C576.082 278.124 576.448 277.645 576.694 277.102C577.258 275.496 577.498 273.793 577.401 272.093V219.918C577.48 218.237 577.24 216.556 576.694 214.965C576.453 214.429 576.095 213.953 575.647 213.572C575.199 213.192 574.672 212.916 574.104 212.764C572.117 212.273 570.071 212.066 568.026 212.149C567.87 212.149 567.8 211.922 567.8 211.441C567.8 210.96 567.87 210.769 568.026 210.769L573.687 210.882C576.989 211.028 579.583 211.104 581.47 211.109C583.64 211.109 586.305 211.033 589.465 210.882L594.977 210.769C595.133 210.769 595.203 210.995 595.203 211.441C595.203 211.887 595.133 212.149 594.977 212.149C592.947 212.067 590.917 212.294 588.956 212.821C588.376 212.996 587.842 213.297 587.392 213.701C586.942 214.106 586.587 214.605 586.352 215.163C585.81 216.775 585.57 218.473 585.644 220.172V244.045L609.206 220.371C611.607 217.814 612.807 215.927 612.807 214.71C612.807 212.984 610.593 212.12 606.163 212.12C606.015 212.12 605.937 211.894 605.937 211.413C605.937 210.932 606.015 210.741 606.163 210.741L611.116 210.854C614.126 211 616.942 211.076 619.565 211.08C622.187 211.085 624.867 211.031 627.602 210.918L631.996 210.804C632.223 210.804 632.329 211.031 632.329 211.477C632.329 211.922 632.223 212.184 631.996 212.184C628.507 212.254 625.064 212.999 621.857 214.378C618.138 215.922 614.769 218.201 611.951 221.078L595.055 237.805L611.272 258.755C616.678 265.831 620.789 270.822 623.605 273.727C626.421 276.633 628.617 278.378 630.192 278.963C632.345 279.609 634.59 279.896 636.836 279.812C637.027 279.827 637.14 280.053 637.14 280.499Z" fill="#A58563"/>
<path d="M317.259 143.296C318.991 143.141 320.644 142.501 322.029 141.451C324.292 139.7 326.359 137.709 328.193 135.512C328.986 136.489 329.863 137.416 330.699 138.31C333.642 141.229 337.573 142.937 341.716 143.096H341.782L351.722 143.296C351.998 143.296 352.131 142.896 352.131 142.085C352.131 141.275 351.998 140.866 351.722 140.866C346.454 140.866 342.556 140.493 340.028 139.747C337.523 139.003 335.852 137.684 334.958 135.787C334.065 133.891 333.639 130.918 333.639 126.859V73.4022C337.659 72.6573 341.582 71.458 345.332 69.8274C352.131 66.8869 357.999 62.1481 362.305 56.1208C366.759 49.9678 368.987 42.3558 368.987 33.2849C368.987 22.0591 365.264 13.7065 357.819 8.22727C350.374 2.74799 340.705 0.00556837 328.811 0C327.87 0 322.134 0.203245 311.605 0.609737C309.598 0.790355 307.687 1.55393 306.109 2.80646C304.082 4.43971 302.221 6.26948 300.554 8.26903C299.803 7.3586 299.026 6.48158 298.199 5.63797C295.232 2.68095 291.252 0.963808 287.065 0.835255H286.998L277.05 0.609737C276.783 0.609737 276.649 1.01901 276.649 1.82921C276.649 2.63941 276.783 3.04868 277.05 3.04868C282.329 3.04868 286.227 3.41898 288.744 4.15957C291.25 4.90295 292.92 6.22265 293.814 8.11868C294.707 10.0147 295.133 12.9882 295.133 17.0476V70.5039C291.126 71.2469 287.216 72.4463 283.482 74.0788C276.679 77.0168 270.808 81.756 266.501 87.7853C262.046 93.944 259.819 101.556 259.819 110.621C259.819 121.847 263.541 130.2 270.986 135.679C278.431 141.158 288.106 143.898 300.011 143.898C300.958 143.903 306.707 143.703 317.259 143.296ZM352.056 18.6011L352.156 18.7765C354.996 23.9885 356.416 30.1778 356.416 37.3443C356.416 48.442 353.075 56.9004 346.393 62.7193C342.714 65.9246 338.399 68.3157 333.731 69.7355V32.884C333.731 28.8191 334.171 25.8066 335.05 23.8465C335.532 22.8395 336.24 21.9578 337.12 21.2708C338 20.5839 339.027 20.1103 340.12 19.8874C342.626 19.2137 346.524 18.8768 351.814 18.8768C351.897 18.8768 351.989 18.7765 352.056 18.6011ZM307.428 7.20825C307.924 6.24245 308.632 5.40208 309.501 4.75085C310.369 4.09962 311.374 3.65463 312.44 3.4496C314.74 2.89277 318.663 2.61435 324.209 2.61435C329.928 2.55895 335.563 3.99856 340.555 6.79063C344.703 9.12627 348.223 12.4339 350.812 16.4295C346.969 16.4295 343.921 16.5046 341.682 16.6299L328.318 16.8387L310.652 16.6299C309.324 16.5715 307.754 16.5297 305.983 16.4963C305.95 12.1446 306.451 9.03746 307.428 7.20825ZM305.875 72.5002V69.6352V19.0856C308.643 19.1926 311.398 19.5307 314.11 20.0962C317.557 20.9092 319.89 22.3013 321.11 24.2725C322.329 26.2437 322.939 29.3899 322.939 33.7109V71.406V74.2793V124.821C320.168 124.716 317.411 124.381 314.695 123.818C311.248 123.011 308.915 121.619 307.696 119.642C306.476 117.665 305.869 114.536 305.875 110.254V72.5002ZM276.766 125.288L276.666 125.113C273.826 119.912 272.406 113.723 272.406 106.545C272.406 95.4474 275.747 86.9891 282.429 81.1701C286.105 77.9626 290.422 75.5738 295.092 74.1623V111.014C295.092 115.073 294.652 118.083 293.772 120.043C293.291 121.05 292.582 121.932 291.702 122.619C290.823 123.306 289.796 123.779 288.702 124.002C286.196 124.681 282.298 125.021 277.008 125.021C276.925 125.038 276.833 125.13 276.766 125.288ZM278.078 127.452C281.92 127.452 284.968 127.376 287.199 127.251L300.563 127.051L318.228 127.251C319.556 127.31 321.118 127.351 322.897 127.385C322.831 131.745 322.338 134.852 321.386 136.69C320.895 137.65 320.192 138.486 319.331 139.136C318.471 139.785 317.474 140.231 316.416 140.44C314.122 140.997 310.196 141.275 304.639 141.275C298.922 141.329 293.29 139.89 288.301 137.099C284.164 134.764 280.655 131.459 278.078 127.468V127.452Z" fill="#A58563"/>
</svg>
