<svg width="26" height="19" viewBox="0 0 26 19" fill="none" xmlns="http://www.w3.org/2000/svg">
<path fill-rule="evenodd" clip-rule="evenodd" d="M6.73613 0.807159C10.9058 0.480947 15.0944 0.480947 19.264 0.807159L22.0649 1.02628C23.625 1.14833 24.9013 2.31758 25.1592 3.86105C25.8044 7.72288 25.8044 11.6651 25.1592 15.527C24.9013 17.0704 23.625 18.2396 22.0649 18.3618L19.264 18.5809C15.0944 18.907 10.9058 18.907 6.73613 18.5809L3.93525 18.3618C2.37516 18.2396 1.09889 17.0704 0.841003 15.527C0.19574 11.6651 0.19574 7.72288 0.841003 3.86105C1.09889 2.31758 2.37516 1.14833 3.93525 1.02628L6.73613 0.807159ZM10.5 12.7816V6.60633C10.5 6.31485 10.818 6.1348 11.0679 6.28477L16.2142 9.37251C16.4569 9.51813 16.4569 9.86988 16.2142 10.0155L11.0679 13.1033C10.818 13.2533 10.5 13.0731 10.5 12.7816Z" fill="#BABABA"/>
</svg>
