<svg width="14" height="24" viewBox="0 0 14 24" fill="none" xmlns="http://www.w3.org/2000/svg">
<path d="M9.75 0.287109C8.21675 0.287109 6.74625 0.896209 5.662 1.9804C4.57787 3.0646 3.96875 4.53507 3.96875 6.06836V9.28711H0.875C0.719675 9.28711 0.59375 9.41298 0.59375 9.56836V13.8184C0.59375 13.9737 0.719675 14.0996 0.875 14.0996H3.96875V22.8184C3.96875 22.9737 4.09468 23.0996 4.25 23.0996H8.5C8.65537 23.0996 8.78125 22.9737 8.78125 22.8184V14.0996H11.9024C12.0315 14.0996 12.144 14.0117 12.1752 13.8866L13.2378 9.63661C13.2821 9.45911 13.1479 9.28711 12.9649 9.28711H8.78125V6.06836C8.78125 5.81143 8.88338 5.56502 9.065 5.38335C9.24663 5.20167 9.49312 5.09961 9.75 5.09961H13C13.1554 5.09961 13.2812 4.97368 13.2812 4.81836V0.568359C13.2812 0.413034 13.1554 0.287109 13 0.287109H9.75Z" fill="#BABABA"/>
</svg>
