<svg width="30" height="31" viewBox="0 0 30 31" fill="none" xmlns="http://www.w3.org/2000/svg">
<path d="M15 11.6309C12.7564 11.6309 10.9375 13.4497 10.9375 15.6934C10.9375 17.937 12.7564 19.7559 15 19.7559C17.2436 19.7559 19.0625 17.937 19.0625 15.6934C19.0625 13.4497 17.2436 11.6309 15 11.6309Z" fill="#BABABA"/>
<path fill-rule="evenodd" clip-rule="evenodd" d="M8.46191 4.54489C12.7721 4.06316 17.228 4.06316 21.5381 4.54489C23.9111 4.8101 25.8251 6.67982 26.1036 9.06114C26.619 13.4674 26.619 17.9187 26.1036 22.3249C25.8251 24.7063 23.9111 26.5761 21.5381 26.8412C17.228 27.3229 12.7721 27.3229 8.46191 26.8412C6.08891 26.5761 4.17493 24.7063 3.8964 22.3249C3.38105 17.9187 3.38105 13.4674 3.8964 9.06114C4.17493 6.67982 6.08891 4.8101 8.46191 4.54489ZM21.25 8.19305C20.5596 8.19305 20 8.7527 20 9.44305C20 10.1334 20.5596 10.693 21.25 10.693C21.9404 10.693 22.5 10.1334 22.5 9.44305C22.5 8.7527 21.9404 8.19305 21.25 8.19305ZM9.06249 15.6931C9.06249 12.4139 11.7208 9.75555 15 9.75555C18.2792 9.75555 20.9375 12.4139 20.9375 15.6931C20.9375 18.9723 18.2792 21.6306 15 21.6306C11.7208 21.6306 9.06249 18.9723 9.06249 15.6931Z" fill="#BABABA"/>
</svg>
