<svg width="17" height="13" viewBox="0 0 17 13" fill="none" xmlns="http://www.w3.org/2000/svg">
<path d="M16.7824 10.5728V1.94065C16.7824 1.14457 16.1398 0.501953 15.3437 0.501953H1.90623C1.11015 0.501953 0.467529 1.14457 0.467529 1.94065V10.5728C0.467529 11.3689 1.11015 12.0115 1.90623 12.0115H15.3437C16.1398 12.0115 16.7824 11.3689 16.7824 10.5728ZM15.5259 1.83515C15.8424 2.15166 15.6698 2.47777 15.4971 2.64082L11.6031 6.20879L15.3437 10.1029C15.4588 10.2372 15.5355 10.4482 15.4012 10.592C15.2765 10.7455 14.9888 10.7359 14.8641 10.64L10.6727 7.06242L8.62016 8.93273L6.57721 7.06242L2.3858 10.64C2.26111 10.7359 1.97337 10.7455 1.84868 10.592C1.7144 10.4482 1.79113 10.2372 1.90623 10.1029L5.64685 6.20879L1.75277 2.64082C1.58012 2.47777 1.40748 2.15166 1.72399 1.83515C2.04051 1.51863 2.36661 1.6721 2.63517 1.90229L8.62016 6.73632L14.6147 1.90229C14.8833 1.6721 15.2094 1.51863 15.5259 1.83515Z" fill="#A58563"/>
</svg>
