<svg width="22" height="24" viewBox="0 0 22 24" fill="none" xmlns="http://www.w3.org/2000/svg">
<mask id="path-1-inside-1_511_234" fill="white">
<path fill-rule="evenodd" clip-rule="evenodd" d="M10.6821 22.0957C16.548 22.0957 21.3032 17.3405 21.3032 11.4746C21.3032 5.60874 16.548 0.853516 10.6821 0.853516C4.81626 0.853516 0.0610352 5.60874 0.0610352 11.4746C0.0610352 13.8612 0.848219 16.064 2.17711 17.8374L1.40178 23.5323L6.75073 21.3443C7.96668 21.8291 9.29327 22.0957 10.6821 22.0957Z"/>
</mask>
<path d="M2.17711 17.8374L3.21707 17.979L3.27513 17.5525L3.01702 17.2081L2.17711 17.8374ZM1.40178 23.5323L0.361826 23.3908L0.116595 25.192L1.79915 24.5038L1.40178 23.5323ZM6.75073 21.3443L7.13942 20.3694L6.74568 20.2124L6.35337 20.3729L6.75073 21.3443ZM20.2537 11.4746C20.2537 16.7608 15.9683 21.0461 10.6821 21.0461V23.1452C17.1276 23.1452 22.3528 17.9201 22.3528 11.4746H20.2537ZM10.6821 1.90307C15.9683 1.90307 20.2537 6.18839 20.2537 11.4746H22.3528C22.3528 5.02909 17.1276 -0.196036 10.6821 -0.196036V1.90307ZM1.11059 11.4746C1.11059 6.18839 5.39591 1.90307 10.6821 1.90307V-0.196036C4.23661 -0.196036 -0.988517 5.02909 -0.988517 11.4746H1.11059ZM3.01702 17.2081C1.81953 15.61 1.11059 13.6266 1.11059 11.4746H-0.988517C-0.988517 14.0959 -0.123093 16.518 1.3372 18.4668L3.01702 17.2081ZM2.44174 23.6739L3.21707 17.979L1.13715 17.6959L0.361826 23.3908L2.44174 23.6739ZM6.35337 20.3729L1.00442 22.5609L1.79915 24.5038L7.1481 22.3158L6.35337 20.3729ZM10.6821 21.0461C9.42859 21.0461 8.23377 20.8057 7.13942 20.3694L6.36205 22.3193C7.6996 22.8525 9.15796 23.1452 10.6821 23.1452V21.0461Z" fill="#A58563" mask="url(#path-1-inside-1_511_234)"/>
<path d="M12.4542 13.6586L13.3484 12.8115C13.4688 12.6988 13.6212 12.6217 13.787 12.5895C13.9528 12.5573 14.1249 12.5713 14.2825 12.63L15.3723 13.0422C15.5315 13.1034 15.668 13.2079 15.7646 13.3425C15.8612 13.4771 15.9136 13.6358 15.9151 13.7986V15.6894C15.9142 15.8002 15.8897 15.9095 15.8429 16.011C15.7962 16.1125 15.7283 16.204 15.6432 16.28C15.5582 16.3559 15.4578 16.4148 15.3481 16.4531C15.2385 16.4913 15.1217 16.5081 15.005 16.5025C7.36858 16.0525 5.82773 9.92603 5.53632 7.58134C5.52279 7.4662 5.53515 7.34965 5.57259 7.23936C5.61002 7.12907 5.67168 7.02754 5.75351 6.94144C5.83533 6.85535 5.93547 6.78664 6.04734 6.73985C6.15921 6.69305 6.28027 6.66923 6.40255 6.66994H8.33062C8.50267 6.67042 8.67064 6.71966 8.81292 6.81131C8.95519 6.90297 9.06527 7.03285 9.12899 7.18426L9.56411 8.21668C9.62808 8.36533 9.6444 8.52854 9.61103 8.68592C9.57766 8.84331 9.49608 8.98789 9.37649 9.10161L8.48231 9.94872C8.48231 9.94872 8.99726 13.2502 12.4542 13.6586Z" fill="#A58563"/>
</svg>
