<svg width="16" height="16" viewBox="0 0 16 16" fill="none" xmlns="http://www.w3.org/2000/svg">
<path d="M10.1931 10.9311L11.4935 9.63075C11.6686 9.45778 11.8902 9.33938 12.1313 9.28992C12.3725 9.24045 12.6228 9.26206 12.8519 9.35211L14.4367 9.98487C14.6682 10.0788 14.8667 10.2392 15.0072 10.4459C15.1477 10.6525 15.2239 10.8961 15.2262 11.1459V14.0485C15.2248 14.2185 15.1891 14.3864 15.1211 14.5422C15.0532 14.698 14.9544 14.8384 14.8307 14.955C14.7071 15.0716 14.5611 15.162 14.4016 15.2207C14.2421 15.2794 14.0724 15.3052 13.9026 15.2966C2.79731 14.6058 0.556509 5.2014 0.132731 1.6022C0.113059 1.42545 0.131033 1.24654 0.18547 1.07724C0.239907 0.907938 0.329574 0.752082 0.448571 0.619923C0.567569 0.487765 0.7132 0.382299 0.875885 0.310465C1.03857 0.238632 1.21462 0.202057 1.39245 0.203149H4.19635C4.44656 0.203889 4.69083 0.279468 4.89773 0.420163C5.10464 0.560859 5.26472 0.760237 5.35739 0.992653L5.99015 2.57747C6.08318 2.80565 6.10692 3.05618 6.05839 3.29778C6.00987 3.53937 5.89123 3.76131 5.71731 3.93588L4.41695 5.23624C4.41695 5.23624 5.16582 10.3042 10.1931 10.9311Z" fill="#A58563"/>
</svg>
